  0
SECTION
  2
HEADER
  9
$ACADVER
  1
AC1014
  9
$HANDSEED
  5
FFFF
  9
$MEASUREMENT
 70
     1
  0
ENDSEC
  0
SECTION
  2
TABLES
  0
TABLE
  2
VPORT
  5
8
330
0
100
AcDbSymbolTable
 70
     4
  0
VPORT
  5
2E
330
8
100
AcDbSymbolTableRecord
100
AcDbViewportTableRecord
  2
*ACTIVE
 70
     0
 10
0.0
 20
0.0
 11
1.0
 21
1.0
 12
210.0
 22
148.5
 13
0.0
 23
0.0
 14
10.0
 24
10.0
 15
10.0
 25
10.0
 16
0.0
 26
0.0
 36
1.0
 17
0.0
 27
0.0
 37
0.0
 40
341.0
 41
1.24
 42
50.0
 43
0.0
 44
0.0
 50
0.0
 51
0.0
 71
     0
 72
   100
 73
     1
 74
     3
 75
     0
 76
     0
 77
     0
 78
     0
  0
ENDTAB
  0
TABLE
  2
LTYPE
  5
5
330
0
100
AcDbSymbolTable
 70
     1
  0
LTYPE
  5
14
330
5
100
AcDbSymbolTableRecord
100
AcDbLinetypeTableRecord
  2
BYBLOCK
 70
     0
  3

 72
    65
 73
     0
 40
0.0
  0
LTYPE
  5
15
330
5
100
AcDbSymbolTableRecord
100
AcDbLinetypeTableRecord
  2
BYLAYER
 70
     0
  3

 72
    65
 73
     0
 40
0.0
  0
LTYPE
  5
16
330
5
100
AcDbSymbolTableRecord
100
AcDbLinetypeTableRecord
  2
CONTINUOUS
 70
     0
  3
Solid line
 72
    65
 73
     0
 40
0.0
  0
ENDTAB
  0
TABLE
  2
LAYER
  5
2
100
AcDbSymbolTable
 70
2
  0
LAYER
  5
50
100
AcDbSymbolTableRecord
100
AcDbLayerTableRecord
  2
0
 70
0
  6
CONTINUOUS
  0
LAYER
  5
51
100
AcDbSymbolTableRecord
100
AcDbLayerTableRecord
  2
Layer_1
 70
0
  6
CONTINUOUS
  0
ENDTAB
  0
TABLE
  2
STYLE
  5
3
330
0
100
AcDbSymbolTable
 70
     1
  0
STYLE
  5
11
330
3
100
AcDbSymbolTableRecord
100
AcDbTextStyleTableRecord
  2
STANDARD
 70
     0
 40
0.0
 41
1.0
 50
0.0
 71
     0
 42
2.5
  3
txt
  4

  0
ENDTAB
  0
TABLE
  2
VIEW
  5
6
330
0
100
AcDbSymbolTable
 70
     0
  0
ENDTAB
  0
TABLE
  2
UCS
  5
7
330
0
100
AcDbSymbolTable
 70
     0
  0
ENDTAB
  0
TABLE
  2
APPID
  5
9
330
0
100
AcDbSymbolTable
 70
     2
  0
APPID
  5
12
330
9
100
AcDbSymbolTableRecord
100
AcDbRegAppTableRecord
  2
ACAD
 70
     0
  0
ENDTAB
  0
TABLE
  2
DIMSTYLE
  5
A
330
0
100
AcDbSymbolTable
 70
     1
  0
DIMSTYLE
105
27
330
A
100
AcDbSymbolTableRecord
100
AcDbDimStyleTableRecord
  2
ISO-25
 70
     0
  3

  4

  5

  6

  7

 40
1.0
 41
2.5
 42
0.625
 43
3.75
 44
1.25
 45
0.0
 46
0.0
 47
0.0
 48
0.0
140
2.5
141
2.5
142
0.0
143
0.03937007874016
144
1.0
145
0.0
146
1.0
147
0.625
 71
     0
 72
     0
 73
     0
 74
     0
 75
     0
 76
     0
 77
     1
 78
     8
170
     0
171
     3
172
     1
173
     0
174
     0
175
     0
176
     0
177
     0
178
     0
270
     2
271
     2
272
     2
273
     2
274
     3
340
11
275
     0
280
     0
281
     0
282
     0
283
     0
284
     8
285
     0
286
     0
287
     3
288
     0
  0
ENDTAB
  0
TABLE
  2
BLOCK_RECORD
  5
1
330
0
100
AcDbSymbolTable
 70
     1
  0
BLOCK_RECORD
  5
1F
330
1
100
AcDbSymbolTableRecord
100
AcDbBlockTableRecord
  2
*MODEL_SPACE
  0
BLOCK_RECORD
  5
1B
330
1
100
AcDbSymbolTableRecord
100
AcDbBlockTableRecord
  2
*PAPER_SPACE
  0
ENDTAB
  0
ENDSEC
  0
SECTION
  2
BLOCKS
  0
BLOCK
  5
20
330
1F
100
AcDbEntity
  8
0
100
AcDbBlockBegin
  2
*MODEL_SPACE
 70
     0
 10
0.0
 20
0.0
 30
0.0
  3
*MODEL_SPACE
  1

  0
ENDBLK
  5
21
330
1F
100
AcDbEntity
  8
0
100
AcDbBlockEnd
  0
BLOCK
  5
1C
330
1B
100
AcDbEntity
 67
     1
  8
0
100
AcDbBlockBegin
  2
*PAPER_SPACE
  1

  0
ENDBLK
  5
1D
330
1B
100
AcDbEntity
 67
     1
  8
0
100
AcDbBlockEnd
  0
ENDSEC
  0
SECTION
  2
ENTITIES
  0
LWPOLYLINE
  5
100
100
AcDbEntity
  8
Layer_1
 62
1
100
AcDbPolyline
 90
4
 70
1
 10
333.077230
 20
140.749077
 30
0.0
 10
333.077230
 20
133.184682
 30
0.0
 10
355.109480
 20
133.184682
 30
0.0
 10
355.109480
 20
140.749077
 30
0.0
  0
LWPOLYLINE
  5
101
100
AcDbEntity
  8
Layer_1
 62
1
100
AcDbPolyline
 90
4
 70
1
 10
276.717885
 20
121.297035
 30
0.0
 10
256.895331
 20
101.474473
 30
0.0
 10
263.701628
 20
94.668170
 30
0.0
 10
283.524185
 20
114.490732
 30
0.0
  0
LWPOLYLINE
  5
102
100
AcDbEntity
  8
Layer_1
 62
1
100
AcDbPolyline
 90
4
 70
1
 10
410.813585
 20
121.061392
 30
0.0
 10
404.007787
 20
114.255089
 30
0.0
 10
423.830370
 20
94.432524
 30
0.0
 10
430.636141
 20
101.238827
 30
0.0
  0
LWPOLYLINE
  5
103
100
AcDbEntity
  8
Layer_1
 62
1
100
AcDbPolyline
 90
4
 70
1
 10
323.576519
 20
119.467174
 30
0.0
 10
323.576519
 20
111.902260
 30
0.0
 10
364.610192
 20
111.902260
 30
0.0
 10
364.610192
 20
119.467174
 30
0.0
  0
LWPOLYLINE
  5
104
100
AcDbEntity
  8
Layer_1
 62
1
100
AcDbPolyline
 90
22
 70
1
 10
309.675575
 20
98.962998
 30
0.0
 10
280.519206
 20
69.807156
 30
0.0
 10
251.363367
 20
40.649763
 30
0.0
 10
251.363367
 20
6.725218
 30
0.0
 10
251.363367
 20
5.633295
 30
0.0
 10
258.456992
 20
5.633295
 30
0.0
 10
258.456992
 20
6.245661
 30
0.0
 10
258.456992
 20
36.649491
 30
0.0
 10
286.079081
 20
64.259174
 30
0.0
 10
313.701687
 20
91.869373
 30
0.0
 10
344.104983
 20
91.869373
 30
0.0
 10
374.508307
 20
91.869373
 30
0.0
 10
402.118503
 20
64.247289
 30
0.0
 10
429.728700
 20
36.624686
 30
0.0
 10
429.728700
 20
6.221373
 30
0.0
 10
429.728700
 20
5.633295
 30
0.0
 10
436.823370
 20
5.633295
 30
0.0
 10
436.823370
 20
6.713850
 30
0.0
 10
436.823370
 20
40.650795
 30
0.0
 10
407.667530
 20
69.807156
 30
0.0
 10
378.511664
 20
98.962998
 30
0.0
 10
344.093633
 20
98.962998
 30
0.0
  0
LWPOLYLINE
  5
105
100
AcDbEntity
  8
Layer_1
 62
1
100
AcDbPolyline
 90
4
 70
1
 10
438.130253
 20
94.216002
 30
0.0
 10
431.323952
 20
87.410215
 30
0.0
 10
451.146509
 20
67.587653
 30
0.0
 10
457.952809
 20
74.393956
 30
0.0
  0
LWPOLYLINE
  5
106
100
AcDbEntity
  8
Layer_1
 62
1
100
AcDbPolyline
 90
4
 70
1
 10
249.873019
 20
93.980356
 30
0.0
 10
230.050457
 20
74.158310
 30
0.0
 10
236.856760
 20
67.352007
 30
0.0
 10
256.678806
 20
87.174569
 30
0.0
  0
LWPOLYLINE
  5
107
100
AcDbEntity
  8
Layer_1
 62
1
100
AcDbPolyline
 90
22
 70
1
 10
330.953869
 20
40.182607
 30
0.0
 10
320.548283
 20
29.813731
 30
0.0
 10
310.143755
 20
19.443305
 30
0.0
 10
310.143755
 20
6.267882
 30
0.0
 10
310.143755
 20
5.633295
 30
0.0
 10
317.237393
 20
5.633295
 30
0.0
 10
317.237393
 20
6.232742
 30
0.0
 10
317.237393
 20
16.237299
 30
0.0
 10
325.663234
 20
24.663141
 30
0.0
 10
334.089076
 20
33.088984
 30
0.0
 10
344.093633
 20
33.088984
 30
0.0
 10
354.097661
 20
33.088984
 30
0.0
 10
362.523502
 20
24.663141
 30
0.0
 10
370.949873
 20
16.237299
 30
0.0
 10
370.949873
 20
6.232742
 30
0.0
 10
370.949873
 20
5.633295
 30
0.0
 10
378.043511
 20
5.633295
 30
0.0
 10
378.043511
 20
6.266849
 30
0.0
 10
378.043511
 20
19.371475
 30
0.0
 10
367.674622
 20
29.777041
 30
0.0
 10
357.305231
 20
40.182607
 30
0.0
 10
344.129272
 20
40.182607
 30
0.0
  0
LWPOLYLINE
  5
108
100
AcDbEntity
  8
Layer_1
 62
1
100
AcDbPolyline
 90
4
 70
1
 10
230.860744
 20
26.749836
 30
0.0
 10
230.860744
 20
5.633295
 30
0.0
 10
238.425139
 20
5.633295
 30
0.0
 10
238.425139
 20
26.749836
 30
0.0
  0
LWPOLYLINE
  5
109
100
AcDbEntity
  8
Layer_1
 62
1
100
AcDbPolyline
 90
4
 70
1
 10
449.761600
 20
26.749836
 30
0.0
 10
449.761600
 20
5.633295
 30
0.0
 10
457.326514
 20
5.633295
 30
0.0
 10
457.326514
 20
26.749836
 30
0.0
  0
LWPOLYLINE
  5
10a
100
AcDbEntity
  8
Layer_1
 62
1
100
AcDbPolyline
 90
4
 70
1
 10
209.578322
 20
17.249124
 30
0.0
 10
209.578322
 20
5.633295
 30
0.0
 10
217.143236
 20
5.633295
 30
0.0
 10
217.143236
 20
17.249124
 30
0.0
  0
SPLINE
  5
10b
100
AcDbEntity
  8
Layer_1
 62
7
100
AcDbSpline
 70
8
 71
3
 72
8
 73
4
 74
0
 40
0
 40
0
 40
0
 40
0
 40
1
 40
1
 40
1
 40
1
 10
344.093633
 20
158.732994
 30
0.0
 10
259.871385
 20
158.733002
 30
0.0
 10
191.593363
 20
90.455498
 30
0.0
 10
191.593374
 20
6.233259
 30
0.0
  0
SPLINE
  5
10c
100
AcDbEntity
  8
Layer_1
 62
7
100
AcDbSpline
 70
8
 71
3
 72
8
 73
4
 74
0
 40
0
 40
0
 40
0
 40
0
 40
1
 40
1
 40
1
 40
1
 10
191.593374
 20
6.233259
 30
0.0
 10
191.593374
 20
6.032965
 30
0.0
 10
191.596231
 20
5.833408
 30
0.0
 10
191.596998
 20
5.633295
 30
0.0
  0
LWPOLYLINE
  5
10d
100
AcDbEntity
  8
Layer_1
 62
1
100
AcDbPolyline
 90
4
 70
1
 10
471.043493
 20
17.249124
 30
0.0
 10
471.043493
 20
5.633295
 30
0.0
 10
478.608406
 20
5.633295
 30
0.0
 10
478.608406
 20
17.249124
 30
0.0
  0
SPLINE
  5
10e
100
AcDbEntity
  8
Layer_1
 62
7
100
AcDbSpline
 70
8
 71
3
 72
8
 73
4
 74
0
 40
0
 40
0
 40
0
 40
0
 40
1
 40
1
 40
1
 40
1
 10
191.796470
 20
5.633295
 30
0.0
 10
191.795677
 20
5.833414
 30
0.0
 10
191.792846
 20
6.032959
 30
0.0
 10
191.792846
 20
6.233259
 30
0.0
  0
SPLINE
  5
10f
100
AcDbEntity
  8
Layer_1
 62
7
100
AcDbSpline
 70
8
 71
3
 72
8
 73
4
 74
0
 40
0
 40
0
 40
0
 40
0
 40
1
 40
1
 40
1
 40
1
 10
191.792846
 20
6.233259
 30
0.0
 10
191.792835
 20
90.347410
 30
0.0
 10
259.979475
 20
158.531971
 30
0.0
 10
344.093633
 20
158.531971
 30
0.0
  0
SPLINE
  5
110
100
AcDbEntity
  8
Layer_1
 62
7
100
AcDbSpline
 70
8
 71
3
 72
8
 73
4
 74
0
 40
0
 40
0
 40
0
 40
0
 40
1
 40
1
 40
1
 40
1
 10
344.093633
 20
158.531971
 30
0.0
 10
428.207769
 20
158.531971
 30
0.0
 10
496.394412
 20
90.347408
 30
0.0
 10
496.394412
 20
6.233259
 30
0.0
  0
SPLINE
  5
111
100
AcDbEntity
  8
Layer_1
 62
7
100
AcDbSpline
 70
8
 71
3
 72
8
 73
4
 74
0
 40
0
 40
0
 40
0
 40
0
 40
1
 40
1
 40
1
 40
1
 10
496.394412
 20
6.233259
 30
0.0
 10
496.394412
 20
6.032959
 30
0.0
 10
496.391502
 20
5.833414
 30
0.0
 10
496.390708
 20
5.633295
 30
0.0
  0
LWPOLYLINE
  5
112
100
AcDbEntity
  8
Layer_1
 62
7
100
AcDbPolyline
 90
2
 70
0
 10
191.596998
 20
5.633295
 30
0.0
 10
191.796470
 20
5.633295
 30
0.0
  0
SPLINE
  5
113
100
AcDbEntity
  8
Layer_1
 62
7
100
AcDbSpline
 70
8
 71
3
 72
8
 73
4
 74
0
 40
0
 40
0
 40
0
 40
0
 40
1
 40
1
 40
1
 40
1
 10
496.589648
 20
5.633295
 30
0.0
 10
496.589648
 20
5.833408
 30
0.0
 10
496.593352
 20
6.032965
 30
0.0
 10
496.593352
 20
6.233259
 30
0.0
  0
SPLINE
  5
114
100
AcDbEntity
  8
Layer_1
 62
7
100
AcDbSpline
 70
8
 71
3
 72
8
 73
4
 74
0
 40
0
 40
0
 40
0
 40
0
 40
1
 40
1
 40
1
 40
1
 10
496.593352
 20
6.233259
 30
0.0
 10
496.593352
 20
90.455495
 30
0.0
 10
428.315851
 20
158.732994
 30
0.0
 10
344.093633
 20
158.732994
 30
0.0
  0
LWPOLYLINE
  5
115
100
AcDbEntity
  8
Layer_1
 62
7
100
AcDbPolyline
 90
2
 70
0
 10
496.390708
 20
5.633295
 30
0.0
 10
496.589648
 20
5.633295
 30
0.0
  0
LWPOLYLINE
  5
116
100
AcDbEntity
  8
Layer_1
 62
7
100
AcDbPolyline
 90
1
 70
1
 10
344.093633
 20
158.732994
 30
0.0
  0
LWPOLYLINE
  5
117
100
AcDbEntity
  8
Layer_1
 62
7
100
AcDbPolyline
 90
4
 70
1
 10
293.615579
 20
65.482872
 30
0.0
 10
293.615579
 20
62.483055
 30
0.0
 10
300.445638
 20
62.483055
 30
0.0
 10
300.445638
 20
65.482872
 30
0.0
  0
LWPOLYLINE
  5
118
100
AcDbEntity
  8
Layer_1
 62
7
100
AcDbPolyline
 90
4
 70
1
 10
309.303491
 20
65.482872
 30
0.0
 10
309.303491
 20
62.483055
 30
0.0
 10
316.133578
 20
62.483055
 30
0.0
 10
316.133578
 20
65.482872
 30
0.0
  0
LWPOLYLINE
  5
119
100
AcDbEntity
  8
Layer_1
 62
7
100
AcDbPolyline
 90
4
 70
1
 10
324.990902
 20
65.482872
 30
0.0
 10
324.990902
 20
62.483055
 30
0.0
 10
331.820988
 20
62.483055
 30
0.0
 10
331.820988
 20
65.482872
 30
0.0
  0
LWPOLYLINE
  5
11a
100
AcDbEntity
  8
Layer_1
 62
7
100
AcDbPolyline
 90
4
 70
1
 10
340.678338
 20
65.482872
 30
0.0
 10
340.678338
 20
62.483055
 30
0.0
 10
347.508398
 20
62.483055
 30
0.0
 10
347.508398
 20
65.482872
 30
0.0
  0
LWPOLYLINE
  5
11b
100
AcDbEntity
  8
Layer_1
 62
7
100
AcDbPolyline
 90
4
 70
1
 10
356.365749
 20
65.482872
 30
0.0
 10
356.365749
 20
62.483055
 30
0.0
 10
363.195808
 20
62.483055
 30
0.0
 10
363.195808
 20
65.482872
 30
0.0
  0
LWPOLYLINE
  5
11c
100
AcDbEntity
  8
Layer_1
 62
7
100
AcDbPolyline
 90
4
 70
1
 10
372.053661
 20
65.482872
 30
0.0
 10
372.053661
 20
62.483055
 30
0.0
 10
378.883748
 20
62.483055
 30
0.0
 10
378.883748
 20
65.482872
 30
0.0
  0
LWPOLYLINE
  5
11d
100
AcDbEntity
  8
Layer_1
 62
7
100
AcDbPolyline
 90
4
 70
1
 10
387.741098
 20
65.482872
 30
0.0
 10
387.741098
 20
62.483055
 30
0.0
 10
394.571158
 20
62.483055
 30
0.0
 10
394.571158
 20
65.482872
 30
0.0
  0
LWPOLYLINE
  5
11e
100
AcDbEntity
  8
Layer_1
 62
7
100
AcDbPolyline
 90
4
 70
1
 10
284.843503
 20
56.710281
 30
0.0
 10
284.843503
 20
49.880208
 30
0.0
 10
287.843323
 20
49.880208
 30
0.0
 10
287.843323
 20
56.710281
 30
0.0
  0
LWPOLYLINE
  5
11f
100
AcDbEntity
  8
Layer_1
 62
7
100
AcDbPolyline
 90
4
 70
1
 10
400.343414
 20
56.710281
 30
0.0
 10
400.343414
 20
49.880208
 30
0.0
 10
403.343762
 20
49.880208
 30
0.0
 10
403.343762
 20
56.710281
 30
0.0
  0
LWPOLYLINE
  5
120
100
AcDbEntity
  8
Layer_1
 62
7
100
AcDbPolyline
 90
4
 70
1
 10
284.843503
 20
41.022865
 30
0.0
 10
284.843503
 20
34.192792
 30
0.0
 10
287.843323
 20
34.192792
 30
0.0
 10
287.843323
 20
41.022865
 30
0.0
  0
LWPOLYLINE
  5
121
100
AcDbEntity
  8
Layer_1
 62
7
100
AcDbPolyline
 90
4
 70
1
 10
400.343414
 20
41.022865
 30
0.0
 10
400.343414
 20
34.192792
 30
0.0
 10
403.343762
 20
34.192792
 30
0.0
 10
403.343762
 20
41.022865
 30
0.0
  0
LWPOLYLINE
  5
122
100
AcDbEntity
  8
Layer_1
 62
7
100
AcDbPolyline
 90
4
 70
1
 10
284.843503
 20
25.335452
 30
0.0
 10
284.843503
 20
18.505378
 30
0.0
 10
287.843323
 20
18.505378
 30
0.0
 10
287.843323
 20
25.335452
 30
0.0
  0
LWPOLYLINE
  5
123
100
AcDbEntity
  8
Layer_1
 62
7
100
AcDbPolyline
 90
4
 70
1
 10
400.343414
 20
25.335452
 30
0.0
 10
400.343414
 20
18.505378
 30
0.0
 10
403.343762
 20
18.505378
 30
0.0
 10
403.343762
 20
25.335452
 30
0.0
  0
LWPOLYLINE
  5
124
100
AcDbEntity
  8
Layer_1
 62
7
100
AcDbPolyline
 90
4
 70
1
 10
284.843503
 20
9.648037
 30
0.0
 10
284.843503
 20
5.633295
 30
0.0
 10
287.843323
 20
5.633295
 30
0.0
 10
287.843323
 20
9.648037
 30
0.0
  0
LWPOLYLINE
  5
125
100
AcDbEntity
  8
Layer_1
 62
7
100
AcDbPolyline
 90
4
 70
1
 10
400.343414
 20
9.648037
 30
0.0
 10
400.343414
 20
5.633295
 30
0.0
 10
403.343762
 20
5.633295
 30
0.0
 10
403.343762
 20
9.648037
 30
0.0
  0
LWPOLYLINE
  5
126
100
AcDbEntity
  8
Layer_1
 62
1
100
AcDbPolyline
 90
4
 70
1
 10
165.418860
 20
112.690553
 30
0.0
 10
165.418860
 20
120.254948
 30
0.0
 10
143.386609
 20
120.254948
 30
0.0
 10
143.386609
 20
112.690553
 30
0.0
  0
LWPOLYLINE
  5
127
100
AcDbEntity
  8
Layer_1
 62
1
100
AcDbPolyline
 90
4
 70
1
 10
221.778205
 20
132.142595
 30
0.0
 10
241.600759
 20
151.965157
 30
0.0
 10
234.794461
 20
158.771460
 30
0.0
 10
214.971904
 20
138.948898
 30
0.0
  0
LWPOLYLINE
  5
128
100
AcDbEntity
  8
Layer_1
 62
1
100
AcDbPolyline
 90
4
 70
1
 10
87.682505
 20
132.378238
 30
0.0
 10
94.488302
 20
139.184541
 30
0.0
 10
74.665719
 20
159.007106
 30
0.0
 10
67.859948
 20
152.200803
 30
0.0
  0
LWPOLYLINE
  5
129
100
AcDbEntity
  8
Layer_1
 62
1
100
AcDbPolyline
 90
4
 70
1
 10
174.919571
 20
133.972456
 30
0.0
 10
174.919571
 20
141.537370
 30
0.0
 10
133.885898
 20
141.537370
 30
0.0
 10
133.885898
 20
133.972456
 30
0.0
  0
LWPOLYLINE
  5
12a
100
AcDbEntity
  8
Layer_1
 62
1
100
AcDbPolyline
 90
22
 70
1
 10
188.820515
 20
154.476632
 30
0.0
 10
217.976883
 20
183.632474
 30
0.0
 10
247.132723
 20
212.789867
 30
0.0
 10
247.132723
 20
246.714412
 30
0.0
 10
247.132723
 20
247.806335
 30
0.0
 10
240.039098
 20
247.806335
 30
0.0
 10
240.039098
 20
247.193969
 30
0.0
 10
240.039098
 20
216.790139
 30
0.0
 10
212.417008
 20
189.180456
 30
0.0
 10
184.794403
 20
161.570257
 30
0.0
 10
154.391106
 20
161.570257
 30
0.0
 10
123.987783
 20
161.570257
 30
0.0
 10
96.377586
 20
189.192341
 30
0.0
 10
68.767390
 20
216.814944
 30
0.0
 10
68.767390
 20
247.218257
 30
0.0
 10
68.767390
 20
247.806335
 30
0.0
 10
61.672720
 20
247.806335
 30
0.0
 10
61.672720
 20
246.725780
 30
0.0
 10
61.672720
 20
212.788835
 30
0.0
 10
90.828559
 20
183.632474
 30
0.0
 10
119.984425
 20
154.476632
 30
0.0
 10
154.402457
 20
154.476632
 30
0.0
  0
LWPOLYLINE
  5
12b
100
AcDbEntity
  8
Layer_1
 62
1
100
AcDbPolyline
 90
4
 70
1
 10
60.365837
 20
159.223628
 30
0.0
 10
67.172137
 20
166.029415
 30
0.0
 10
47.349581
 20
185.851977
 30
0.0
 10
40.543280
 20
179.045674
 30
0.0
  0
LWPOLYLINE
  5
12c
100
AcDbEntity
  8
Layer_1
 62
1
100
AcDbPolyline
 90
4
 70
1
 10
248.623070
 20
159.459274
 30
0.0
 10
268.445632
 20
179.281320
 30
0.0
 10
261.639329
 20
186.087623
 30
0.0
 10
241.817283
 20
166.265061
 30
0.0
  0
LWPOLYLINE
  5
12d
100
AcDbEntity
  8
Layer_1
 62
1
100
AcDbPolyline
 90
22
 70
1
 10
167.542220
 20
213.257023
 30
0.0
 10
177.947807
 20
223.625899
 30
0.0
 10
188.352334
 20
233.996325
 30
0.0
 10
188.352334
 20
247.171748
 30
0.0
 10
188.352334
 20
247.806335
 30
0.0
 10
181.258697
 20
247.806335
 30
0.0
 10
181.258697
 20
247.206888
 30
0.0
 10
181.258697
 20
237.202331
 30
0.0
 10
172.832855
 20
228.776489
 30
0.0
 10
164.407014
 20
220.350646
 30
0.0
 10
154.402457
 20
220.350646
 30
0.0
 10
144.398429
 20
220.350646
 30
0.0
 10
135.972587
 20
228.776489
 30
0.0
 10
127.546217
 20
237.202331
 30
0.0
 10
127.546217
 20
247.206888
 30
0.0
 10
127.546217
 20
247.806335
 30
0.0
 10
120.452579
 20
247.806335
 30
0.0
 10
120.452579
 20
247.172781
 30
0.0
 10
120.452579
 20
234.068155
 30
0.0
 10
130.821467
 20
223.662589
 30
0.0
 10
141.190858
 20
213.257023
 30
0.0
 10
154.366817
 20
213.257023
 30
0.0
  0
LWPOLYLINE
  5
12e
100
AcDbEntity
  8
Layer_1
 62
1
100
AcDbPolyline
 90
4
 70
1
 10
267.635346
 20
226.689794
 30
0.0
 10
267.635346
 20
247.806335
 30
0.0
 10
260.070951
 20
247.806335
 30
0.0
 10
260.070951
 20
226.689794
 30
0.0
  0
LWPOLYLINE
  5
12f
100
AcDbEntity
  8
Layer_1
 62
1
100
AcDbPolyline
 90
4
 70
1
 10
48.734489
 20
226.689794
 30
0.0
 10
48.734489
 20
247.806335
 30
0.0
 10
41.169576
 20
247.806335
 30
0.0
 10
41.169576
 20
226.689794
 30
0.0
  0
LWPOLYLINE
  5
130
100
AcDbEntity
  8
Layer_1
 62
1
100
AcDbPolyline
 90
4
 70
1
 10
288.917767
 20
236.190506
 30
0.0
 10
288.917767
 20
247.806335
 30
0.0
 10
281.352854
 20
247.806335
 30
0.0
 10
281.352854
 20
236.190506
 30
0.0
  0
SPLINE
  5
131
100
AcDbEntity
  8
Layer_1
 62
7
100
AcDbSpline
 70
8
 71
3
 72
8
 73
4
 74
0
 40
0
 40
0
 40
0
 40
0
 40
1
 40
1
 40
1
 40
1
 10
154.402457
 20
94.706636
 30
0.0
 10
238.624704
 20
94.706628
 30
0.0
 10
306.902727
 20
162.984132
 30
0.0
 10
306.902716
 20
247.206371
 30
0.0
  0
SPLINE
  5
132
100
AcDbEntity
  8
Layer_1
 62
7
100
AcDbSpline
 70
8
 71
3
 72
8
 73
4
 74
0
 40
0
 40
0
 40
0
 40
0
 40
1
 40
1
 40
1
 40
1
 10
306.902716
 20
247.206371
 30
0.0
 10
306.902716
 20
247.406665
 30
0.0
 10
306.899858
 20
247.606222
 30
0.0
 10
306.899091
 20
247.806335
 30
0.0
  0
LWPOLYLINE
  5
133
100
AcDbEntity
  8
Layer_1
 62
1
100
AcDbPolyline
 90
4
 70
1
 10
27.452597
 20
236.190506
 30
0.0
 10
27.452597
 20
247.806335
 30
0.0
 10
19.887683
 20
247.806335
 30
0.0
 10
19.887683
 20
236.190506
 30
0.0
  0
SPLINE
  5
134
100
AcDbEntity
  8
Layer_1
 62
7
100
AcDbSpline
 70
8
 71
3
 72
8
 73
4
 74
0
 40
0
 40
0
 40
0
 40
0
 40
1
 40
1
 40
1
 40
1
 10
306.699619
 20
247.806335
 30
0.0
 10
306.700413
 20
247.606216
 30
0.0
 10
306.703244
 20
247.406671
 30
0.0
 10
306.703244
 20
247.206371
 30
0.0
  0
SPLINE
  5
135
100
AcDbEntity
  8
Layer_1
 62
7
100
AcDbSpline
 70
8
 71
3
 72
8
 73
4
 74
0
 40
0
 40
0
 40
0
 40
0
 40
1
 40
1
 40
1
 40
1
 10
306.703244
 20
247.206371
 30
0.0
 10
306.703254
 20
163.092220
 30
0.0
 10
238.516614
 20
94.907659
 30
0.0
 10
154.402457
 20
94.907659
 30
0.0
  0
SPLINE
  5
136
100
AcDbEntity
  8
Layer_1
 62
7
100
AcDbSpline
 70
8
 71
3
 72
8
 73
4
 74
0
 40
0
 40
0
 40
0
 40
0
 40
1
 40
1
 40
1
 40
1
 10
154.402457
 20
94.907659
 30
0.0
 10
70.288320
 20
94.907659
 30
0.0
 10
2.101677
 20
163.092222
 30
0.0
 10
2.101677
 20
247.206371
 30
0.0
  0
SPLINE
  5
137
100
AcDbEntity
  8
Layer_1
 62
7
100
AcDbSpline
 70
8
 71
3
 72
8
 73
4
 74
0
 40
0
 40
0
 40
0
 40
0
 40
1
 40
1
 40
1
 40
1
 10
2.101677
 20
247.206371
 30
0.0
 10
2.101677
 20
247.406671
 30
0.0
 10
2.104588
 20
247.606216
 30
0.0
 10
2.105381
 20
247.806335
 30
0.0
  0
LWPOLYLINE
  5
138
100
AcDbEntity
  8
Layer_1
 62
7
100
AcDbPolyline
 90
2
 70
0
 10
306.899091
 20
247.806335
 30
0.0
 10
306.699619
 20
247.806335
 30
0.0
  0
SPLINE
  5
139
100
AcDbEntity
  8
Layer_1
 62
7
100
AcDbSpline
 70
8
 71
3
 72
8
 73
4
 74
0
 40
0
 40
0
 40
0
 40
0
 40
1
 40
1
 40
1
 40
1
 10
1.906441
 20
247.806335
 30
0.0
 10
1.906441
 20
247.606222
 30
0.0
 10
1.902737
 20
247.406665
 30
0.0
 10
1.902737
 20
247.206371
 30
0.0
  0
SPLINE
  5
13a
100
AcDbEntity
  8
Layer_1
 62
7
100
AcDbSpline
 70
8
 71
3
 72
8
 73
4
 74
0
 40
0
 40
0
 40
0
 40
0
 40
1
 40
1
 40
1
 40
1
 10
1.902737
 20
247.206371
 30
0.0
 10
1.902737
 20
162.984135
 30
0.0
 10
70.180238
 20
94.706636
 30
0.0
 10
154.402457
 20
94.706636
 30
0.0
  0
LWPOLYLINE
  5
13b
100
AcDbEntity
  8
Layer_1
 62
7
100
AcDbPolyline
 90
2
 70
0
 10
2.105381
 20
247.806335
 30
0.0
 10
1.906441
 20
247.806335
 30
0.0
  0
LWPOLYLINE
  5
13c
100
AcDbEntity
  8
Layer_1
 62
7
100
AcDbPolyline
 90
1
 70
1
 10
154.402457
 20
94.706636
 30
0.0
  0
LWPOLYLINE
  5
13d
100
AcDbEntity
  8
Layer_1
 62
7
100
AcDbPolyline
 90
4
 70
1
 10
204.880511
 20
187.956758
 30
0.0
 10
204.880511
 20
190.956575
 30
0.0
 10
198.050451
 20
190.956575
 30
0.0
 10
198.050451
 20
187.956758
 30
0.0
  0
LWPOLYLINE
  5
13e
100
AcDbEntity
  8
Layer_1
 62
7
100
AcDbPolyline
 90
4
 70
1
 10
189.192598
 20
187.956758
 30
0.0
 10
189.192598
 20
190.956575
 30
0.0
 10
182.362512
 20
190.956575
 30
0.0
 10
182.362512
 20
187.956758
 30
0.0
  0
LWPOLYLINE
  5
13f
100
AcDbEntity
  8
Layer_1
 62
7
100
AcDbPolyline
 90
4
 70
1
 10
173.505188
 20
187.956758
 30
0.0
 10
173.505188
 20
190.956575
 30
0.0
 10
166.675101
 20
190.956575
 30
0.0
 10
166.675101
 20
187.956758
 30
0.0
  0
LWPOLYLINE
  5
140
100
AcDbEntity
  8
Layer_1
 62
7
100
AcDbPolyline
 90
4
 70
1
 10
157.817751
 20
187.956758
 30
0.0
 10
157.817751
 20
190.956575
 30
0.0
 10
150.987691
 20
190.956575
 30
0.0
 10
150.987691
 20
187.956758
 30
0.0
  0
LWPOLYLINE
  5
141
100
AcDbEntity
  8
Layer_1
 62
7
100
AcDbPolyline
 90
4
 70
1
 10
142.130341
 20
187.956758
 30
0.0
 10
142.130341
 20
190.956575
 30
0.0
 10
135.300281
 20
190.956575
 30
0.0
 10
135.300281
 20
187.956758
 30
0.0
  0
LWPOLYLINE
  5
142
100
AcDbEntity
  8
Layer_1
 62
7
100
AcDbPolyline
 90
4
 70
1
 10
126.442428
 20
187.956758
 30
0.0
 10
126.442428
 20
190.956575
 30
0.0
 10
119.612342
 20
190.956575
 30
0.0
 10
119.612342
 20
187.956758
 30
0.0
  0
LWPOLYLINE
  5
143
100
AcDbEntity
  8
Layer_1
 62
7
100
AcDbPolyline
 90
4
 70
1
 10
110.754991
 20
187.956758
 30
0.0
 10
110.754991
 20
190.956575
 30
0.0
 10
103.924931
 20
190.956575
 30
0.0
 10
103.924931
 20
187.956758
 30
0.0
  0
LWPOLYLINE
  5
144
100
AcDbEntity
  8
Layer_1
 62
7
100
AcDbPolyline
 90
4
 70
1
 10
213.652586
 20
196.729349
 30
0.0
 10
213.652586
 20
203.559422
 30
0.0
 10
210.652767
 20
203.559422
 30
0.0
 10
210.652767
 20
196.729349
 30
0.0
  0
LWPOLYLINE
  5
145
100
AcDbEntity
  8
Layer_1
 62
7
100
AcDbPolyline
 90
4
 70
1
 10
98.152676
 20
196.729349
 30
0.0
 10
98.152676
 20
203.559422
 30
0.0
 10
95.152327
 20
203.559422
 30
0.0
 10
95.152327
 20
196.729349
 30
0.0
  0
LWPOLYLINE
  5
146
100
AcDbEntity
  8
Layer_1
 62
7
100
AcDbPolyline
 90
4
 70
1
 10
213.652586
 20
212.416765
 30
0.0
 10
213.652586
 20
219.246838
 30
0.0
 10
210.652767
 20
219.246838
 30
0.0
 10
210.652767
 20
212.416765
 30
0.0
  0
LWPOLYLINE
  5
147
100
AcDbEntity
  8
Layer_1
 62
7
100
AcDbPolyline
 90
4
 70
1
 10
98.152676
 20
212.416765
 30
0.0
 10
98.152676
 20
219.246838
 30
0.0
 10
95.152327
 20
219.246838
 30
0.0
 10
95.152327
 20
212.416765
 30
0.0
  0
LWPOLYLINE
  5
148
100
AcDbEntity
  8
Layer_1
 62
7
100
AcDbPolyline
 90
4
 70
1
 10
213.652586
 20
228.104178
 30
0.0
 10
213.652586
 20
234.934252
 30
0.0
 10
210.652767
 20
234.934252
 30
0.0
 10
210.652767
 20
228.104178
 30
0.0
  0
LWPOLYLINE
  5
149
100
AcDbEntity
  8
Layer_1
 62
7
100
AcDbPolyline
 90
4
 70
1
 10
98.152676
 20
228.104178
 30
0.0
 10
98.152676
 20
234.934252
 30
0.0
 10
95.152327
 20
234.934252
 30
0.0
 10
95.152327
 20
228.104178
 30
0.0
  0
LWPOLYLINE
  5
14a
100
AcDbEntity
  8
Layer_1
 62
7
100
AcDbPolyline
 90
4
 70
1
 10
213.652586
 20
243.791593
 30
0.0
 10
213.652586
 20
247.806335
 30
0.0
 10
210.652767
 20
247.806335
 30
0.0
 10
210.652767
 20
243.791593
 30
0.0
  0
LWPOLYLINE
  5
14b
100
AcDbEntity
  8
Layer_1
 62
7
100
AcDbPolyline
 90
4
 70
1
 10
98.152676
 20
243.791593
 30
0.0
 10
98.152676
 20
247.806335
 30
0.0
 10
95.152327
 20
247.806335
 30
0.0
 10
95.152327
 20
243.791593
 30
0.0
  0
ENDSEC
  0
SECTION
  2
OBJECTS
  0
DICTIONARY
  5
C
330
0
100
AcDbDictionary
  3
ACAD_GROUP
350
D
  3
ACAD_MLINESTYLE
350
17
  0
DICTIONARY
  5
D
330
C
100
AcDbDictionary
  0
DICTIONARY
  5
1A
330
C
100
AcDbDictionary
  0
DICTIONARY
  5
17
330
C
100
AcDbDictionary
  3
STANDARD
350
18
  0
DICTIONARY
  5
19
330
C
100
AcDbDictionary
  0
ENDSEC
  0
EOF
