<?xml version="1.0" encoding="UTF-8" standalone="no"?>
<!-- Created with Inkscape (http://www.inkscape.org/) -->

<svg
   xmlns:dc="http://purl.org/dc/elements/1.1/"
   xmlns:cc="http://creativecommons.org/ns#"
   xmlns:rdf="http://www.w3.org/1999/02/22-rdf-syntax-ns#"
   xmlns:svg="http://www.w3.org/2000/svg"
   xmlns="http://www.w3.org/2000/svg"
   xmlns:sodipodi="http://sodipodi.sourceforge.net/DTD/sodipodi-0.dtd"
   xmlns:inkscape="http://www.inkscape.org/namespaces/inkscape"
   width="210mm"
   height="297mm"
   viewBox="0 0 210 297"
   version="1.1"
   id="svg8"
   inkscape:version="0.92.3 (2405546, 2018-03-11)"
   sodipodi:docname="toc_fairy_dust_plate.svg">
  <sodipodi:namedview
     id="base"
     pagecolor="#ffffff"
     bordercolor="#666666"
     borderopacity="1.0"
     inkscape:pageopacity="0.0"
     inkscape:pageshadow="2"
     inkscape:zoom="2.8"
     inkscape:cx="1112.1799"
     inkscape:cy="671.46511"
     inkscape:document-units="mm"
     inkscape:current-layer="svg8"
     showgrid="false"
     inkscape:window-width="2048"
     inkscape:window-height="1090"
     inkscape:window-x="0"
     inkscape:window-y="25"
     inkscape:window-maximized="1" />
  <defs
     id="defs2">
    <inkscape:perspective
       id="perspective10"
       inkscape:persp3d-origin="318.89764 : 253.93899 : 1"
       inkscape:vp_z="637.79529 : 380.90848 : 1"
       inkscape:vp_y="0 : 1000 : 0"
       inkscape:vp_x="0 : 380.90848 : 1"
       sodipodi:type="inkscape:persp3d" />
    <inkscape:perspective
       sodipodi:type="inkscape:persp3d"
       inkscape:vp_x="0 : 380.90848 : 1"
       inkscape:vp_y="0 : 1000 : 0"
       inkscape:vp_z="637.79529 : 380.90848 : 1"
       inkscape:persp3d-origin="318.89764 : 253.93899 : 1"
       id="perspective10-7" />
  </defs>
  <metadata
     id="metadata5">
    <rdf:RDF>
      <cc:Work
         rdf:about="">
        <dc:format>image/svg+xml</dc:format>
        <dc:type
           rdf:resource="http://purl.org/dc/dcmitype/StillImage" />
        <dc:title />
      </cc:Work>
    </rdf:RDF>
  </metadata>
  <g
     inkscape:label="Layer 1"
     inkscape:groupmode="layer"
     id="layer1" />
  <g
     inkscape:label="newlayer"
     inkscape:groupmode="layer"
     id="g1542" />
  <g
     id="g59"
     inkscape:groupmode="layer"
     inkscape:label="newlayer" />
  <path
     inkscape:connector-curvature="0"
     id="path32"
     inkscape:label="part"
     style="fill:none;stroke:#000000"
     d="m 131.79389,123.60412 v -8.6025 h -3 v -7.17 h 3 v -8.517498 h -3 v -7.17 h 3 v -8.5175 h -3 v -7.17 h 3 v -8.5175 h -3 v -7.17 h 3 v -8.5175 h -3 v -7.17 h 3 v -8.5175 h -3 v -7.17 h 3 v -8.5175 h -3 v -7.17 h 3 v -8.6025" />
  <path
     inkscape:connector-curvature="0"
     id="path34"
     inkscape:label="part"
     style="fill:none;stroke:#000000"
     d="m 131.79389,5.104122 h 6.585 v 3 h 6.83 v -3 h 6.585" />
  <path
     inkscape:connector-curvature="0"
     id="path36"
     inkscape:label="part"
     style="fill:none;stroke:#000000"
     d="m 151.79389,5.104122 v 8.6025 h 3 v 7.17 h -3 v 8.5175 h 3 v 7.17 h -3 v 8.5175 h 3 v 7.17 h -3 v 8.5175 h 3 v 7.17 h -3 v 8.5175 h 3 v 7.17 h -3 v 8.5175 h 3 v 7.17 h -3 v 8.517498 h 3 v 7.17 h -3 v 8.6025" />
  <path
     inkscape:connector-curvature="0"
     id="path38"
     inkscape:label="part"
     style="fill:none;stroke:#000000"
     d="m 151.79389,123.60412 h -6.585 v -3 h -6.83 v 3 h -6.585" />
  <path
     inkscape:connector-curvature="0"
     id="path40"
     inkscape:label="part"
     style="fill:none;stroke:#000000"
     d="m 12.793894,147.10412 v -6.415 h -3 l 0,-7.17 h 3 l 0,-6.415" />
  <path
     inkscape:connector-curvature="0"
     id="path42"
     inkscape:label="part"
     style="fill:none;stroke:#000000"
     d="m 12.793894,127.10412 h 5.6025 v -3 h 7.17 v 3 h 8.5175 v -3 h 7.17 v 3 h 8.5175 v -3 h 7.17 v 3 h 8.5175 v -3 h 7.17 v 3 h 8.5175 v -3 h 7.17 v 3 h 8.5175 v -3 h 7.169996 v 3 h 8.5175 v -3 h 7.17 v 3 h 5.6025" />
  <path
     inkscape:connector-curvature="0"
     id="path44"
     inkscape:label="part"
     style="fill:none;stroke:#000000"
     d="m 125.29389,127.10412 v 6.415 h 3 v 7.17 h -3 v 6.415" />
  <path
     inkscape:connector-curvature="0"
     id="path46"
     inkscape:label="part"
     style="fill:none;stroke:#000000"
     d="m 125.29389,147.10412 h -5.6025 v 3 h -7.17 v -3 h -8.5175 v 3 h -7.169996 v -3 h -8.5175 v 3 h -7.17 v -3 h -8.5175 v 3 h -7.17 v -3 h -8.5175 v 3 h -7.17 v -3 h -8.5175 v 3 h -7.17 v -3 h -8.5175 v 3 h -7.17 v -3 h -5.6025" />
  <path
     inkscape:connector-curvature="0"
     id="path48"
     inkscape:label="part"
     style="fill:none;stroke:#000000"
     d="m 9.793894,123.60412 v -8.7725 h 3 l 0,-6.83 h -3 l 0,-8.857498 h 3 v -6.83 h -3 v -8.8575 h 3 v -6.83 h -3 v -8.8575 h 3 v -6.83 h -3 v -8.8575 h 3 v -6.83 h -3 v -8.8575 h 3 v -6.83 h -3 v -8.8575 h 3 l 0,-6.83 h -3 v -8.7725" />
  <path
     inkscape:connector-curvature="0"
     id="path50"
     inkscape:label="part"
     style="fill:none;stroke:#000000"
     d="m 9.793894,5.104122 h 8.7725 v 3 h 6.83 l 0,-3 h 8.8575 v 3 h 6.83 v -3 h 8.8575 v 3 h 6.83 v -3 h 8.8575 v 3 h 6.83 v -3 h 8.8575 v 3 h 6.83 v -3 h 8.8575 v 3 h 6.829996 v -3 h 8.8575 v 3 h 6.83 v -3 h 8.7725" />
  <path
     inkscape:connector-curvature="0"
     id="path52"
     inkscape:label="part"
     style="fill:none;stroke:#000000"
     d="m 128.29389,5.104122 v 8.7725 h -3 v 6.83 h 3 v 8.8575 l -3,0 0,6.83 3,0 v 8.8575 l -3,0 v 6.83 l 3,0 v 8.8575 l -3,0 v 6.83 l 3,0 v 8.8575 l -3,0 v 6.83 l 3,0 v 8.8575 h -3 v 6.83 h 3 v 8.857498 h -3 v 6.83 h 3 v 8.7725" />
  <path
     inkscape:connector-curvature="0"
     id="path54"
     inkscape:label="part"
     style="fill:none;stroke:#000000"
     d="m 128.29389,123.60412 h -8.7725 v -3 h -6.83 v 3 h -8.8575 v -3 h -6.829996 v 3 h -8.8575 v -3 h -6.83 v 3 h -8.8575 v -3 h -6.83 v 3 h -8.8575 v -3 h -6.83 v 3 h -8.8575 l 0,-3 h -6.83 l 0,3 h -8.8575 l 0,-3 h -6.83 v 3 h -8.7725" />
  <path
     d="m 158.84391,147.10412 v -6.415 h -3 v -7.17 h 3 v -6.415"
     style="fill:none;stroke:#000000"
     inkscape:label="part"
     id="path88"
     inkscape:connector-curvature="0" />
  <path
     d="m 158.84391,127.10412 h 5.60251 v -3 h 7.17 v 3 h 8.51751 v -3 h 7.17 v 3 h 8.51751 v -3 h 7.17 v 3 h 8.51751 v -3 h 7.17 v 3 h 8.51751 v -3 h 7.17004 v 3 h 8.51755 v -3 h 7.17004 v 3 h 8.51753 v -3 h 7.17 v 3 h 5.6025"
     style="fill:none;stroke:#000000"
     inkscape:label="part"
     id="path90"
     inkscape:connector-curvature="0" />
  <path
     d="m 271.34412,127.10412 v 6.415 h 3 v 7.17 h -3 v 6.415"
     style="fill:none;stroke:#000000"
     inkscape:label="part"
     id="path92"
     inkscape:connector-curvature="0" />
  <path
     d="m 271.34412,147.10412 h -5.6025 v 3 h -7.17 v -3 h -8.51753 v 3 h -7.17004 v -3 h -8.51755 v 3 h -7.17004 v -3 h -8.51751 v 3 h -7.17 v -3 h -8.51751 v 3 h -7.17 v -3 h -8.51751 v 3 h -7.17 v -3 h -8.51751 v 3 h -7.17 v -3 h -5.60251"
     style="fill:none;stroke:#000000"
     inkscape:label="part"
     id="path94"
     inkscape:connector-curvature="0" />
  <path
     d="m 155.84391,123.60412 v -8.7725 h 3 v -6.83 h -3 v -8.857498 h 3 v -6.83 h -3 v -8.8575 h 3 v -6.83 h -3 v -8.8575 h 3 v -6.83 h -3 v -8.8575 h 3 v -6.83 h -3 v -8.8575 h 3 v -6.83 h -3 v -8.8575 h 3 v -6.83 h -3 v -8.7725"
     style="fill:none;stroke:#000000"
     inkscape:label="part"
     id="path96"
     inkscape:connector-curvature="0" />
  <path
     d="m 155.84391,5.104122 h 8.77251 v 3 h 6.83 v -3 h 8.85751 v 3 h 6.83 v -3 h 8.85751 v 3 h 6.83 v -3 h 8.85751 v 3 h 6.83 v -3 h 8.85751 v 3 h 6.83004 v -3 l 8.85755,0 v 3 h 6.83004 v -3 h 8.85753 v 3 h 6.83 v -3 h 8.7725"
     style="fill:none;stroke:#000000"
     inkscape:label="part"
     id="path98"
     inkscape:connector-curvature="0" />
  <path
     d="m 274.34412,5.104122 v 8.7725 h -3 v 6.83 h 3 v 8.8575 h -3 v 6.83 h 3 v 8.8575 h -3 v 6.83 h 3 v 8.8575 h -3 v 6.83 h 3 v 8.8575 h -3 v 6.83 h 3 v 8.8575 h -3 v 6.83 h 3 v 8.857498 h -3 v 6.83 h 3 v 8.7725"
     style="fill:none;stroke:#000000"
     inkscape:label="part"
     id="path100"
     inkscape:connector-curvature="0" />
  <path
     d="m 274.34412,123.60412 h -8.7725 v -3 h -6.83 v 3 h -8.85753 v -3 h -6.83004 v 3 h -8.85755 v -3 h -6.83004 v 3 h -8.85751 v -3 h -6.83 v 3 h -8.85751 v -3 h -6.83 v 3 h -8.85751 v -3 h -6.83 v 3 h -8.85751 v -3 h -6.83 v 3 h -8.77251"
     style="fill:none;stroke:#000000"
     inkscape:label="part"
     id="path102"
     inkscape:connector-curvature="0" />
  <path
     style="color:#000000;font-style:normal;font-variant:normal;font-weight:normal;font-stretch:normal;font-size:medium;line-height:normal;font-family:sans-serif;font-variant-ligatures:normal;font-variant-position:normal;font-variant-caps:normal;font-variant-numeric:normal;font-variant-alternates:normal;font-feature-settings:normal;text-indent:0;text-align:start;text-decoration:none;text-decoration-line:none;text-decoration-style:solid;text-decoration-color:#000000;letter-spacing:normal;word-spacing:normal;text-transform:none;writing-mode:lr-tb;direction:ltr;text-orientation:mixed;dominant-baseline:auto;baseline-shift:baseline;text-anchor:start;white-space:normal;shape-padding:0;clip-rule:nonzero;display:inline;overflow:visible;visibility:visible;opacity:1;isolation:auto;mix-blend-mode:normal;color-interpolation:sRGB;color-interpolation-filters:linearRGB;solid-color:#000000;solid-opacity:1;vector-effect:none;fill:#000000;fill-opacity:1;fill-rule:nonzero;stroke:none;stroke-width:0.2;stroke-linecap:butt;stroke-linejoin:miter;stroke-miterlimit:4;stroke-dasharray:none;stroke-dashoffset:0;stroke-opacity:1;color-rendering:auto;image-rendering:auto;shape-rendering:auto;text-rendering:auto;enable-background:accumulate"
     d="m 137.54389,55.268184 h 0.0996 8.40039 V 38.768182 h -8.5 z m 0.19922,-0.199218 V 38.967402 h 8.10156 v 16.101564 z"
     id="rect1636"
     inkscape:connector-curvature="0" />
  <g
     id="g169"
     transform="matrix(0.27555144,0,0,0.27627651,190.66771,39.900596)"
     style="fill:none;stroke:#ff0000;stroke-width:0.95893496">
    <path
       inkscape:connector-curvature="0"
       id="path3021"
       d="M 87.502173,-0.07020328 C 39.129794,0.54320299 0.0625,40.011539 0.0625,88.52741 c 0,48.89788 39.697707,88.56634 88.596779,88.56634 48.899081,0 88.565521,-39.66846 88.565511,-88.56634 0,-0.382029 0.007,-0.776233 0,-1.157117 V 17.568008 C 177.03076,7.8445938 169.12107,0.00304699 159.36783,-0.07020328 h -70.708551 -0.40655 c -0.24592,0 -0.504268,-0.0031524 -0.750556,0 z M 155.02086,7.4979656 c 2.16176,2.8e-5 4.02316,0.4640486 5.4728,1.469851 1.46679,0.9878439 2.3142,2.5796424 2.31421,4.3470064 -1e-5,1.04568 -0.27695,2.096579 -0.75055,3.127342 -0.44721,0.946994 -0.94297,1.7618 -1.50111,2.408054 -0.40868,0.451679 -0.83822,0.912347 -1.2822,1.344757 1.24551,0.699346 2.29864,1.581051 3.09604,2.689515 h 0.0313 c 0.004,0.0068 -0.004,0.05574 0,0.06255 0.94249,1.267999 1.40728,2.781399 1.40729,4.409553 -1e-5,3.007682 -1.24782,5.538731 -3.59641,7.224161 -2.25967,1.640894 -5.04155,2.523448 -8.22483,2.626967 0,0 -0.0263,-9.69e-4 -0.0313,0 -0.78577,-2e-6 -1.56071,-0.396721 -2.0953,-0.969476 -0.42275,-0.455245 -0.81311,-0.950112 -0.81311,-1.688765 0,-0.340264 0.0139,-0.680919 0.0938,-1.000749 l 0.25019,-0.875656 0.87565,-0.03127 c 2.74874,-0.09239 4.69085,-0.690577 5.84807,-1.594944 1.15724,-0.904367 1.68875,-2.102376 1.68875,-4.002999 -1e-5,-1.857387 -0.73731,-2.955924 -2.75203,-3.846631 -0.52304,-0.235353 -0.93066,-0.44794 -1.2822,-0.688015 -0.35154,-0.240075 -0.81976,-0.442114 -0.90692,-1.313484 l -0.0313,-0.406555 0.21892,-0.344007 c 0.29378,-0.456992 0.75951,-1.049038 1.50111,-1.938953 v -0.03127 c 0.71159,-0.826346 1.26982,-1.603555 1.65747,-2.314234 v -0.03127 c 0.36623,-0.636069 0.53163,-1.242628 0.53164,-1.938952 -1e-5,-0.620902 -0.15477,-0.968007 -0.56291,-1.344758 -0.35249,-0.325347 -0.91275,-0.594176 -1.93894,-0.594195 -0.17966,9e-6 -0.84726,0.110212 -1.78256,0.344008 -0.4938,0.123457 -0.88728,0.216002 -1.18838,0.281461 -0.30111,0.06546 -0.37655,0.125156 -0.78183,0.125093 -0.74388,1.17e-4 -1.02,-0.263496 -1.40729,-0.531648 l -0.0313,-0.03127 -0.0313,-0.03127 c -0.44274,-0.3689 -0.87565,-0.904696 -0.87565,-1.626218 0,-0.8045604 0.5142,-1.3048672 0.96947,-1.6262179 0.45526,-0.3213497 0.98196,-0.5927109 1.65748,-0.8443825 1.39309,-0.5357633 2.81235,-0.81308 4.25314,-0.813109 z M 89.097103,20.194976 c 16.494817,0.139353 32.820037,6.498333 45.189677,17.388025 18.51588,16.002613 26.31218,42.581564 21.07809,66.330939 -4.5748,22.11478 -21.6617,40.55081 -42.62528,48.44253 -21.755051,8.77946 -47.903088,4.57998 -66.205218,-9.94495 C 26.219681,126.88787 16.383382,99.329749 21.547141,74.360548 27.6833,44.105456 56.564509,20.370104 87.502173,20.22625 c 0.532359,-0.0085 1.062847,-0.03576 1.59493,-0.03127 z m 29.521837,25.394021 c -6.19233,8.8e-5 -13.62645,1.806547 -22.329017,5.410303 -8.702665,3.603924 -13.569174,5.410381 -14.573279,5.410302 -0.167406,-0.93425 -0.250226,-2.54694 -0.250185,-4.816107 -4.1e-5,-2.93638 -4.172657,-4.409466 -12.540525,-4.409553 -3.849263,8.7e-5 -5.000316,0.947652 -6.004441,4.284459 -0.79962,2.69926 -0.670284,4.762349 -0.781829,7.224162 -0.167375,5.962012 -0.09384,5.336555 -0.09382,8.005996 0,0.04167 -6.6e-5,0.02388 0,0.06255 -0.0089,0.03298 -0.01943,0.04955 -0.03127,0.125094 l 0.125092,46.190847 c 0.0039,12.57312 0.471038,19.26458 2.470578,20.32773 1.004125,0.5339 0.794326,1.09456 6.317172,1.09456 5.690138,0 9.20014,-0.89178 10.539045,-2.62696 0.66939,-1.06779 1.000697,-2.12208 1.00074,-3.18989 0.167307,-1.0678 0.25014,-2.40129 0.250185,-4.003 -4.5e-5,-1.73517 -4.5e-5,-2.87489 0,-3.4088 v -3.00225 L 82.217016,84.242954 V 71.233209 c 1.004104,-1.334692 2.857568,-2.420244 5.535344,-3.221163 1.338816,-0.40036 2.58122,-0.787896 3.752776,-1.18839 1.33881,-0.40036 2.943807,-0.73373 4.784789,-1.00075 2.008256,-0.400358 3.664761,-0.679565 5.003695,-0.813109 1.33879,-0.266883 3.19227,-0.546087 5.53535,-0.813109 2.34294,-0.400357 4.08232,-0.648288 5.25388,-0.781835 1.3388,-0.133404 3.27509,-0.327173 5.78553,-0.594195 2.67766,-0.26688 4.49987,-0.491921 5.50407,-0.625469 1.17145,-1.868586 1.78248,-4.589717 1.78257,-8.193637 -9e-5,-3.603762 -0.52832,-5.88319 -1.53238,-6.817607 -0.83688,-1.067718 -2.49342,-1.594857 -5.0037,-1.594945 z"
       style="fill:none;fill-opacity:1;stroke:#ff0000;stroke-width:0.95893496" />
    <text
       id="text3529"
       y="170.19858"
       x="78.897285"
       style="font-style:normal;font-weight:normal;line-height:0%;font-family:sans-serif;letter-spacing:0px;word-spacing:0px;fill:none;fill-opacity:1;stroke:#ff0000;stroke-width:0.95893496"
       xml:space="preserve"><tspan
         style="font-style:normal;font-variant:normal;font-weight:normal;font-stretch:normal;font-size:18.78186989px;line-height:1.25;font-family:'Trebuchet MS';-inkscape-font-specification:'Trebuchet MS';fill:none;stroke:#ff0000;stroke-width:0.95893496"
         y="170.19858"
         x="78.897285"
         id="tspan3531"
         sodipodi:role="line"> </tspan></text>
    <text
       id="text3537"
       y="169.21729"
       x="89.766304"
       style="font-style:normal;font-weight:normal;line-height:0%;font-family:sans-serif;letter-spacing:0px;word-spacing:0px;fill:none;fill-opacity:1;stroke:#ff0000;stroke-width:0.95893496"
       xml:space="preserve"><tspan
         style="font-size:28px;line-height:1.25;font-family:sans-serif;fill:none;stroke:#ff0000;stroke-width:0.95893496"
         y="169.21729"
         x="89.766304"
         id="tspan3539"
         sodipodi:role="line"> </tspan></text>
  </g>
  <g
     id="g1227"
     transform="matrix(0.09446403,0,0,0.09471532,133.4201,14.985785)"
     style="fill:none;stroke:#ff0000;stroke-width:2.79717159">
    <path
       inkscape:connector-curvature="0"
       id="path1217"
       d="M 87.502173,-0.07020328 C 39.129794,0.54320299 0.0625,40.011539 0.0625,88.52741 c 0,48.89788 39.697707,88.56634 88.596779,88.56634 48.899081,0 88.565521,-39.66846 88.565511,-88.56634 0,-0.382029 0.007,-0.776233 0,-1.157117 V 17.568008 C 177.03076,7.8445938 169.12107,0.00304699 159.36783,-0.07020328 h -70.708551 -0.40655 c -0.24592,0 -0.504268,-0.0031524 -0.750556,0 z M 155.02086,7.4979656 c 2.16176,2.8e-5 4.02316,0.4640486 5.4728,1.469851 1.46679,0.9878439 2.3142,2.5796424 2.31421,4.3470064 -1e-5,1.04568 -0.27695,2.096579 -0.75055,3.127342 -0.44721,0.946994 -0.94297,1.7618 -1.50111,2.408054 -0.40868,0.451679 -0.83822,0.912347 -1.2822,1.344757 1.24551,0.699346 2.29864,1.581051 3.09604,2.689515 h 0.0313 c 0.004,0.0068 -0.004,0.05574 0,0.06255 0.94249,1.267999 1.40728,2.781399 1.40729,4.409553 -1e-5,3.007682 -1.24782,5.538731 -3.59641,7.224161 -2.25967,1.640894 -5.04155,2.523448 -8.22483,2.626967 0,0 -0.0263,-9.69e-4 -0.0313,0 -0.78577,-2e-6 -1.56071,-0.396721 -2.0953,-0.969476 -0.42275,-0.455245 -0.81311,-0.950112 -0.81311,-1.688765 0,-0.340264 0.0139,-0.680919 0.0938,-1.000749 l 0.25019,-0.875656 0.87565,-0.03127 c 2.74874,-0.09239 4.69085,-0.690577 5.84807,-1.594944 1.15724,-0.904367 1.68875,-2.102376 1.68875,-4.002999 -1e-5,-1.857387 -0.73731,-2.955924 -2.75203,-3.846631 -0.52304,-0.235353 -0.93066,-0.44794 -1.2822,-0.688015 -0.35154,-0.240075 -0.81976,-0.442114 -0.90692,-1.313484 l -0.0313,-0.406555 0.21892,-0.344007 c 0.29378,-0.456992 0.75951,-1.049038 1.50111,-1.938953 v -0.03127 c 0.71159,-0.826346 1.26982,-1.603555 1.65747,-2.314234 v -0.03127 c 0.36623,-0.636069 0.53163,-1.242628 0.53164,-1.938952 -1e-5,-0.620902 -0.15477,-0.968007 -0.56291,-1.344758 -0.35249,-0.325347 -0.91275,-0.594176 -1.93894,-0.594195 -0.17966,9e-6 -0.84726,0.110212 -1.78256,0.344008 -0.4938,0.123457 -0.88728,0.216002 -1.18838,0.281461 -0.30111,0.06546 -0.37655,0.125156 -0.78183,0.125093 -0.74388,1.17e-4 -1.02,-0.263496 -1.40729,-0.531648 l -0.0313,-0.03127 -0.0313,-0.03127 c -0.44274,-0.3689 -0.87565,-0.904696 -0.87565,-1.626218 0,-0.8045604 0.5142,-1.3048672 0.96947,-1.6262179 0.45526,-0.3213497 0.98196,-0.5927109 1.65748,-0.8443825 1.39309,-0.5357633 2.81235,-0.81308 4.25314,-0.813109 z M 89.097103,20.194976 c 16.494817,0.139353 32.820037,6.498333 45.189677,17.388025 18.51588,16.002613 26.31218,42.581564 21.07809,66.330939 -4.5748,22.11478 -21.6617,40.55081 -42.62528,48.44253 -21.755051,8.77946 -47.903088,4.57998 -66.205218,-9.94495 C 26.219681,126.88787 16.383382,99.329749 21.547141,74.360548 27.6833,44.105456 56.564509,20.370104 87.502173,20.22625 c 0.532359,-0.0085 1.062847,-0.03576 1.59493,-0.03127 z m 29.521837,25.394021 c -6.19233,8.8e-5 -13.62645,1.806547 -22.329017,5.410303 -8.702665,3.603924 -13.569174,5.410381 -14.573279,5.410302 -0.167406,-0.93425 -0.250226,-2.54694 -0.250185,-4.816107 -4.1e-5,-2.93638 -4.172657,-4.409466 -12.540525,-4.409553 -3.849263,8.7e-5 -5.000316,0.947652 -6.004441,4.284459 -0.79962,2.69926 -0.670284,4.762349 -0.781829,7.224162 -0.167375,5.962012 -0.09384,5.336555 -0.09382,8.005996 0,0.04167 -6.6e-5,0.02388 0,0.06255 -0.0089,0.03298 -0.01943,0.04955 -0.03127,0.125094 l 0.125092,46.190847 c 0.0039,12.57312 0.471038,19.26458 2.470578,20.32773 1.004125,0.5339 0.794326,1.09456 6.317172,1.09456 5.690138,0 9.20014,-0.89178 10.539045,-2.62696 0.66939,-1.06779 1.000697,-2.12208 1.00074,-3.18989 0.167307,-1.0678 0.25014,-2.40129 0.250185,-4.003 -4.5e-5,-1.73517 -4.5e-5,-2.87489 0,-3.4088 v -3.00225 L 82.217016,84.242954 V 71.233209 c 1.004104,-1.334692 2.857568,-2.420244 5.535344,-3.221163 1.338816,-0.40036 2.58122,-0.787896 3.752776,-1.18839 1.33881,-0.40036 2.943807,-0.73373 4.784789,-1.00075 2.008256,-0.400358 3.664761,-0.679565 5.003695,-0.813109 1.33879,-0.266883 3.19227,-0.546087 5.53535,-0.813109 2.34294,-0.400357 4.08232,-0.648288 5.25388,-0.781835 1.3388,-0.133404 3.27509,-0.327173 5.78553,-0.594195 2.67766,-0.26688 4.49987,-0.491921 5.50407,-0.625469 1.17145,-1.868586 1.78248,-4.589717 1.78257,-8.193637 -9e-5,-3.603762 -0.52832,-5.88319 -1.53238,-6.817607 -0.83688,-1.067718 -2.49342,-1.594857 -5.0037,-1.594945 z"
       style="fill:none;fill-opacity:1;stroke:#ff0000;stroke-width:2.79717159" />
    <text
       id="text1221"
       y="170.19858"
       x="78.897285"
       style="font-style:normal;font-weight:normal;line-height:0%;font-family:sans-serif;letter-spacing:0px;word-spacing:0px;fill:none;fill-opacity:1;stroke:#ff0000;stroke-width:2.79717159"
       xml:space="preserve"><tspan
         style="font-style:normal;font-variant:normal;font-weight:normal;font-stretch:normal;font-size:18.78186989px;line-height:1.25;font-family:'Trebuchet MS';-inkscape-font-specification:'Trebuchet MS';fill:none;stroke:#ff0000;stroke-width:2.79717159"
         y="170.19858"
         x="78.897285"
         id="tspan1219"
         sodipodi:role="line"> </tspan></text>
    <text
       id="text1225"
       y="169.21729"
       x="89.766304"
       style="font-style:normal;font-weight:normal;line-height:0%;font-family:sans-serif;letter-spacing:0px;word-spacing:0px;fill:none;fill-opacity:1;stroke:#ff0000;stroke-width:2.79717159"
       xml:space="preserve"><tspan
         style="font-size:28px;line-height:1.25;font-family:sans-serif;fill:none;stroke:#ff0000;stroke-width:2.79717159"
         y="169.21729"
         x="89.766304"
         id="tspan1223"
         sodipodi:role="line"> </tspan></text>
  </g>
  <g
     style="fill:none;stroke:#ff0000;stroke-width:2.79717159"
     transform="matrix(0.09446403,0,0,0.09471532,169.22259,128.72077)"
     id="g1263">
    <text
       xml:space="preserve"
       style="font-style:normal;font-weight:normal;line-height:0%;font-family:sans-serif;letter-spacing:0px;word-spacing:0px;fill:none;fill-opacity:1;stroke:#ff0000;stroke-width:2.79717159"
       x="78.897285"
       y="170.19858"
       id="text1257"><tspan
         sodipodi:role="line"
         id="tspan1255"
         x="78.897285"
         y="170.19858"
         style="font-style:normal;font-variant:normal;font-weight:normal;font-stretch:normal;font-size:18.78186989px;line-height:1.25;font-family:'Trebuchet MS';-inkscape-font-specification:'Trebuchet MS';fill:none;stroke:#ff0000;stroke-width:2.79717159"> </tspan></text>
    <text
       xml:space="preserve"
       style="font-style:normal;font-weight:normal;line-height:0%;font-family:sans-serif;letter-spacing:0px;word-spacing:0px;fill:none;fill-opacity:1;stroke:#ff0000;stroke-width:2.79717159"
       x="89.766304"
       y="169.21729"
       id="text1261"><tspan
         sodipodi:role="line"
         id="tspan1259"
         x="89.766304"
         y="169.21729"
         style="font-size:28px;line-height:1.25;font-family:sans-serif;fill:none;stroke:#ff0000;stroke-width:2.79717159"> </tspan></text>
  </g>
  <g
     id="g1038"
     style="stroke:#ff0000"
     transform="rotate(-90,176.08723,198.50485)">
    <path
       sodipodi:nodetypes="cccccccccccccccccccccccccccccccccccccccccccccccccccccccccccccccccccc"
       inkscape:connector-curvature="0"
       id="path109"
       d="M 288.10794,113.59153 277.9588,103.44238 V 91.461516 79.480636 l 10.14914,-10.149144 10.14914,-10.149145 h 11.81352 11.81351 l 10.31651,10.320955 10.3165,10.320954 v 11.6417 11.641704 l -10.32095,10.3165 -10.32095,10.31651 h -11.80907 -11.80907 z m 42.32418,-1.93109 9.61556,-9.61079 V 91.466286 80.882906 l -9.61079,-9.615558 -9.61079,-9.615556 h -10.58337 -10.58338 l -9.61555,9.610788 -9.61556,9.610786 v 10.58338 10.583364 l 9.61079,9.61556 9.61079,9.61556 h 10.58337 10.58338 z m -28.40255,-12.002864 -3.60966,-3.622 v -4.58639 -4.58639 l 3.62199,-3.60967 3.622,-3.60967 h 4.56162 4.56163 l 3.63443,3.63443 3.63443,3.63443 v 4.57396 4.57395 l -3.62199,3.60967 -3.622,3.609664 h -4.58639 -4.58639 z m 14.6239,-1.78055 2.9331,-2.93309 v -3.48242 -3.48242 l -2.9331,-2.9331 -2.93309,-2.93309 h -3.48242 -3.48242 l -2.93309,2.93309 -2.9331,2.9331 v 3.48242 3.48242 l 2.9331,2.93309 2.93309,2.933094 h 3.48242 3.48242 z"
       style="fill:none;stroke:#ff0000;stroke-width:0.2;stroke-miterlimit:4;stroke-dasharray:none" />
    <g
       transform="translate(0.19743218)"
       id="g121"
       style="stroke:#ff0000">
      <rect
         y="84.319588"
         x="346.82394"
         height="14.283845"
         width="2.633286"
         id="rect113"
         style="color:#000000;clip-rule:nonzero;display:inline;overflow:visible;visibility:visible;opacity:1;isolation:auto;mix-blend-mode:normal;color-interpolation:sRGB;color-interpolation-filters:linearRGB;solid-color:#000000;solid-opacity:1;fill:#ffffff;fill-opacity:1;fill-rule:nonzero;stroke:#ff0000;stroke-width:0.2;stroke-miterlimit:4;stroke-dasharray:none;stroke-opacity:1;color-rendering:auto;image-rendering:auto;shape-rendering:auto;text-rendering:auto;enable-background:accumulate" />
      <rect
         style="color:#000000;clip-rule:nonzero;display:inline;overflow:visible;visibility:visible;opacity:1;isolation:auto;mix-blend-mode:normal;color-interpolation:sRGB;color-interpolation-filters:linearRGB;solid-color:#000000;solid-opacity:1;fill:#ffffff;fill-opacity:1;fill-rule:nonzero;stroke:#ff0000;stroke-width:0.2;stroke-miterlimit:4;stroke-dasharray:none;stroke-opacity:1;color-rendering:auto;image-rendering:auto;shape-rendering:auto;text-rendering:auto;enable-background:accumulate"
         id="rect115"
         width="2.633286"
         height="7.6692615"
         x="354.23221"
         y="87.626877" />
    </g>
    <g
       transform="matrix(-1,0,0,1,620.27849,0)"
       id="g127"
       style="stroke:#ff0000">
      <rect
         style="color:#000000;clip-rule:nonzero;display:inline;overflow:visible;visibility:visible;opacity:1;isolation:auto;mix-blend-mode:normal;color-interpolation:sRGB;color-interpolation-filters:linearRGB;solid-color:#000000;solid-opacity:1;fill:#ffffff;fill-opacity:1;fill-rule:nonzero;stroke:#ff0000;stroke-width:0.2;stroke-miterlimit:4;stroke-dasharray:none;stroke-opacity:1;color-rendering:auto;image-rendering:auto;shape-rendering:auto;text-rendering:auto;enable-background:accumulate"
         id="rect123"
         width="2.633286"
         height="14.283845"
         x="346.82394"
         y="84.319588" />
      <rect
         y="87.626877"
         x="354.23221"
         height="7.6692615"
         width="2.633286"
         id="rect125"
         style="color:#000000;clip-rule:nonzero;display:inline;overflow:visible;visibility:visible;opacity:1;isolation:auto;mix-blend-mode:normal;color-interpolation:sRGB;color-interpolation-filters:linearRGB;solid-color:#000000;solid-opacity:1;fill:#ffffff;fill-opacity:1;fill-rule:nonzero;stroke:#ff0000;stroke-width:0.2;stroke-miterlimit:4;stroke-dasharray:none;stroke-opacity:1;color-rendering:auto;image-rendering:auto;shape-rendering:auto;text-rendering:auto;enable-background:accumulate" />
    </g>
    <g
       id="g133"
       transform="matrix(0,1,1,0,218.77645,-218.57951)"
       style="stroke:#ff0000">
      <rect
         y="84.319588"
         x="346.82394"
         height="14.283845"
         width="2.633286"
         id="rect129"
         style="color:#000000;clip-rule:nonzero;display:inline;overflow:visible;visibility:visible;opacity:1;isolation:auto;mix-blend-mode:normal;color-interpolation:sRGB;color-interpolation-filters:linearRGB;solid-color:#000000;solid-opacity:1;fill:#ffffff;fill-opacity:1;fill-rule:nonzero;stroke:#ff0000;stroke-width:0.2;stroke-miterlimit:4;stroke-dasharray:none;stroke-opacity:1;color-rendering:auto;image-rendering:auto;shape-rendering:auto;text-rendering:auto;enable-background:accumulate" />
      <rect
         style="color:#000000;clip-rule:nonzero;display:inline;overflow:visible;visibility:visible;opacity:1;isolation:auto;mix-blend-mode:normal;color-interpolation:sRGB;color-interpolation-filters:linearRGB;solid-color:#000000;solid-opacity:1;fill:#ffffff;fill-opacity:1;fill-rule:nonzero;stroke:#ff0000;stroke-width:0.2;stroke-miterlimit:4;stroke-dasharray:none;stroke-opacity:1;color-rendering:auto;image-rendering:auto;shape-rendering:auto;text-rendering:auto;enable-background:accumulate"
         id="rect131"
         width="2.633286"
         height="7.6692615"
         x="354.23221"
         y="87.626877" />
    </g>
    <g
       transform="rotate(-90,310.13949,91.363035)"
       id="g139"
       style="stroke:#ff0000">
      <rect
         style="color:#000000;clip-rule:nonzero;display:inline;overflow:visible;visibility:visible;opacity:1;isolation:auto;mix-blend-mode:normal;color-interpolation:sRGB;color-interpolation-filters:linearRGB;solid-color:#000000;solid-opacity:1;fill:#ffffff;fill-opacity:1;fill-rule:nonzero;stroke:#ff0000;stroke-width:0.2;stroke-miterlimit:4;stroke-dasharray:none;stroke-opacity:1;color-rendering:auto;image-rendering:auto;shape-rendering:auto;text-rendering:auto;enable-background:accumulate"
         id="rect135"
         width="2.633286"
         height="14.283845"
         x="346.82394"
         y="84.319588" />
      <rect
         y="87.626877"
         x="354.23221"
         height="7.6692615"
         width="2.633286"
         id="rect137"
         style="color:#000000;clip-rule:nonzero;display:inline;overflow:visible;visibility:visible;opacity:1;isolation:auto;mix-blend-mode:normal;color-interpolation:sRGB;color-interpolation-filters:linearRGB;solid-color:#000000;solid-opacity:1;fill:#ffffff;fill-opacity:1;fill-rule:nonzero;stroke:#ff0000;stroke-width:0.2;stroke-miterlimit:4;stroke-dasharray:none;stroke-opacity:1;color-rendering:auto;image-rendering:auto;shape-rendering:auto;text-rendering:auto;enable-background:accumulate" />
    </g>
    <g
       id="g174"
       style="stroke:#ff0000">
      <rect
         style="color:#000000;clip-rule:nonzero;display:inline;overflow:visible;visibility:visible;opacity:1;isolation:auto;mix-blend-mode:normal;color-interpolation:sRGB;color-interpolation-filters:linearRGB;solid-color:#000000;solid-opacity:1;fill:#ffffff;fill-opacity:1;fill-rule:nonzero;stroke:#ff0000;stroke-width:0.2;stroke-miterlimit:4;stroke-dasharray:none;stroke-opacity:1;color-rendering:auto;image-rendering:auto;shape-rendering:auto;text-rendering:auto;enable-background:accumulate"
         id="rect143"
         width="3.3505716"
         height="9.7583065"
         x="-242.59206"
         y="156.18832"
         transform="rotate(-135)" />
      <rect
         transform="rotate(-135)"
         y="142.8569"
         x="-242.70807"
         height="9.7583065"
         width="3.3505716"
         id="rect149"
         style="color:#000000;clip-rule:nonzero;display:inline;overflow:visible;visibility:visible;opacity:1;isolation:auto;mix-blend-mode:normal;color-interpolation:sRGB;color-interpolation-filters:linearRGB;solid-color:#000000;solid-opacity:1;fill:#ffffff;fill-opacity:1;fill-rule:nonzero;stroke:#ff0000;stroke-width:0.2;stroke-miterlimit:4;stroke-dasharray:none;stroke-opacity:1;color-rendering:auto;image-rendering:auto;shape-rendering:auto;text-rendering:auto;enable-background:accumulate" />
    </g>
    <g
       transform="translate(1.1463943e-5,-0.29402046)"
       id="g170"
       style="stroke:#ff0000">
      <rect
         transform="rotate(-135)"
         y="156.18834"
         x="-328.76056"
         height="9.7583065"
         width="3.3505716"
         id="rect151"
         style="color:#000000;clip-rule:nonzero;display:inline;overflow:visible;visibility:visible;opacity:1;isolation:auto;mix-blend-mode:normal;color-interpolation:sRGB;color-interpolation-filters:linearRGB;solid-color:#000000;solid-opacity:1;fill:#ffffff;fill-opacity:1;fill-rule:nonzero;stroke:#ff0000;stroke-width:0.2;stroke-miterlimit:4;stroke-dasharray:none;stroke-opacity:1;color-rendering:auto;image-rendering:auto;shape-rendering:auto;text-rendering:auto;enable-background:accumulate" />
      <rect
         style="color:#000000;clip-rule:nonzero;display:inline;overflow:visible;visibility:visible;opacity:1;isolation:auto;mix-blend-mode:normal;color-interpolation:sRGB;color-interpolation-filters:linearRGB;solid-color:#000000;solid-opacity:1;fill:#ffffff;fill-opacity:1;fill-rule:nonzero;stroke:#ff0000;stroke-width:0.2;stroke-miterlimit:4;stroke-dasharray:none;stroke-opacity:1;color-rendering:auto;image-rendering:auto;shape-rendering:auto;text-rendering:auto;enable-background:accumulate"
         id="rect153"
         width="3.3505716"
         height="9.7583065"
         x="-328.87659"
         y="142.85692"
         transform="rotate(-135)" />
    </g>
    <g
       transform="translate(0,0.20732338)"
       id="g165"
       style="stroke:#ff0000">
      <rect
         style="color:#000000;clip-rule:nonzero;display:inline;overflow:visible;visibility:visible;opacity:1;isolation:auto;mix-blend-mode:normal;color-interpolation:sRGB;color-interpolation-filters:linearRGB;solid-color:#000000;solid-opacity:1;fill:#ffffff;fill-opacity:1;fill-rule:nonzero;stroke:#ff0000;stroke-width:0.2;stroke-miterlimit:4;stroke-dasharray:none;stroke-opacity:1;color-rendering:auto;image-rendering:auto;shape-rendering:auto;text-rendering:auto;enable-background:accumulate"
         id="rect155"
         width="3.3505716"
         height="9.7583065"
         x="196.01537"
         y="285.69901"
         transform="rotate(-45)" />
      <rect
         transform="rotate(-45)"
         y="272.36758"
         x="195.89934"
         height="9.7583065"
         width="3.3505716"
         id="rect157"
         style="color:#000000;clip-rule:nonzero;display:inline;overflow:visible;visibility:visible;opacity:1;isolation:auto;mix-blend-mode:normal;color-interpolation:sRGB;color-interpolation-filters:linearRGB;solid-color:#000000;solid-opacity:1;fill:#ffffff;fill-opacity:1;fill-rule:nonzero;stroke:#ff0000;stroke-width:0.2;stroke-miterlimit:4;stroke-dasharray:none;stroke-opacity:1;color-rendering:auto;image-rendering:auto;shape-rendering:auto;text-rendering:auto;enable-background:accumulate" />
    </g>
    <g
       transform="translate(-0.07442999)"
       id="g178"
       style="stroke:#ff0000">
      <rect
         transform="rotate(-45)"
         y="285.69031"
         x="109.96078"
         height="9.7583065"
         width="3.3505716"
         id="rect159"
         style="color:#000000;clip-rule:nonzero;display:inline;overflow:visible;visibility:visible;opacity:1;isolation:auto;mix-blend-mode:normal;color-interpolation:sRGB;color-interpolation-filters:linearRGB;solid-color:#000000;solid-opacity:1;fill:#ffffff;fill-opacity:1;fill-rule:nonzero;stroke:#ff0000;stroke-width:0.2;stroke-miterlimit:4;stroke-dasharray:none;stroke-opacity:1;color-rendering:auto;image-rendering:auto;shape-rendering:auto;text-rendering:auto;enable-background:accumulate" />
      <rect
         style="color:#000000;clip-rule:nonzero;display:inline;overflow:visible;visibility:visible;opacity:1;isolation:auto;mix-blend-mode:normal;color-interpolation:sRGB;color-interpolation-filters:linearRGB;solid-color:#000000;solid-opacity:1;fill:#ffffff;fill-opacity:1;fill-rule:nonzero;stroke:#ff0000;stroke-width:0.2;stroke-miterlimit:4;stroke-dasharray:none;stroke-opacity:1;color-rendering:auto;image-rendering:auto;shape-rendering:auto;text-rendering:auto;enable-background:accumulate"
         id="rect161"
         width="3.3505716"
         height="9.7583065"
         x="109.84476"
         y="272.35889"
         transform="rotate(-45)" />
    </g>
  </g>
  <g
     style="fill:none;stroke:#ff0000;stroke-width:2.79717159"
     transform="matrix(0.09446403,0,0,0.09471532,21.574913,128.72077)"
     id="g2521">
    <path
       style="fill:none;fill-opacity:1;stroke:#ff0000;stroke-width:2.79717159"
       d="M 87.502173,-0.07020328 C 39.129794,0.54320299 0.0625,40.011539 0.0625,88.52741 c 0,48.89788 39.697707,88.56634 88.596779,88.56634 48.899081,0 88.565521,-39.66846 88.565511,-88.56634 0,-0.382029 0.007,-0.776233 0,-1.157117 V 17.568008 C 177.03076,7.8445938 169.12107,0.00304699 159.36783,-0.07020328 h -70.708551 -0.40655 c -0.24592,0 -0.504268,-0.0031524 -0.750556,0 z M 155.02086,7.4979656 c 2.16176,2.8e-5 4.02316,0.4640486 5.4728,1.469851 1.46679,0.9878439 2.3142,2.5796424 2.31421,4.3470064 -1e-5,1.04568 -0.27695,2.096579 -0.75055,3.127342 -0.44721,0.946994 -0.94297,1.7618 -1.50111,2.408054 -0.40868,0.451679 -0.83822,0.912347 -1.2822,1.344757 1.24551,0.699346 2.29864,1.581051 3.09604,2.689515 h 0.0313 c 0.004,0.0068 -0.004,0.05574 0,0.06255 0.94249,1.267999 1.40728,2.781399 1.40729,4.409553 -1e-5,3.007682 -1.24782,5.538731 -3.59641,7.224161 -2.25967,1.640894 -5.04155,2.523448 -8.22483,2.626967 0,0 -0.0263,-9.69e-4 -0.0313,0 -0.78577,-2e-6 -1.56071,-0.396721 -2.0953,-0.969476 -0.42275,-0.455245 -0.81311,-0.950112 -0.81311,-1.688765 0,-0.340264 0.0139,-0.680919 0.0938,-1.000749 l 0.25019,-0.875656 0.87565,-0.03127 c 2.74874,-0.09239 4.69085,-0.690577 5.84807,-1.594944 1.15724,-0.904367 1.68875,-2.102376 1.68875,-4.002999 -1e-5,-1.857387 -0.73731,-2.955924 -2.75203,-3.846631 -0.52304,-0.235353 -0.93066,-0.44794 -1.2822,-0.688015 -0.35154,-0.240075 -0.81976,-0.442114 -0.90692,-1.313484 l -0.0313,-0.406555 0.21892,-0.344007 c 0.29378,-0.456992 0.75951,-1.049038 1.50111,-1.938953 v -0.03127 c 0.71159,-0.826346 1.26982,-1.603555 1.65747,-2.314234 v -0.03127 c 0.36623,-0.636069 0.53163,-1.242628 0.53164,-1.938952 -1e-5,-0.620902 -0.15477,-0.968007 -0.56291,-1.344758 -0.35249,-0.325347 -0.91275,-0.594176 -1.93894,-0.594195 -0.17966,9e-6 -0.84726,0.110212 -1.78256,0.344008 -0.4938,0.123457 -0.88728,0.216002 -1.18838,0.281461 -0.30111,0.06546 -0.37655,0.125156 -0.78183,0.125093 -0.74388,1.17e-4 -1.02,-0.263496 -1.40729,-0.531648 l -0.0313,-0.03127 -0.0313,-0.03127 c -0.44274,-0.3689 -0.87565,-0.904696 -0.87565,-1.626218 0,-0.8045604 0.5142,-1.3048672 0.96947,-1.6262179 0.45526,-0.3213497 0.98196,-0.5927109 1.65748,-0.8443825 1.39309,-0.5357633 2.81235,-0.81308 4.25314,-0.813109 z M 89.097103,20.194976 c 16.494817,0.139353 32.820037,6.498333 45.189677,17.388025 18.51588,16.002613 26.31218,42.581564 21.07809,66.330939 -4.5748,22.11478 -21.6617,40.55081 -42.62528,48.44253 -21.755051,8.77946 -47.903088,4.57998 -66.205218,-9.94495 C 26.219681,126.88787 16.383382,99.329749 21.547141,74.360548 27.6833,44.105456 56.564509,20.370104 87.502173,20.22625 c 0.532359,-0.0085 1.062847,-0.03576 1.59493,-0.03127 z m 29.521837,25.394021 c -6.19233,8.8e-5 -13.62645,1.806547 -22.329017,5.410303 -8.702665,3.603924 -13.569174,5.410381 -14.573279,5.410302 -0.167406,-0.93425 -0.250226,-2.54694 -0.250185,-4.816107 -4.1e-5,-2.93638 -4.172657,-4.409466 -12.540525,-4.409553 -3.849263,8.7e-5 -5.000316,0.947652 -6.004441,4.284459 -0.79962,2.69926 -0.670284,4.762349 -0.781829,7.224162 -0.167375,5.962012 -0.09384,5.336555 -0.09382,8.005996 0,0.04167 -6.6e-5,0.02388 0,0.06255 -0.0089,0.03298 -0.01943,0.04955 -0.03127,0.125094 l 0.125092,46.190847 c 0.0039,12.57312 0.471038,19.26458 2.470578,20.32773 1.004125,0.5339 0.794326,1.09456 6.317172,1.09456 5.690138,0 9.20014,-0.89178 10.539045,-2.62696 0.66939,-1.06779 1.000697,-2.12208 1.00074,-3.18989 0.167307,-1.0678 0.25014,-2.40129 0.250185,-4.003 -4.5e-5,-1.73517 -4.5e-5,-2.87489 0,-3.4088 v -3.00225 L 82.217016,84.242954 V 71.233209 c 1.004104,-1.334692 2.857568,-2.420244 5.535344,-3.221163 1.338816,-0.40036 2.58122,-0.787896 3.752776,-1.18839 1.33881,-0.40036 2.943807,-0.73373 4.784789,-1.00075 2.008256,-0.400358 3.664761,-0.679565 5.003695,-0.813109 1.33879,-0.266883 3.19227,-0.546087 5.53535,-0.813109 2.34294,-0.400357 4.08232,-0.648288 5.25388,-0.781835 1.3388,-0.133404 3.27509,-0.327173 5.78553,-0.594195 2.67766,-0.26688 4.49987,-0.491921 5.50407,-0.625469 1.17145,-1.868586 1.78248,-4.589717 1.78257,-8.193637 -9e-5,-3.603762 -0.52832,-5.88319 -1.53238,-6.817607 -0.83688,-1.067718 -2.49342,-1.594857 -5.0037,-1.594945 z"
       id="path2511"
       inkscape:connector-curvature="0" />
    <text
       xml:space="preserve"
       style="font-style:normal;font-weight:normal;line-height:0%;font-family:sans-serif;letter-spacing:0px;word-spacing:0px;fill:none;fill-opacity:1;stroke:#ff0000;stroke-width:2.79717159"
       x="78.897285"
       y="170.19858"
       id="text2515"><tspan
         sodipodi:role="line"
         id="tspan2513"
         x="78.897285"
         y="170.19858"
         style="font-style:normal;font-variant:normal;font-weight:normal;font-stretch:normal;font-size:18.78186989px;line-height:1.25;font-family:'Trebuchet MS';-inkscape-font-specification:'Trebuchet MS';fill:none;stroke:#ff0000;stroke-width:2.79717159"> </tspan></text>
    <text
       xml:space="preserve"
       style="font-style:normal;font-weight:normal;line-height:0%;font-family:sans-serif;letter-spacing:0px;word-spacing:0px;fill:none;fill-opacity:1;stroke:#ff0000;stroke-width:2.79717159"
       x="89.766304"
       y="169.21729"
       id="text2519"><tspan
         sodipodi:role="line"
         id="tspan2517"
         x="89.766304"
         y="169.21729"
         style="font-size:28px;line-height:1.25;font-family:sans-serif;fill:none;stroke:#ff0000;stroke-width:2.79717159"> </tspan></text>
  </g>
  <g
     id="g99">
    <path
       inkscape:connector-curvature="0"
       id="path80"
       inkscape:label="part"
       style="fill:none;stroke:#000000"
       d="m 277.84412,123.60412 v -8.6025 h -3 v -7.17 h 3 v -8.517498 h -3 v -7.17 h 3 v -8.5175 h -3 v -7.17 h 3 v -8.5175 h -3 v -7.17 h 3 v -8.5175 h -3 v -7.17 h 3 v -8.5175 h -3 v -7.17 h 3 v -8.5175 h -3 v -7.17 h 3 v -8.6025" />
    <path
       inkscape:connector-curvature="0"
       id="path82"
       inkscape:label="part"
       style="fill:none;stroke:#000000"
       d="m 277.84412,5.104122 h 6.585 v 3 h 6.83 v -3 h 6.585" />
    <path
       inkscape:connector-curvature="0"
       id="path84"
       inkscape:label="part"
       style="fill:none;stroke:#000000"
       d="m 297.84412,5.104122 v 8.6025 h 3 v 7.17 h -3 v 8.5175 h 3 v 7.17 h -3 v 8.5175 h 3 v 7.17 h -3 v 8.5175 h 3 v 7.17 h -3 v 8.5175 h 3 v 7.17 h -3 v 8.5175 h 3 v 7.17 l -3,0 v 8.517498 h 3 v 7.17 l -3,0 v 8.6025" />
    <path
       inkscape:connector-curvature="0"
       id="path86"
       inkscape:label="part"
       style="fill:none;stroke:#000000"
       d="m 297.84412,123.60412 h -6.585 v -3 h -6.83 v 3 h -6.585" />
    <path
       inkscape:connector-curvature="0"
       id="path285"
       d="m 293.64412,95.987929 a 5.8000002,5.8000002 0 0 1 -5.8,5.799981 5.8000002,5.8000002 0 0 1 -5.8,-5.799981 5.8000002,5.8000002 0 0 1 5.8,-5.8 5.8000002,5.8000002 0 0 1 5.8,5.8 z"
       style="color:#000000;clip-rule:nonzero;display:inline;overflow:visible;visibility:visible;opacity:1;isolation:auto;mix-blend-mode:normal;color-interpolation:sRGB;color-interpolation-filters:linearRGB;solid-color:#000000;solid-opacity:1;fill:none;fill-opacity:1;fill-rule:nonzero;stroke:#000000;stroke-width:0.2;stroke-miterlimit:4;stroke-dasharray:none;stroke-opacity:1;color-rendering:auto;image-rendering:auto;shape-rendering:auto;text-rendering:auto;enable-background:accumulate" />
  </g>
</svg>
