<?xml version="1.0" encoding="UTF-8" standalone="no"?>
<!-- Created with Inkscape (http://www.inkscape.org/) -->

<svg
   xmlns:dc="http://purl.org/dc/elements/1.1/"
   xmlns:cc="http://creativecommons.org/ns#"
   xmlns:rdf="http://www.w3.org/1999/02/22-rdf-syntax-ns#"
   xmlns:svg="http://www.w3.org/2000/svg"
   xmlns="http://www.w3.org/2000/svg"
   xmlns:sodipodi="http://sodipodi.sourceforge.net/DTD/sodipodi-0.dtd"
   xmlns:inkscape="http://www.inkscape.org/namespaces/inkscape"
   width="500mm"
   height="250mm"
   viewBox="0 0 500 250"
   version="1.1"
   id="svg91"
   inkscape:version="0.92.3 (2405546, 2018-03-11)"
   sodipodi:docname="toc_fairy_dust_big_250x500.svg">
  <defs
     id="defs85">
    <clipPath
       clipPathUnits="userSpaceOnUse"
       id="clipPath101">
      <rect
         style="color:#000000;clip-rule:nonzero;display:inline;overflow:visible;visibility:visible;opacity:1;isolation:auto;mix-blend-mode:normal;color-interpolation:sRGB;color-interpolation-filters:linearRGB;solid-color:#000000;solid-opacity:1;fill:none;fill-opacity:1;fill-rule:nonzero;stroke:#000000;stroke-width:0.2;stroke-miterlimit:4;stroke-dasharray:none;stroke-opacity:1;color-rendering:auto;image-rendering:auto;shape-rendering:auto;text-rendering:auto;enable-background:accumulate"
         id="rect103"
         width="499.79999"
         height="249.8"
         x="-69.220329"
         y="-102.87116" />
    </clipPath>
  </defs>
  <sodipodi:namedview
     id="base"
     pagecolor="#ffffff"
     bordercolor="#666666"
     borderopacity="1.0"
     inkscape:pageopacity="0.0"
     inkscape:pageshadow="2"
     inkscape:zoom="0.7"
     inkscape:cx="655.27136"
     inkscape:cy="548.5472"
     inkscape:document-units="mm"
     inkscape:current-layer="layer1"
     showgrid="false"
     inkscape:window-width="2048"
     inkscape:window-height="1090"
     inkscape:window-x="0"
     inkscape:window-y="25"
     inkscape:window-maximized="1" />
  <metadata
     id="metadata88">
    <rdf:RDF>
      <cc:Work
         rdf:about="">
        <dc:format>image/svg+xml</dc:format>
        <dc:type
           rdf:resource="http://purl.org/dc/dcmitype/StillImage" />
        <dc:title />
      </cc:Work>
    </rdf:RDF>
  </metadata>
  <g
     inkscape:label="Layer 1"
     inkscape:groupmode="layer"
     id="layer1"
     transform="translate(0,-47)">
    <g
       transform="matrix(0,2.8727486,-2.8727487,0,607.9138,-842.07448)"
       id="g132"
       style="stroke:#ff0000;stroke-width:0.3480987" />
    <g
       transform="matrix(0,-2.8727486,-2.8727487,0,607.9138,939.26251)"
       id="g138"
       style="stroke:#ff0000;stroke-width:0.3480987" />
    <g
       id="g144"
       transform="matrix(-2.8727487,0,0,2.8727486,1235.8378,-214.15191)"
       style="stroke:#ff0000;stroke-width:0.3480987" />
    <g
       transform="matrix(2.8727487,0,0,2.8727486,-545.50206,-214.1519)"
       id="g150"
       style="stroke:#ff0000;stroke-width:0.3480987" />
    <g
       id="g156"
       style="stroke:#ff0000;stroke-width:0.3480987"
       transform="matrix(0,2.8727486,-2.8727487,0,607.9138,-842.64165)" />
    <g
       transform="matrix(0,2.8727486,-2.8727487,0,608.75845,-842.64162)"
       id="g162"
       style="stroke:#ff0000;stroke-width:0.3480987" />
    <g
       transform="matrix(0,2.8727486,-2.8727487,0,607.31821,-842.64165)"
       id="g168"
       style="stroke:#ff0000;stroke-width:0.3480987" />
    <g
       id="g964">
      <path
         style="color:#000000;clip-rule:nonzero;display:inline;overflow:visible;visibility:visible;opacity:1;isolation:auto;mix-blend-mode:normal;color-interpolation:sRGB;color-interpolation-filters:linearRGB;solid-color:#000000;solid-opacity:1;fill:#ffffff;fill-opacity:1;fill-rule:nonzero;stroke:#ff0000;stroke-width:0.20000005;stroke-miterlimit:4;stroke-dasharray:none;stroke-opacity:1;color-rendering:auto;image-rendering:auto;shape-rendering:auto;text-rendering:auto;enable-background:accumulate"
         d="m 165.41886,184.30945 v -7.5644 h -22.03225 v 7.5644 z m 56.35934,-19.45205 19.82256,-19.82256 -6.8063,-6.8063 -19.82256,19.82256 z m -134.095695,-0.23564 6.805797,-6.8063 -19.822583,-19.82257 -6.805771,6.80631 z m 87.237065,-1.59422 v -7.56491 H 133.8859 v 7.56491 z m 13.90094,-20.50417 29.15637,-29.15584 29.15584,-29.157397 V 50.285588 49.193665 h -7.09362 v 0.612366 30.40383 l -27.62209,27.609679 -27.62261,27.6102 H 154.39111 123.98778 L 96.377586,107.80766 68.76739,80.185056 V 49.781743 49.193665 h -7.09467 v 1.080555 33.936945 l 29.155839,29.156365 29.155871,29.15584 h 34.41803 z m -128.454673,-4.747 6.8063,-6.80578 -19.822556,-19.82257 -6.806301,6.80631 z m 188.257233,-0.23564 19.82256,-19.82205 -6.8063,-6.8063 -19.82205,19.82256 z M 167.54222,83.742977 177.94781,73.374101 188.35233,63.003675 V 49.828252 49.193665 h -7.09363 v 0.599447 10.004557 l -8.42584,8.425842 -8.42585,8.425843 h -10.00455 -10.00403 l -8.42584,-8.425843 -8.42637,-8.425842 V 49.793112 49.193665 h -7.09364 v 0.633554 13.104626 l 10.36889,10.405566 10.36939,10.405566 h 13.17596 z M 267.63535,70.310206 V 49.193665 h -7.5644 v 21.116541 z m -218.900861,0 V 49.193665 H 41.169576 V 70.310206 Z M 288.91777,60.809494 V 49.193665 h -7.56492 v 11.615829 z m -261.465173,0 V 49.193665 h -7.564914 v 11.615829 z"
         id="path1142"
         inkscape:connector-curvature="0" />
      <path
         id="path1144"
         d="m 154.40246,202.29336 c 84.22224,1e-5 152.50027,-68.27749 152.50026,-152.499731 0,-0.200294 -0.003,-0.399851 -0.004,-0.599964 h -0.19947 c 7.9e-4,0.200119 0.004,0.399664 0.004,0.599964 10e-6,84.114151 -68.18663,152.298711 -152.30078,152.298711 -84.11414,0 -152.3007827,-68.18456 -152.3007827,-152.298711 0,-0.2003 0.00291,-0.399845 0.0037,-0.599964 h -0.198946 c 0,0.200113 -0.0037,0.39967 -0.0037,0.599964 0,84.222241 68.2775007,152.499731 152.4997187,152.499731 z m 50.47805,-93.25012 v -2.99981 h -6.83006 v 2.99981 z m -15.68791,0 v -2.99981 h -6.83009 v 2.99981 z m -15.68741,0 v -2.99981 h -6.83009 v 2.99981 z m -15.68744,0 v -2.99981 h -6.83006 v 2.99981 z m -15.68741,0 v -2.99981 h -6.83006 v 2.99981 z m -15.68791,0 v -2.99981 h -6.83009 v 2.99981 z m -15.68744,0 v -2.99981 h -6.83006 v 2.99981 z m 102.8976,-8.77259 v -6.830072 h -2.99982 v 6.830072 z m -115.499914,0 v -6.830072 h -3.000349 v 6.830072 z M 213.65259,84.583235 v -6.830073 h -2.99982 v 6.830073 z m -115.499914,0 v -6.830073 h -3.000349 v 6.830073 z M 213.65259,68.895822 v -6.830074 h -2.99982 v 6.830074 z m -115.499914,0 v -6.830074 h -3.000349 v 6.830074 z M 213.65259,53.208407 v -4.014742 h -2.99982 v 4.014742 z m -115.499914,0 v -4.014742 h -3.000349 v 4.014742 z"
         style="fill:none;stroke:#000000;stroke-width:0.2;stroke-miterlimit:4;stroke-dasharray:none"
         inkscape:connector-curvature="0" />
      <path
         inkscape:connector-curvature="0"
         id="path152"
         d="M 306.89909,49.193665 H 1.9064412"
         style="fill:none;fill-rule:evenodd;stroke:#000000;stroke-width:0.2;stroke-linecap:butt;stroke-linejoin:miter;stroke-miterlimit:4;stroke-dasharray:none;stroke-opacity:1" />
    </g>
  </g>
</svg>
