  0
SECTION
  2
HEADER
  9
$ACADVER
  1
AC1014
  9
$HANDSEED
  5
FFFF
  9
$MEASUREMENT
 70
     1
  0
ENDSEC
  0
SECTION
  2
TABLES
  0
TABLE
  2
VPORT
  5
8
330
0
100
AcDbSymbolTable
 70
     4
  0
VPORT
  5
2E
330
8
100
AcDbSymbolTableRecord
100
AcDbViewportTableRecord
  2
*ACTIVE
 70
     0
 10
0.0
 20
0.0
 11
1.0
 21
1.0
 12
210.0
 22
148.5
 13
0.0
 23
0.0
 14
10.0
 24
10.0
 15
10.0
 25
10.0
 16
0.0
 26
0.0
 36
1.0
 17
0.0
 27
0.0
 37
0.0
 40
341.0
 41
1.24
 42
50.0
 43
0.0
 44
0.0
 50
0.0
 51
0.0
 71
     0
 72
   100
 73
     1
 74
     3
 75
     0
 76
     0
 77
     0
 78
     0
  0
ENDTAB
  0
TABLE
  2
LTYPE
  5
5
330
0
100
AcDbSymbolTable
 70
     1
  0
LTYPE
  5
14
330
5
100
AcDbSymbolTableRecord
100
AcDbLinetypeTableRecord
  2
BYBLOCK
 70
     0
  3

 72
    65
 73
     0
 40
0.0
  0
LTYPE
  5
15
330
5
100
AcDbSymbolTableRecord
100
AcDbLinetypeTableRecord
  2
BYLAYER
 70
     0
  3

 72
    65
 73
     0
 40
0.0
  0
LTYPE
  5
16
330
5
100
AcDbSymbolTableRecord
100
AcDbLinetypeTableRecord
  2
CONTINUOUS
 70
     0
  3
Solid line
 72
    65
 73
     0
 40
0.0
  0
ENDTAB
  0
TABLE
  2
LAYER
  5
2
100
AcDbSymbolTable
 70
2
  0
LAYER
  5
50
100
AcDbSymbolTableRecord
100
AcDbLayerTableRecord
  2
0
 70
0
  6
CONTINUOUS
  0
LAYER
  5
51
100
AcDbSymbolTableRecord
100
AcDbLayerTableRecord
  2
Layer_1
 70
0
  6
CONTINUOUS
  0
ENDTAB
  0
TABLE
  2
STYLE
  5
3
330
0
100
AcDbSymbolTable
 70
     1
  0
STYLE
  5
11
330
3
100
AcDbSymbolTableRecord
100
AcDbTextStyleTableRecord
  2
STANDARD
 70
     0
 40
0.0
 41
1.0
 50
0.0
 71
     0
 42
2.5
  3
txt
  4

  0
ENDTAB
  0
TABLE
  2
VIEW
  5
6
330
0
100
AcDbSymbolTable
 70
     0
  0
ENDTAB
  0
TABLE
  2
UCS
  5
7
330
0
100
AcDbSymbolTable
 70
     0
  0
ENDTAB
  0
TABLE
  2
APPID
  5
9
330
0
100
AcDbSymbolTable
 70
     2
  0
APPID
  5
12
330
9
100
AcDbSymbolTableRecord
100
AcDbRegAppTableRecord
  2
ACAD
 70
     0
  0
ENDTAB
  0
TABLE
  2
DIMSTYLE
  5
A
330
0
100
AcDbSymbolTable
 70
     1
  0
DIMSTYLE
105
27
330
A
100
AcDbSymbolTableRecord
100
AcDbDimStyleTableRecord
  2
ISO-25
 70
     0
  3

  4

  5

  6

  7

 40
1.0
 41
2.5
 42
0.625
 43
3.75
 44
1.25
 45
0.0
 46
0.0
 47
0.0
 48
0.0
140
2.5
141
2.5
142
0.0
143
0.03937007874016
144
1.0
145
0.0
146
1.0
147
0.625
 71
     0
 72
     0
 73
     0
 74
     0
 75
     0
 76
     0
 77
     1
 78
     8
170
     0
171
     3
172
     1
173
     0
174
     0
175
     0
176
     0
177
     0
178
     0
270
     2
271
     2
272
     2
273
     2
274
     3
340
11
275
     0
280
     0
281
     0
282
     0
283
     0
284
     8
285
     0
286
     0
287
     3
288
     0
  0
ENDTAB
  0
TABLE
  2
BLOCK_RECORD
  5
1
330
0
100
AcDbSymbolTable
 70
     1
  0
BLOCK_RECORD
  5
1F
330
1
100
AcDbSymbolTableRecord
100
AcDbBlockTableRecord
  2
*MODEL_SPACE
  0
BLOCK_RECORD
  5
1B
330
1
100
AcDbSymbolTableRecord
100
AcDbBlockTableRecord
  2
*PAPER_SPACE
  0
ENDTAB
  0
ENDSEC
  0
SECTION
  2
BLOCKS
  0
BLOCK
  5
20
330
1F
100
AcDbEntity
  8
0
100
AcDbBlockBegin
  2
*MODEL_SPACE
 70
     0
 10
0.0
 20
0.0
 30
0.0
  3
*MODEL_SPACE
  1

  0
ENDBLK
  5
21
330
1F
100
AcDbEntity
  8
0
100
AcDbBlockEnd
  0
BLOCK
  5
1C
330
1B
100
AcDbEntity
 67
     1
  8
0
100
AcDbBlockBegin
  2
*PAPER_SPACE
  1

  0
ENDBLK
  5
1D
330
1B
100
AcDbEntity
 67
     1
  8
0
100
AcDbBlockEnd
  0
ENDSEC
  0
SECTION
  2
ENTITIES
  0
SPLINE
  5
100
100
AcDbEntity
  8
Layer_1
 62
7
100
AcDbSpline
 70
8
 71
3
 72
8
 73
4
 74
0
 40
0
 40
0
 40
0
 40
0
 40
1
 40
1
 40
1
 40
1
 10
309.318178
 20
8.306760
 30
0.0
 10
309.318178
 20
-32.112232
 30
0.0
 10
293.261795
 20
-70.875767
 30
0.0
 10
264.681251
 20
-99.456310
 30
0.0
  0
SPLINE
  5
101
100
AcDbEntity
  8
Layer_1
 62
7
100
AcDbSpline
 70
8
 71
3
 72
8
 73
4
 74
0
 40
0
 40
0
 40
0
 40
0
 40
1
 40
1
 40
1
 40
1
 10
264.681251
 20
-99.456310
 30
0.0
 10
236.100706
 20
-128.036852
 30
0.0
 10
197.337170
 20
-144.093233
 30
0.0
 10
156.918178
 20
-144.093230
 30
0.0
  0
SPLINE
  5
102
100
AcDbEntity
  8
Layer_1
 62
7
100
AcDbSpline
 70
8
 71
3
 72
8
 73
4
 74
0
 40
0
 40
0
 40
0
 40
0
 40
1
 40
1
 40
1
 40
1
 10
156.918178
 20
-144.093230
 30
0.0
 10
116.499187
 20
-144.093231
 30
0.0
 10
77.735653
 20
-128.036849
 30
0.0
 10
49.155110
 20
-99.456307
 30
0.0
  0
SPLINE
  5
103
100
AcDbEntity
  8
Layer_1
 62
7
100
AcDbSpline
 70
8
 71
3
 72
8
 73
4
 74
0
 40
0
 40
0
 40
0
 40
0
 40
1
 40
1
 40
1
 40
1
 10
49.155110
 20
-99.456307
 30
0.0
 10
20.574567
 20
-70.875765
 30
0.0
 10
4.518186
 20
-32.112231
 30
0.0
 10
4.518186
 20
8.306760
 30
0.0
  0
SPLINE
  5
104
100
AcDbEntity
  8
Layer_1
 62
7
100
AcDbSpline
 70
8
 71
3
 72
8
 73
4
 74
0
 40
0
 40
0
 40
0
 40
0
 40
1
 40
1
 40
1
 40
1
 10
4.518186
 20
8.306760
 30
0.0
 10
4.518184
 20
48.725752
 30
0.0
 10
20.574565
 20
87.489287
 30
0.0
 10
49.155108
 20
116.069831
 30
0.0
  0
SPLINE
  5
105
100
AcDbEntity
  8
Layer_1
 62
7
100
AcDbSpline
 70
8
 71
3
 72
8
 73
4
 74
0
 40
0
 40
0
 40
0
 40
0
 40
1
 40
1
 40
1
 40
1
 10
49.155108
 20
116.069831
 30
0.0
 10
77.735651
 20
144.650374
 30
0.0
 10
116.499186
 20
160.706756
 30
0.0
 10
156.918178
 20
160.706756
 30
0.0
  0
SPLINE
  5
106
100
AcDbEntity
  8
Layer_1
 62
7
100
AcDbSpline
 70
8
 71
3
 72
8
 73
4
 74
0
 40
0
 40
0
 40
0
 40
0
 40
1
 40
1
 40
1
 40
1
 10
156.918178
 20
160.706756
 30
0.0
 10
197.337171
 20
160.706758
 30
0.0
 10
236.100708
 20
144.650377
 30
0.0
 10
264.681253
 20
116.069833
 30
0.0
  0
SPLINE
  5
107
100
AcDbEntity
  8
Layer_1
 62
7
100
AcDbSpline
 70
8
 71
3
 72
8
 73
4
 74
0
 40
0
 40
0
 40
0
 40
0
 40
1
 40
1
 40
1
 40
1
 10
264.681253
 20
116.069833
 30
0.0
 10
293.261797
 20
87.489290
 30
0.0
 10
309.318179
 20
48.725753
 30
0.0
 10
309.318178
 20
8.306760
 30
0.0
  0
LWPOLYLINE
  5
108
100
AcDbEntity
  8
Layer_1
 62
7
100
AcDbPolyline
 90
1
 70
1
 10
309.318178
 20
8.306760
 30
0.0
  0
LWPOLYLINE
  5
109
100
AcDbEntity
  8
Layer_1
 62
1
100
AcDbPolyline
 90
16
 70
1
 10
220.492178
 20
-55.267229
 30
0.0
 10
191.336220
 20
-84.423156
 30
0.0
 10
156.918209
 20
-84.423156
 30
0.0
 10
122.500152
 20
-84.423156
 30
0.0
 10
93.344211
 20
-55.267229
 30
0.0
 10
64.188268
 20
-26.111301
 30
0.0
 10
64.188268
 20
7.825972
 30
0.0
 10
64.188268
 20
41.763216
 30
0.0
 10
93.837778
 20
71.399956
 30
0.0
 10
123.487285
 20
101.036667
 30
0.0
 10
156.930964
 20
101.036667
 30
0.0
 10
190.374654
 20
101.036667
 30
0.0
 10
220.011366
 20
71.387172
 30
0.0
 10
249.648107
 20
41.737678
 30
0.0
 10
249.648107
 20
7.813188
 30
0.0
 10
249.648107
 20
-26.111301
 30
0.0
  0
LWPOLYLINE
  5
10a
100
AcDbEntity
  8
Layer_1
 62
1
100
AcDbPolyline
 90
16
 70
1
 10
214.944642
 20
66.319500
 30
0.0
 10
187.335257
 20
93.942587
 30
0.0
 10
156.931912
 20
93.942587
 30
0.0
 10
126.528521
 20
93.942587
 30
0.0
 10
98.905439
 20
66.333203
 30
0.0
 10
71.282363
 20
38.723820
 30
0.0
 10
71.282363
 20
8.320458
 30
0.0
 10
71.282363
 20
-22.082932
 30
0.0
 10
98.891742
 20
-49.705990
 30
0.0
 10
126.501115
 20
-77.329076
 30
0.0
 10
156.904506
 20
-77.329076
 30
0.0
 10
187.307851
 20
-77.329076
 30
0.0
 10
214.930939
 20
-49.719693
 30
0.0
 10
242.554026
 20
-22.110309
 30
0.0
 10
242.554026
 20
8.293052
 30
0.0
 10
242.554026
 20
38.696442
 30
0.0
  0
LWPOLYLINE
  5
10b
100
AcDbEntity
  8
Layer_1
 62
1
100
AcDbPolyline
 90
16
 70
1
 10
180.463430
 20
-15.273886
 30
0.0
 10
170.058334
 20
-25.643531
 30
0.0
 10
156.882788
 20
-25.643531
 30
0.0
 10
143.707242
 20
-25.643531
 30
0.0
 10
133.337567
 20
-15.238465
 30
0.0
 10
122.967892
 20
-4.833369
 30
0.0
 10
122.967892
 20
8.271018
 30
0.0
 10
122.967892
 20
21.375434
 30
0.0
 10
133.408697
 20
31.816238
 30
0.0
 10
143.849501
 20
42.257042
 30
0.0
 10
156.989338
 20
42.257042
 30
0.0
 10
170.129147
 20
42.257042
 30
0.0
 10
180.498822
 20
31.851975
 30
0.0
 10
190.868480
 20
21.446880
 30
0.0
 10
190.868480
 20
8.271334
 30
0.0
 10
190.868480
 20
-4.904211
 30
0.0
  0
LWPOLYLINE
  5
10c
100
AcDbEntity
  8
Layer_1
 62
1
100
AcDbPolyline
 90
16
 70
1
 10
175.348357
 20
26.736903
 30
0.0
 10
166.922327
 20
35.162962
 30
0.0
 10
156.918209
 20
35.162962
 30
0.0
 10
146.914091
 20
35.162962
 30
0.0
 10
138.488032
 20
26.736903
 30
0.0
 10
130.062002
 20
18.310872
 30
0.0
 10
130.062002
 20
8.306755
 30
0.0
 10
130.062002
 20
-1.697362
 30
0.0
 10
138.488032
 20
-10.123392
 30
0.0
 10
146.914091
 20
-18.549451
 30
0.0
 10
156.918209
 20
-18.549451
 30
0.0
 10
166.922327
 20
-18.549451
 30
0.0
 10
175.348357
 20
-10.123392
 30
0.0
 10
183.774399
 20
-1.697362
 30
0.0
 10
183.774399
 20
8.306755
 30
0.0
 10
183.774399
 20
18.310872
 30
0.0
  0
LWPOLYLINE
  5
10d
100
AcDbEntity
  8
Layer_1
 62
1
100
AcDbPolyline
 90
4
 70
1
 10
136.401245
 20
113.976251
 30
0.0
 10
136.401245
 20
121.541031
 30
0.0
 10
177.435142
 20
121.541031
 30
0.0
 10
177.435142
 20
113.976251
 30
0.0
  0
LWPOLYLINE
  5
10e
100
AcDbEntity
  8
Layer_1
 62
1
100
AcDbPolyline
 90
4
 70
1
 10
145.902255
 20
135.258348
 30
0.0
 10
145.902255
 20
142.823100
 30
0.0
 10
167.934114
 20
142.823100
 30
0.0
 10
167.934114
 20
135.258348
 30
0.0
  0
LWPOLYLINE
  5
10f
100
AcDbEntity
  8
Layer_1
 62
1
100
AcDbPolyline
 90
4
 70
1
 10
136.401245
 20
-97.362734
 30
0.0
 10
136.401245
 20
-104.927514
 30
0.0
 10
177.435142
 20
-104.927514
 30
0.0
 10
177.435142
 20
-97.362734
 30
0.0
  0
LWPOLYLINE
  5
110
100
AcDbEntity
  8
Layer_1
 62
1
100
AcDbPolyline
 90
4
 70
1
 10
145.902255
 20
-118.644832
 30
0.0
 10
145.902255
 20
-126.209583
 30
0.0
 10
167.934114
 20
-126.209583
 30
0.0
 10
167.934114
 20
-118.644832
 30
0.0
  0
LWPOLYLINE
  5
111
100
AcDbEntity
  8
Layer_1
 62
1
100
AcDbPolyline
 90
4
 70
1
 10
262.586277
 20
-12.210191
 30
0.0
 10
270.151058
 20
-12.210191
 30
0.0
 10
270.151058
 20
28.823705
 30
0.0
 10
262.586277
 20
28.823705
 30
0.0
  0
LWPOLYLINE
  5
112
100
AcDbEntity
  8
Layer_1
 62
1
100
AcDbPolyline
 90
4
 70
1
 10
283.868375
 20
-2.709181
 30
0.0
 10
291.433127
 20
-2.709181
 30
0.0
 10
291.433127
 20
19.322677
 30
0.0
 10
283.868375
 20
19.322677
 30
0.0
  0
LWPOLYLINE
  5
113
100
AcDbEntity
  8
Layer_1
 62
1
100
AcDbPolyline
 90
4
 70
1
 10
51.250092
 20
-12.210177
 30
0.0
 10
43.685311
 20
-12.210177
 30
0.0
 10
43.685311
 20
28.823719
 30
0.0
 10
51.250092
 20
28.823719
 30
0.0
  0
LWPOLYLINE
  5
114
100
AcDbEntity
  8
Layer_1
 62
1
100
AcDbPolyline
 90
4
 70
1
 10
29.967994
 20
-2.709167
 30
0.0
 10
22.403242
 20
-2.709167
 30
0.0
 10
22.403242
 20
19.322692
 30
0.0
 10
29.967994
 20
19.322692
 30
0.0
  0
LWPOLYLINE
  5
115
100
AcDbEntity
  8
Layer_1
 62
1
100
AcDbPolyline
 90
4
 70
1
 10
69.687638
 20
-72.870367
 30
0.0
 10
62.881471
 20
-79.676534
 30
0.0
 10
43.059025
 20
-59.854088
 30
0.0
 10
49.865192
 20
-53.047921
 30
0.0
  0
LWPOLYLINE
  5
116
100
AcDbEntity
  8
Layer_1
 62
1
100
AcDbPolyline
 90
4
 70
1
 10
97.003942
 20
-99.715358
 30
0.0
 10
90.197795
 20
-106.521505
 30
0.0
 10
70.375349
 20
-86.699059
 30
0.0
 10
77.181496
 20
-79.892912
 30
0.0
  0
LWPOLYLINE
  5
117
100
AcDbEntity
  8
Layer_1
 62
1
100
AcDbPolyline
 90
4
 70
1
 10
243.880479
 20
102.167229
 30
0.0
 10
237.074332
 20
95.361082
 30
0.0
 10
217.251886
 20
115.183528
 30
0.0
 10
224.058033
 20
121.989675
 30
0.0
  0
LWPOLYLINE
  5
118
100
AcDbEntity
  8
Layer_1
 62
1
100
AcDbPolyline
 90
4
 70
1
 10
271.196823
 20
75.322279
 30
0.0
 10
264.390676
 20
68.516132
 30
0.0
 10
244.568250
 20
88.338557
 30
0.0
 10
251.374397
 20
95.144704
 30
0.0
  0
LWPOLYLINE
  5
119
100
AcDbEntity
  8
Layer_1
 62
1
100
AcDbPolyline
 90
4
 70
1
 10
76.945819
 20
95.596786
 30
0.0
 10
70.139672
 20
102.402933
 30
0.0
 10
89.962098
 20
122.225358
 30
0.0
 10
96.768245
 20
115.419212
 30
0.0
  0
LWPOLYLINE
  5
11a
100
AcDbEntity
  8
Layer_1
 62
1
100
AcDbPolyline
 90
4
 70
1
 10
50.100847
 20
68.280423
 30
0.0
 10
43.294700
 20
75.086570
 30
0.0
 10
63.117146
 20
94.909015
 30
0.0
 10
69.923293
 20
88.102868
 30
0.0
  0
LWPOLYLINE
  5
11b
100
AcDbEntity
  8
Layer_1
 62
1
100
AcDbPolyline
 90
4
 70
1
 10
251.138696
 20
-79.440837
 30
0.0
 10
244.332549
 20
-72.634690
 30
0.0
 10
264.154975
 20
-52.812265
 30
0.0
 10
270.961122
 20
-59.618412
 30
0.0
  0
LWPOLYLINE
  5
11c
100
AcDbEntity
  8
Layer_1
 62
1
100
AcDbPolyline
 90
4
 70
1
 10
224.293725
 20
-106.757160
 30
0.0
 10
217.487578
 20
-99.951013
 30
0.0
 10
237.310003
 20
-80.128588
 30
0.0
 10
244.116151
 20
-86.934735
 30
0.0
  0
LWPOLYLINE
  5
11d
100
AcDbEntity
  8
Layer_1
 62
7
100
AcDbPolyline
 90
4
 70
1
 10
97.668078
 20
-42.170738
 30
0.0
 10
100.668078
 20
-42.170738
 30
0.0
 10
100.668078
 20
-35.340738
 30
0.0
 10
97.668078
 20
-35.340738
 30
0.0
  0
LWPOLYLINE
  5
11e
100
AcDbEntity
  8
Layer_1
 62
7
100
AcDbPolyline
 90
4
 70
1
 10
97.668078
 20
-26.483238
 30
0.0
 10
100.668078
 20
-26.483238
 30
0.0
 10
100.668078
 20
-19.653238
 30
0.0
 10
97.668078
 20
-19.653238
 30
0.0
  0
LWPOLYLINE
  5
11f
100
AcDbEntity
  8
Layer_1
 62
7
100
AcDbPolyline
 90
4
 70
1
 10
97.668078
 20
-10.795738
 30
0.0
 10
100.668078
 20
-10.795738
 30
0.0
 10
100.668078
 20
-3.965738
 30
0.0
 10
97.668078
 20
-3.965738
 30
0.0
  0
LWPOLYLINE
  5
120
100
AcDbEntity
  8
Layer_1
 62
7
100
AcDbPolyline
 90
4
 70
1
 10
97.668078
 20
4.891762
 30
0.0
 10
100.668078
 20
4.891762
 30
0.0
 10
100.668078
 20
11.721762
 30
0.0
 10
97.668078
 20
11.721762
 30
0.0
  0
LWPOLYLINE
  5
121
100
AcDbEntity
  8
Layer_1
 62
7
100
AcDbPolyline
 90
4
 70
1
 10
97.668078
 20
20.579262
 30
0.0
 10
100.668078
 20
20.579262
 30
0.0
 10
100.668078
 20
27.409262
 30
0.0
 10
97.668078
 20
27.409262
 30
0.0
  0
LWPOLYLINE
  5
122
100
AcDbEntity
  8
Layer_1
 62
7
100
AcDbPolyline
 90
4
 70
1
 10
97.668078
 20
36.266762
 30
0.0
 10
100.668078
 20
36.266762
 30
0.0
 10
100.668078
 20
43.096762
 30
0.0
 10
97.668078
 20
43.096762
 30
0.0
  0
LWPOLYLINE
  5
123
100
AcDbEntity
  8
Layer_1
 62
7
100
AcDbPolyline
 90
4
 70
1
 10
97.668078
 20
51.954262
 30
0.0
 10
100.668078
 20
51.954262
 30
0.0
 10
100.668078
 20
58.784262
 30
0.0
 10
97.668078
 20
58.784262
 30
0.0
  0
LWPOLYLINE
  5
124
100
AcDbEntity
  8
Layer_1
 62
7
100
AcDbPolyline
 90
4
 70
1
 10
106.440588
 20
67.556762
 30
0.0
 10
106.440588
 20
64.556762
 30
0.0
 10
113.270588
 20
64.556762
 30
0.0
 10
113.270588
 20
67.556762
 30
0.0
  0
LWPOLYLINE
  5
125
100
AcDbEntity
  8
Layer_1
 62
7
100
AcDbPolyline
 90
4
 70
1
 10
122.128098
 20
67.556762
 30
0.0
 10
122.128098
 20
64.556762
 30
0.0
 10
128.958098
 20
64.556762
 30
0.0
 10
128.958098
 20
67.556762
 30
0.0
  0
LWPOLYLINE
  5
126
100
AcDbEntity
  8
Layer_1
 62
7
100
AcDbPolyline
 90
4
 70
1
 10
137.815608
 20
67.556762
 30
0.0
 10
137.815608
 20
64.556762
 30
0.0
 10
144.645608
 20
64.556762
 30
0.0
 10
144.645608
 20
67.556762
 30
0.0
  0
LWPOLYLINE
  5
127
100
AcDbEntity
  8
Layer_1
 62
7
100
AcDbPolyline
 90
4
 70
1
 10
153.503118
 20
67.556762
 30
0.0
 10
153.503118
 20
64.556762
 30
0.0
 10
160.333118
 20
64.556762
 30
0.0
 10
160.333118
 20
67.556762
 30
0.0
  0
LWPOLYLINE
  5
128
100
AcDbEntity
  8
Layer_1
 62
7
100
AcDbPolyline
 90
4
 70
1
 10
169.190628
 20
67.556762
 30
0.0
 10
169.190628
 20
64.556762
 30
0.0
 10
176.020668
 20
64.556762
 30
0.0
 10
176.020668
 20
67.556762
 30
0.0
  0
LWPOLYLINE
  5
129
100
AcDbEntity
  8
Layer_1
 62
7
100
AcDbPolyline
 90
4
 70
1
 10
184.878218
 20
67.556762
 30
0.0
 10
184.878218
 20
64.556762
 30
0.0
 10
191.708257
 20
64.556762
 30
0.0
 10
191.708257
 20
67.556762
 30
0.0
  0
LWPOLYLINE
  5
12a
100
AcDbEntity
  8
Layer_1
 62
7
100
AcDbPolyline
 90
4
 70
1
 10
200.565786
 20
67.556762
 30
0.0
 10
200.565786
 20
64.556762
 30
0.0
 10
207.395786
 20
64.556762
 30
0.0
 10
207.395786
 20
67.556762
 30
0.0
  0
LWPOLYLINE
  5
12b
100
AcDbEntity
  8
Layer_1
 62
7
100
AcDbPolyline
 90
4
 70
1
 10
216.168286
 20
58.784262
 30
0.0
 10
213.168286
 20
58.784262
 30
0.0
 10
213.168286
 20
51.954262
 30
0.0
 10
216.168286
 20
51.954262
 30
0.0
  0
LWPOLYLINE
  5
12c
100
AcDbEntity
  8
Layer_1
 62
7
100
AcDbPolyline
 90
4
 70
1
 10
216.168286
 20
43.096762
 30
0.0
 10
213.168286
 20
43.096762
 30
0.0
 10
213.168286
 20
36.266762
 30
0.0
 10
216.168286
 20
36.266762
 30
0.0
  0
LWPOLYLINE
  5
12d
100
AcDbEntity
  8
Layer_1
 62
7
100
AcDbPolyline
 90
4
 70
1
 10
216.168286
 20
27.409262
 30
0.0
 10
213.168286
 20
27.409262
 30
0.0
 10
213.168286
 20
20.579262
 30
0.0
 10
216.168286
 20
20.579262
 30
0.0
  0
LWPOLYLINE
  5
12e
100
AcDbEntity
  8
Layer_1
 62
7
100
AcDbPolyline
 90
4
 70
1
 10
216.168286
 20
11.721762
 30
0.0
 10
213.168286
 20
11.721762
 30
0.0
 10
213.168286
 20
4.891762
 30
0.0
 10
216.168286
 20
4.891762
 30
0.0
  0
LWPOLYLINE
  5
12f
100
AcDbEntity
  8
Layer_1
 62
7
100
AcDbPolyline
 90
4
 70
1
 10
216.168286
 20
-3.965738
 30
0.0
 10
213.168286
 20
-3.965738
 30
0.0
 10
213.168286
 20
-10.795738
 30
0.0
 10
216.168286
 20
-10.795738
 30
0.0
  0
LWPOLYLINE
  5
130
100
AcDbEntity
  8
Layer_1
 62
7
100
AcDbPolyline
 90
4
 70
1
 10
216.168286
 20
-19.653238
 30
0.0
 10
213.168286
 20
-19.653238
 30
0.0
 10
213.168286
 20
-26.483238
 30
0.0
 10
216.168286
 20
-26.483238
 30
0.0
  0
LWPOLYLINE
  5
131
100
AcDbEntity
  8
Layer_1
 62
7
100
AcDbPolyline
 90
4
 70
1
 10
216.168286
 20
-35.340738
 30
0.0
 10
213.168286
 20
-35.340738
 30
0.0
 10
213.168286
 20
-42.170738
 30
0.0
 10
216.168286
 20
-42.170738
 30
0.0
  0
LWPOLYLINE
  5
132
100
AcDbEntity
  8
Layer_1
 62
7
100
AcDbPolyline
 90
4
 70
1
 10
207.395786
 20
-50.943238
 30
0.0
 10
207.395786
 20
-47.943238
 30
0.0
 10
200.565786
 20
-47.943238
 30
0.0
 10
200.565786
 20
-50.943238
 30
0.0
  0
LWPOLYLINE
  5
133
100
AcDbEntity
  8
Layer_1
 62
7
100
AcDbPolyline
 90
4
 70
1
 10
191.708257
 20
-50.943238
 30
0.0
 10
191.708257
 20
-47.943238
 30
0.0
 10
184.878218
 20
-47.943238
 30
0.0
 10
184.878218
 20
-50.943238
 30
0.0
  0
LWPOLYLINE
  5
134
100
AcDbEntity
  8
Layer_1
 62
7
100
AcDbPolyline
 90
4
 70
1
 10
176.020668
 20
-50.943238
 30
0.0
 10
176.020668
 20
-47.943238
 30
0.0
 10
169.190628
 20
-47.943238
 30
0.0
 10
169.190628
 20
-50.943238
 30
0.0
  0
LWPOLYLINE
  5
135
100
AcDbEntity
  8
Layer_1
 62
7
100
AcDbPolyline
 90
4
 70
1
 10
160.333118
 20
-50.943238
 30
0.0
 10
160.333118
 20
-47.943238
 30
0.0
 10
153.503118
 20
-47.943238
 30
0.0
 10
153.503118
 20
-50.943238
 30
0.0
  0
LWPOLYLINE
  5
136
100
AcDbEntity
  8
Layer_1
 62
7
100
AcDbPolyline
 90
4
 70
1
 10
144.645608
 20
-50.943238
 30
0.0
 10
144.645608
 20
-47.943238
 30
0.0
 10
137.815608
 20
-47.943238
 30
0.0
 10
137.815608
 20
-50.943238
 30
0.0
  0
LWPOLYLINE
  5
137
100
AcDbEntity
  8
Layer_1
 62
7
100
AcDbPolyline
 90
4
 70
1
 10
128.958098
 20
-50.943238
 30
0.0
 10
128.958098
 20
-47.943238
 30
0.0
 10
122.128098
 20
-47.943238
 30
0.0
 10
122.128098
 20
-50.943238
 30
0.0
  0
SPLINE
  5
138
100
AcDbEntity
  8
Layer_1
 62
7
100
AcDbSpline
 70
8
 71
3
 72
8
 73
4
 74
0
 40
0
 40
0
 40
0
 40
0
 40
1
 40
1
 40
1
 40
1
 10
192.767880
 20
248.405984
 30
0.0
 10
192.767880
 20
288.824976
 30
0.0
 10
208.824263
 20
327.588511
 30
0.0
 10
237.404807
 20
356.169054
 30
0.0
  0
SPLINE
  5
139
100
AcDbEntity
  8
Layer_1
 62
7
100
AcDbSpline
 70
8
 71
3
 72
8
 73
4
 74
0
 40
0
 40
0
 40
0
 40
0
 40
1
 40
1
 40
1
 40
1
 10
237.404807
 20
356.169054
 30
0.0
 10
265.985352
 20
384.749596
 30
0.0
 10
304.748888
 20
400.805977
 30
0.0
 10
345.167880
 20
400.805974
 30
0.0
  0
SPLINE
  5
13a
100
AcDbEntity
  8
Layer_1
 62
7
100
AcDbSpline
 70
8
 71
3
 72
8
 73
4
 74
0
 40
0
 40
0
 40
0
 40
0
 40
1
 40
1
 40
1
 40
1
 10
345.167880
 20
400.805974
 30
0.0
 10
385.586871
 20
400.805975
 30
0.0
 10
424.350405
 20
384.749593
 30
0.0
 10
452.930948
 20
356.169051
 30
0.0
  0
SPLINE
  5
13b
100
AcDbEntity
  8
Layer_1
 62
7
100
AcDbSpline
 70
8
 71
3
 72
8
 73
4
 74
0
 40
0
 40
0
 40
0
 40
0
 40
1
 40
1
 40
1
 40
1
 10
452.930948
 20
356.169051
 30
0.0
 10
481.511490
 20
327.588509
 30
0.0
 10
497.567872
 20
288.824975
 30
0.0
 10
497.567872
 20
248.405984
 30
0.0
  0
SPLINE
  5
13c
100
AcDbEntity
  8
Layer_1
 62
7
100
AcDbSpline
 70
8
 71
3
 72
8
 73
4
 74
0
 40
0
 40
0
 40
0
 40
0
 40
1
 40
1
 40
1
 40
1
 10
497.567872
 20
248.405984
 30
0.0
 10
497.567874
 20
207.986992
 30
0.0
 10
481.511493
 20
169.223457
 30
0.0
 10
452.930950
 20
140.642913
 30
0.0
  0
SPLINE
  5
13d
100
AcDbEntity
  8
Layer_1
 62
7
100
AcDbSpline
 70
8
 71
3
 72
8
 73
4
 74
0
 40
0
 40
0
 40
0
 40
0
 40
1
 40
1
 40
1
 40
1
 10
452.930950
 20
140.642913
 30
0.0
 10
424.350407
 20
112.062370
 30
0.0
 10
385.586872
 20
96.005988
 30
0.0
 10
345.167880
 20
96.005989
 30
0.0
  0
SPLINE
  5
13e
100
AcDbEntity
  8
Layer_1
 62
7
100
AcDbSpline
 70
8
 71
3
 72
8
 73
4
 74
0
 40
0
 40
0
 40
0
 40
0
 40
1
 40
1
 40
1
 40
1
 10
345.167880
 20
96.005989
 30
0.0
 10
304.748887
 20
96.005986
 30
0.0
 10
265.985350
 20
112.062367
 30
0.0
 10
237.404805
 20
140.642911
 30
0.0
  0
SPLINE
  5
13f
100
AcDbEntity
  8
Layer_1
 62
7
100
AcDbSpline
 70
8
 71
3
 72
8
 73
4
 74
0
 40
0
 40
0
 40
0
 40
0
 40
1
 40
1
 40
1
 40
1
 10
237.404805
 20
140.642911
 30
0.0
 10
208.824261
 20
169.223454
 30
0.0
 10
192.767879
 20
207.986991
 30
0.0
 10
192.767880
 20
248.405984
 30
0.0
  0
LWPOLYLINE
  5
140
100
AcDbEntity
  8
Layer_1
 62
7
100
AcDbPolyline
 90
4
 70
1
 10
113.270588
 20
-50.943238
 30
0.0
 10
113.270588
 20
-47.943238
 30
0.0
 10
106.440588
 20
-47.943238
 30
0.0
 10
106.440588
 20
-50.943238
 30
0.0
  0
LWPOLYLINE
  5
141
100
AcDbEntity
  8
Layer_1
 62
7
100
AcDbPolyline
 90
1
 70
1
 10
192.767880
 20
248.405984
 30
0.0
  0
LWPOLYLINE
  5
142
100
AcDbEntity
  8
Layer_1
 62
1
100
AcDbPolyline
 90
16
 70
1
 10
281.593880
 20
311.979973
 30
0.0
 10
310.749837
 20
341.135900
 30
0.0
 10
345.167849
 20
341.135900
 30
0.0
 10
379.585906
 20
341.135900
 30
0.0
 10
408.741846
 20
311.979973
 30
0.0
 10
437.897790
 20
282.824045
 30
0.0
 10
437.897790
 20
248.886772
 30
0.0
 10
437.897790
 20
214.949528
 30
0.0
 10
408.248280
 20
185.312788
 30
0.0
 10
378.598772
 20
155.676077
 30
0.0
 10
345.155094
 20
155.676077
 30
0.0
 10
311.711404
 20
155.676077
 30
0.0
 10
282.074692
 20
185.325572
 30
0.0
 10
252.437951
 20
214.975066
 30
0.0
 10
252.437951
 20
248.899556
 30
0.0
 10
252.437951
 20
282.824045
 30
0.0
  0
LWPOLYLINE
  5
143
100
AcDbEntity
  8
Layer_1
 62
1
100
AcDbPolyline
 90
16
 70
1
 10
287.141416
 20
190.393244
 30
0.0
 10
314.750801
 20
162.770157
 30
0.0
 10
345.154146
 20
162.770157
 30
0.0
 10
375.557537
 20
162.770157
 30
0.0
 10
403.180619
 20
190.379541
 30
0.0
 10
430.803695
 20
217.988924
 30
0.0
 10
430.803695
 20
248.392286
 30
0.0
 10
430.803695
 20
278.795676
 30
0.0
 10
403.194316
 20
306.418734
 30
0.0
 10
375.584943
 20
334.041820
 30
0.0
 10
345.181552
 20
334.041820
 30
0.0
 10
314.778207
 20
334.041820
 30
0.0
 10
287.155119
 20
306.432437
 30
0.0
 10
259.532032
 20
278.823053
 30
0.0
 10
259.532032
 20
248.419692
 30
0.0
 10
259.532032
 20
218.016302
 30
0.0
  0
LWPOLYLINE
  5
144
100
AcDbEntity
  8
Layer_1
 62
1
100
AcDbPolyline
 90
16
 70
1
 10
321.622628
 20
271.986630
 30
0.0
 10
332.027724
 20
282.356275
 30
0.0
 10
345.203270
 20
282.356275
 30
0.0
 10
358.378816
 20
282.356275
 30
0.0
 10
368.748491
 20
271.951209
 30
0.0
 10
379.118165
 20
261.546113
 30
0.0
 10
379.118165
 20
248.441726
 30
0.0
 10
379.118165
 20
235.337310
 30
0.0
 10
368.677361
 20
224.896506
 30
0.0
 10
358.236557
 20
214.455702
 30
0.0
 10
345.096720
 20
214.455702
 30
0.0
 10
331.956911
 20
214.455702
 30
0.0
 10
321.587236
 20
224.860769
 30
0.0
 10
311.217578
 20
235.265864
 30
0.0
 10
311.217578
 20
248.441410
 30
0.0
 10
311.217578
 20
261.616955
 30
0.0
  0
LWPOLYLINE
  5
145
100
AcDbEntity
  8
Layer_1
 62
1
100
AcDbPolyline
 90
16
 70
1
 10
326.737701
 20
229.975841
 30
0.0
 10
335.163731
 20
221.549782
 30
0.0
 10
345.167849
 20
221.549782
 30
0.0
 10
355.171966
 20
221.549782
 30
0.0
 10
363.598026
 20
229.975841
 30
0.0
 10
372.024056
 20
238.401872
 30
0.0
 10
372.024056
 20
248.405989
 30
0.0
 10
372.024056
 20
258.410106
 30
0.0
 10
363.598026
 20
266.836136
 30
0.0
 10
355.171966
 20
275.262195
 30
0.0
 10
345.167849
 20
275.262195
 30
0.0
 10
335.163731
 20
275.262195
 30
0.0
 10
326.737701
 20
266.836136
 30
0.0
 10
318.311659
 20
258.410106
 30
0.0
 10
318.311659
 20
248.405989
 30
0.0
 10
318.311659
 20
238.401872
 30
0.0
  0
LWPOLYLINE
  5
146
100
AcDbEntity
  8
Layer_1
 62
1
100
AcDbPolyline
 90
4
 70
1
 10
365.684813
 20
142.736493
 30
0.0
 10
365.684813
 20
135.171713
 30
0.0
 10
324.650916
 20
135.171713
 30
0.0
 10
324.650916
 20
142.736493
 30
0.0
  0
LWPOLYLINE
  5
147
100
AcDbEntity
  8
Layer_1
 62
1
100
AcDbPolyline
 90
4
 70
1
 10
356.183803
 20
121.454396
 30
0.0
 10
356.183803
 20
113.889644
 30
0.0
 10
334.151943
 20
113.889644
 30
0.0
 10
334.151943
 20
121.454396
 30
0.0
  0
LWPOLYLINE
  5
148
100
AcDbEntity
  8
Layer_1
 62
1
100
AcDbPolyline
 90
4
 70
1
 10
365.684813
 20
354.075478
 30
0.0
 10
365.684813
 20
361.640258
 30
0.0
 10
324.650916
 20
361.640258
 30
0.0
 10
324.650916
 20
354.075478
 30
0.0
  0
LWPOLYLINE
  5
149
100
AcDbEntity
  8
Layer_1
 62
1
100
AcDbPolyline
 90
4
 70
1
 10
356.183803
 20
375.357576
 30
0.0
 10
356.183803
 20
382.922327
 30
0.0
 10
334.151943
 20
382.922327
 30
0.0
 10
334.151943
 20
375.357576
 30
0.0
  0
LWPOLYLINE
  5
14a
100
AcDbEntity
  8
Layer_1
 62
1
100
AcDbPolyline
 90
4
 70
1
 10
239.499780
 20
268.922935
 30
0.0
 10
231.935000
 20
268.922935
 30
0.0
 10
231.935000
 20
227.889039
 30
0.0
 10
239.499780
 20
227.889039
 30
0.0
  0
LWPOLYLINE
  5
14b
100
AcDbEntity
  8
Layer_1
 62
1
100
AcDbPolyline
 90
4
 70
1
 10
218.217682
 20
259.421925
 30
0.0
 10
210.652931
 20
259.421925
 30
0.0
 10
210.652931
 20
237.390067
 30
0.0
 10
218.217682
 20
237.390067
 30
0.0
  0
LWPOLYLINE
  5
14c
100
AcDbEntity
  8
Layer_1
 62
1
100
AcDbPolyline
 90
4
 70
1
 10
450.835966
 20
268.922921
 30
0.0
 10
458.400746
 20
268.922921
 30
0.0
 10
458.400746
 20
227.889025
 30
0.0
 10
450.835966
 20
227.889025
 30
0.0
  0
LWPOLYLINE
  5
14d
100
AcDbEntity
  8
Layer_1
 62
1
100
AcDbPolyline
 90
4
 70
1
 10
472.118064
 20
259.421911
 30
0.0
 10
479.682816
 20
259.421911
 30
0.0
 10
479.682816
 20
237.390052
 30
0.0
 10
472.118064
 20
237.390052
 30
0.0
  0
LWPOLYLINE
  5
14e
100
AcDbEntity
  8
Layer_1
 62
1
100
AcDbPolyline
 90
4
 70
1
 10
432.398419
 20
329.583111
 30
0.0
 10
439.204587
 20
336.389278
 30
0.0
 10
459.027033
 20
316.566832
 30
0.0
 10
452.220866
 20
309.760665
 30
0.0
  0
LWPOLYLINE
  5
14f
100
AcDbEntity
  8
Layer_1
 62
1
100
AcDbPolyline
 90
4
 70
1
 10
405.082116
 20
356.428102
 30
0.0
 10
411.888263
 20
363.234249
 30
0.0
 10
431.710709
 20
343.411803
 30
0.0
 10
424.904562
 20
336.605656
 30
0.0
  0
LWPOLYLINE
  5
150
100
AcDbEntity
  8
Layer_1
 62
1
100
AcDbPolyline
 90
4
 70
1
 10
258.205579
 20
154.545515
 30
0.0
 10
265.011726
 20
161.351662
 30
0.0
 10
284.834172
 20
141.529216
 30
0.0
 10
278.028025
 20
134.723069
 30
0.0
  0
LWPOLYLINE
  5
151
100
AcDbEntity
  8
Layer_1
 62
1
100
AcDbPolyline
 90
4
 70
1
 10
230.889234
 20
181.390465
 30
0.0
 10
237.695382
 20
188.196612
 30
0.0
 10
257.517807
 20
168.374187
 30
0.0
 10
250.711660
 20
161.568040
 30
0.0
  0
LWPOLYLINE
  5
152
100
AcDbEntity
  8
Layer_1
 62
1
100
AcDbPolyline
 90
4
 70
1
 10
425.140239
 20
161.115958
 30
0.0
 10
431.946386
 20
154.309811
 30
0.0
 10
412.123960
 20
134.487386
 30
0.0
 10
405.317813
 20
141.293532
 30
0.0
  0
LWPOLYLINE
  5
153
100
AcDbEntity
  8
Layer_1
 62
1
100
AcDbPolyline
 90
4
 70
1
 10
451.985211
 20
188.432321
 30
0.0
 10
458.791358
 20
181.626174
 30
0.0
 10
438.968912
 20
161.803729
 30
0.0
 10
432.162765
 20
168.609876
 30
0.0
  0
LWPOLYLINE
  5
154
100
AcDbEntity
  8
Layer_1
 62
1
100
AcDbPolyline
 90
4
 70
1
 10
250.947361
 20
336.153581
 30
0.0
 10
257.753509
 20
329.347434
 30
0.0
 10
237.931083
 20
309.525009
 30
0.0
 10
231.124935
 20
316.331156
 30
0.0
  0
LWPOLYLINE
  5
155
100
AcDbEntity
  8
Layer_1
 62
1
100
AcDbPolyline
 90
4
 70
1
 10
277.792333
 20
363.469904
 30
0.0
 10
284.598480
 20
356.663757
 30
0.0
 10
264.776054
 20
336.841332
 30
0.0
 10
257.969907
 20
343.647479
 30
0.0
  0
LWPOLYLINE
  5
156
100
AcDbEntity
  8
Layer_1
 62
7
100
AcDbPolyline
 90
4
 70
1
 10
404.417980
 20
298.883482
 30
0.0
 10
401.417980
 20
298.883482
 30
0.0
 10
401.417980
 20
292.053482
 30
0.0
 10
404.417980
 20
292.053482
 30
0.0
  0
LWPOLYLINE
  5
157
100
AcDbEntity
  8
Layer_1
 62
7
100
AcDbPolyline
 90
4
 70
1
 10
404.417980
 20
283.195982
 30
0.0
 10
401.417980
 20
283.195982
 30
0.0
 10
401.417980
 20
276.365982
 30
0.0
 10
404.417980
 20
276.365982
 30
0.0
  0
LWPOLYLINE
  5
158
100
AcDbEntity
  8
Layer_1
 62
7
100
AcDbPolyline
 90
4
 70
1
 10
404.417980
 20
267.508482
 30
0.0
 10
401.417980
 20
267.508482
 30
0.0
 10
401.417980
 20
260.678482
 30
0.0
 10
404.417980
 20
260.678482
 30
0.0
  0
LWPOLYLINE
  5
159
100
AcDbEntity
  8
Layer_1
 62
7
100
AcDbPolyline
 90
4
 70
1
 10
404.417980
 20
251.820982
 30
0.0
 10
401.417980
 20
251.820982
 30
0.0
 10
401.417980
 20
244.990982
 30
0.0
 10
404.417980
 20
244.990982
 30
0.0
  0
LWPOLYLINE
  5
15a
100
AcDbEntity
  8
Layer_1
 62
7
100
AcDbPolyline
 90
4
 70
1
 10
404.417980
 20
236.133482
 30
0.0
 10
401.417980
 20
236.133482
 30
0.0
 10
401.417980
 20
229.303482
 30
0.0
 10
404.417980
 20
229.303482
 30
0.0
  0
LWPOLYLINE
  5
15b
100
AcDbEntity
  8
Layer_1
 62
7
100
AcDbPolyline
 90
4
 70
1
 10
404.417980
 20
220.445982
 30
0.0
 10
401.417980
 20
220.445982
 30
0.0
 10
401.417980
 20
213.615982
 30
0.0
 10
404.417980
 20
213.615982
 30
0.0
  0
LWPOLYLINE
  5
15c
100
AcDbEntity
  8
Layer_1
 62
7
100
AcDbPolyline
 90
4
 70
1
 10
404.417980
 20
204.758482
 30
0.0
 10
401.417980
 20
204.758482
 30
0.0
 10
401.417980
 20
197.928482
 30
0.0
 10
404.417980
 20
197.928482
 30
0.0
  0
LWPOLYLINE
  5
15d
100
AcDbEntity
  8
Layer_1
 62
7
100
AcDbPolyline
 90
4
 70
1
 10
395.645470
 20
189.155982
 30
0.0
 10
395.645470
 20
192.155982
 30
0.0
 10
388.815470
 20
192.155982
 30
0.0
 10
388.815470
 20
189.155982
 30
0.0
  0
LWPOLYLINE
  5
15e
100
AcDbEntity
  8
Layer_1
 62
7
100
AcDbPolyline
 90
4
 70
1
 10
379.957960
 20
189.155982
 30
0.0
 10
379.957960
 20
192.155982
 30
0.0
 10
373.127960
 20
192.155982
 30
0.0
 10
373.127960
 20
189.155982
 30
0.0
  0
LWPOLYLINE
  5
15f
100
AcDbEntity
  8
Layer_1
 62
7
100
AcDbPolyline
 90
4
 70
1
 10
364.270450
 20
189.155982
 30
0.0
 10
364.270450
 20
192.155982
 30
0.0
 10
357.440450
 20
192.155982
 30
0.0
 10
357.440450
 20
189.155982
 30
0.0
  0
LWPOLYLINE
  5
160
100
AcDbEntity
  8
Layer_1
 62
7
100
AcDbPolyline
 90
4
 70
1
 10
348.582940
 20
189.155982
 30
0.0
 10
348.582940
 20
192.155982
 30
0.0
 10
341.752940
 20
192.155982
 30
0.0
 10
341.752940
 20
189.155982
 30
0.0
  0
LWPOLYLINE
  5
161
100
AcDbEntity
  8
Layer_1
 62
7
100
AcDbPolyline
 90
4
 70
1
 10
332.895430
 20
189.155982
 30
0.0
 10
332.895430
 20
192.155982
 30
0.0
 10
326.065390
 20
192.155982
 30
0.0
 10
326.065390
 20
189.155982
 30
0.0
  0
LWPOLYLINE
  5
162
100
AcDbEntity
  8
Layer_1
 62
7
100
AcDbPolyline
 90
4
 70
1
 10
317.207840
 20
189.155982
 30
0.0
 10
317.207840
 20
192.155982
 30
0.0
 10
310.377801
 20
192.155982
 30
0.0
 10
310.377801
 20
189.155982
 30
0.0
  0
LWPOLYLINE
  5
163
100
AcDbEntity
  8
Layer_1
 62
7
100
AcDbPolyline
 90
4
 70
1
 10
301.520272
 20
189.155982
 30
0.0
 10
301.520272
 20
192.155982
 30
0.0
 10
294.690272
 20
192.155982
 30
0.0
 10
294.690272
 20
189.155982
 30
0.0
  0
LWPOLYLINE
  5
164
100
AcDbEntity
  8
Layer_1
 62
7
100
AcDbPolyline
 90
4
 70
1
 10
285.917772
 20
197.928482
 30
0.0
 10
288.917772
 20
197.928482
 30
0.0
 10
288.917772
 20
204.758482
 30
0.0
 10
285.917772
 20
204.758482
 30
0.0
  0
LWPOLYLINE
  5
165
100
AcDbEntity
  8
Layer_1
 62
7
100
AcDbPolyline
 90
4
 70
1
 10
285.917772
 20
213.615982
 30
0.0
 10
288.917772
 20
213.615982
 30
0.0
 10
288.917772
 20
220.445982
 30
0.0
 10
285.917772
 20
220.445982
 30
0.0
  0
LWPOLYLINE
  5
166
100
AcDbEntity
  8
Layer_1
 62
7
100
AcDbPolyline
 90
4
 70
1
 10
285.917772
 20
229.303482
 30
0.0
 10
288.917772
 20
229.303482
 30
0.0
 10
288.917772
 20
236.133482
 30
0.0
 10
285.917772
 20
236.133482
 30
0.0
  0
LWPOLYLINE
  5
167
100
AcDbEntity
  8
Layer_1
 62
7
100
AcDbPolyline
 90
4
 70
1
 10
285.917772
 20
244.990982
 30
0.0
 10
288.917772
 20
244.990982
 30
0.0
 10
288.917772
 20
251.820982
 30
0.0
 10
285.917772
 20
251.820982
 30
0.0
  0
LWPOLYLINE
  5
168
100
AcDbEntity
  8
Layer_1
 62
7
100
AcDbPolyline
 90
4
 70
1
 10
285.917772
 20
260.678482
 30
0.0
 10
288.917772
 20
260.678482
 30
0.0
 10
288.917772
 20
267.508482
 30
0.0
 10
285.917772
 20
267.508482
 30
0.0
  0
LWPOLYLINE
  5
169
100
AcDbEntity
  8
Layer_1
 62
7
100
AcDbPolyline
 90
4
 70
1
 10
285.917772
 20
276.365982
 30
0.0
 10
288.917772
 20
276.365982
 30
0.0
 10
288.917772
 20
283.195982
 30
0.0
 10
285.917772
 20
283.195982
 30
0.0
  0
LWPOLYLINE
  5
16a
100
AcDbEntity
  8
Layer_1
 62
7
100
AcDbPolyline
 90
4
 70
1
 10
285.917772
 20
292.053482
 30
0.0
 10
288.917772
 20
292.053482
 30
0.0
 10
288.917772
 20
298.883482
 30
0.0
 10
285.917772
 20
298.883482
 30
0.0
  0
LWPOLYLINE
  5
16b
100
AcDbEntity
  8
Layer_1
 62
7
100
AcDbPolyline
 90
4
 70
1
 10
294.690272
 20
307.655982
 30
0.0
 10
294.690272
 20
304.655982
 30
0.0
 10
301.520272
 20
304.655982
 30
0.0
 10
301.520272
 20
307.655982
 30
0.0
  0
LWPOLYLINE
  5
16c
100
AcDbEntity
  8
Layer_1
 62
7
100
AcDbPolyline
 90
4
 70
1
 10
310.377801
 20
307.655982
 30
0.0
 10
310.377801
 20
304.655982
 30
0.0
 10
317.207840
 20
304.655982
 30
0.0
 10
317.207840
 20
307.655982
 30
0.0
  0
LWPOLYLINE
  5
16d
100
AcDbEntity
  8
Layer_1
 62
7
100
AcDbPolyline
 90
4
 70
1
 10
326.065390
 20
307.655982
 30
0.0
 10
326.065390
 20
304.655982
 30
0.0
 10
332.895430
 20
304.655982
 30
0.0
 10
332.895430
 20
307.655982
 30
0.0
  0
LWPOLYLINE
  5
16e
100
AcDbEntity
  8
Layer_1
 62
7
100
AcDbPolyline
 90
4
 70
1
 10
341.752940
 20
307.655982
 30
0.0
 10
341.752940
 20
304.655982
 30
0.0
 10
348.582940
 20
304.655982
 30
0.0
 10
348.582940
 20
307.655982
 30
0.0
  0
LWPOLYLINE
  5
16f
100
AcDbEntity
  8
Layer_1
 62
7
100
AcDbPolyline
 90
4
 70
1
 10
357.440450
 20
307.655982
 30
0.0
 10
357.440450
 20
304.655982
 30
0.0
 10
364.270450
 20
304.655982
 30
0.0
 10
364.270450
 20
307.655982
 30
0.0
  0
LWPOLYLINE
  5
170
100
AcDbEntity
  8
Layer_1
 62
7
100
AcDbPolyline
 90
4
 70
1
 10
373.127960
 20
307.655982
 30
0.0
 10
373.127960
 20
304.655982
 30
0.0
 10
379.957960
 20
304.655982
 30
0.0
 10
379.957960
 20
307.655982
 30
0.0
  0
LWPOLYLINE
  5
171
100
AcDbEntity
  8
Layer_1
 62
7
100
AcDbPolyline
 90
4
 70
1
 10
388.815470
 20
307.655982
 30
0.0
 10
388.815470
 20
304.655982
 30
0.0
 10
395.645470
 20
304.655982
 30
0.0
 10
395.645470
 20
307.655982
 30
0.0
  0
ENDSEC
  0
SECTION
  2
OBJECTS
  0
DICTIONARY
  5
C
330
0
100
AcDbDictionary
  3
ACAD_GROUP
350
D
  3
ACAD_MLINESTYLE
350
17
  0
DICTIONARY
  5
D
330
C
100
AcDbDictionary
  0
DICTIONARY
  5
1A
330
C
100
AcDbDictionary
  0
DICTIONARY
  5
17
330
C
100
AcDbDictionary
  3
STANDARD
350
18
  0
DICTIONARY
  5
19
330
C
100
AcDbDictionary
  0
ENDSEC
  0
EOF
