  0
SECTION
  2
HEADER
  9
$ACADVER
  1
AC1014
  9
$HANDSEED
  5
FFFF
  9
$MEASUREMENT
 70
     1
  0
ENDSEC
  0
SECTION
  2
TABLES
  0
TABLE
  2
VPORT
  5
8
330
0
100
AcDbSymbolTable
 70
     4
  0
VPORT
  5
2E
330
8
100
AcDbSymbolTableRecord
100
AcDbViewportTableRecord
  2
*ACTIVE
 70
     0
 10
0.0
 20
0.0
 11
1.0
 21
1.0
 12
210.0
 22
148.5
 13
0.0
 23
0.0
 14
10.0
 24
10.0
 15
10.0
 25
10.0
 16
0.0
 26
0.0
 36
1.0
 17
0.0
 27
0.0
 37
0.0
 40
341.0
 41
1.24
 42
50.0
 43
0.0
 44
0.0
 50
0.0
 51
0.0
 71
     0
 72
   100
 73
     1
 74
     3
 75
     0
 76
     0
 77
     0
 78
     0
  0
ENDTAB
  0
TABLE
  2
LTYPE
  5
5
330
0
100
AcDbSymbolTable
 70
     1
  0
LTYPE
  5
14
330
5
100
AcDbSymbolTableRecord
100
AcDbLinetypeTableRecord
  2
BYBLOCK
 70
     0
  3

 72
    65
 73
     0
 40
0.0
  0
LTYPE
  5
15
330
5
100
AcDbSymbolTableRecord
100
AcDbLinetypeTableRecord
  2
BYLAYER
 70
     0
  3

 72
    65
 73
     0
 40
0.0
  0
LTYPE
  5
16
330
5
100
AcDbSymbolTableRecord
100
AcDbLinetypeTableRecord
  2
CONTINUOUS
 70
     0
  3
Solid line
 72
    65
 73
     0
 40
0.0
  0
ENDTAB
  0
TABLE
  2
LAYER
  5
2
100
AcDbSymbolTable
 70
3
  0
LAYER
  5
50
100
AcDbSymbolTableRecord
100
AcDbLayerTableRecord
  2
0
 70
0
  6
CONTINUOUS
  0
LAYER
  5
51
100
AcDbSymbolTableRecord
100
AcDbLayerTableRecord
  2
Layer_1
 70
0
  6
CONTINUOUS
  0
LAYER
  5
52
100
AcDbSymbolTableRecord
100
AcDbLayerTableRecord
  2
newlayer
 70
0
  6
CONTINUOUS
  0
ENDTAB
  0
TABLE
  2
STYLE
  5
3
330
0
100
AcDbSymbolTable
 70
     1
  0
STYLE
  5
11
330
3
100
AcDbSymbolTableRecord
100
AcDbTextStyleTableRecord
  2
STANDARD
 70
     0
 40
0.0
 41
1.0
 50
0.0
 71
     0
 42
2.5
  3
txt
  4

  0
ENDTAB
  0
TABLE
  2
VIEW
  5
6
330
0
100
AcDbSymbolTable
 70
     0
  0
ENDTAB
  0
TABLE
  2
UCS
  5
7
330
0
100
AcDbSymbolTable
 70
     0
  0
ENDTAB
  0
TABLE
  2
APPID
  5
9
330
0
100
AcDbSymbolTable
 70
     2
  0
APPID
  5
12
330
9
100
AcDbSymbolTableRecord
100
AcDbRegAppTableRecord
  2
ACAD
 70
     0
  0
ENDTAB
  0
TABLE
  2
DIMSTYLE
  5
A
330
0
100
AcDbSymbolTable
 70
     1
  0
DIMSTYLE
105
27
330
A
100
AcDbSymbolTableRecord
100
AcDbDimStyleTableRecord
  2
ISO-25
 70
     0
  3

  4

  5

  6

  7

 40
1.0
 41
2.5
 42
0.625
 43
3.75
 44
1.25
 45
0.0
 46
0.0
 47
0.0
 48
0.0
140
2.5
141
2.5
142
0.0
143
0.03937007874016
144
1.0
145
0.0
146
1.0
147
0.625
 71
     0
 72
     0
 73
     0
 74
     0
 75
     0
 76
     0
 77
     1
 78
     8
170
     0
171
     3
172
     1
173
     0
174
     0
175
     0
176
     0
177
     0
178
     0
270
     2
271
     2
272
     2
273
     2
274
     3
340
11
275
     0
280
     0
281
     0
282
     0
283
     0
284
     8
285
     0
286
     0
287
     3
288
     0
  0
ENDTAB
  0
TABLE
  2
BLOCK_RECORD
  5
1
330
0
100
AcDbSymbolTable
 70
     1
  0
BLOCK_RECORD
  5
1F
330
1
100
AcDbSymbolTableRecord
100
AcDbBlockTableRecord
  2
*MODEL_SPACE
  0
BLOCK_RECORD
  5
1B
330
1
100
AcDbSymbolTableRecord
100
AcDbBlockTableRecord
  2
*PAPER_SPACE
  0
ENDTAB
  0
ENDSEC
  0
SECTION
  2
BLOCKS
  0
BLOCK
  5
20
330
1F
100
AcDbEntity
  8
0
100
AcDbBlockBegin
  2
*MODEL_SPACE
 70
     0
 10
0.0
 20
0.0
 30
0.0
  3
*MODEL_SPACE
  1

  0
ENDBLK
  5
21
330
1F
100
AcDbEntity
  8
0
100
AcDbBlockEnd
  0
BLOCK
  5
1C
330
1B
100
AcDbEntity
 67
     1
  8
0
100
AcDbBlockBegin
  2
*PAPER_SPACE
  1

  0
ENDBLK
  5
1D
330
1B
100
AcDbEntity
 67
     1
  8
0
100
AcDbBlockEnd
  0
ENDSEC
  0
SECTION
  2
ENTITIES
  0
LWPOLYLINE
  5
100
100
AcDbEntity
  8
newlayer
 62
7
100
AcDbPolyline
 90
68
 70
1
 10
128.471900
 20
162.805240
 30
0.0
 10
128.471900
 20
171.407740
 30
0.0
 10
125.471900
 20
171.407740
 30
0.0
 10
125.471900
 20
178.577740
 30
0.0
 10
128.471900
 20
178.577740
 30
0.0
 10
128.471900
 20
187.095240
 30
0.0
 10
125.471900
 20
187.095240
 30
0.0
 10
125.471900
 20
194.265240
 30
0.0
 10
128.471900
 20
194.265240
 30
0.0
 10
128.471900
 20
202.782737
 30
0.0
 10
125.471900
 20
202.782737
 30
0.0
 10
125.471900
 20
209.952737
 30
0.0
 10
128.471900
 20
209.952737
 30
0.0
 10
128.471900
 20
218.470237
 30
0.0
 10
125.471900
 20
218.470237
 30
0.0
 10
125.471900
 20
225.640237
 30
0.0
 10
128.471900
 20
225.640237
 30
0.0
 10
128.471900
 20
234.157737
 30
0.0
 10
125.471900
 20
234.157737
 30
0.0
 10
125.471900
 20
241.327737
 30
0.0
 10
128.471900
 20
241.327737
 30
0.0
 10
128.471900
 20
249.845237
 30
0.0
 10
125.471900
 20
249.845237
 30
0.0
 10
125.471900
 20
257.015237
 30
0.0
 10
128.471900
 20
257.015237
 30
0.0
 10
128.471900
 20
265.532737
 30
0.0
 10
125.471900
 20
265.532737
 30
0.0
 10
125.471900
 20
272.702737
 30
0.0
 10
128.471900
 20
272.702737
 30
0.0
 10
128.471900
 20
281.305237
 30
0.0
 10
135.056900
 20
281.305237
 30
0.0
 10
135.056900
 20
278.305237
 30
0.0
 10
141.886900
 20
278.305237
 30
0.0
 10
141.886900
 20
281.305237
 30
0.0
 10
148.471900
 20
281.305237
 30
0.0
 10
148.471900
 20
272.702737
 30
0.0
 10
151.471900
 20
272.702737
 30
0.0
 10
151.471900
 20
265.532737
 30
0.0
 10
148.471900
 20
265.532737
 30
0.0
 10
148.471900
 20
257.015237
 30
0.0
 10
151.471900
 20
257.015237
 30
0.0
 10
151.471900
 20
249.845237
 30
0.0
 10
148.471900
 20
249.845237
 30
0.0
 10
148.471900
 20
241.327737
 30
0.0
 10
151.471900
 20
241.327737
 30
0.0
 10
151.471900
 20
234.157737
 30
0.0
 10
148.471900
 20
234.157737
 30
0.0
 10
148.471900
 20
225.640237
 30
0.0
 10
151.471900
 20
225.640237
 30
0.0
 10
151.471900
 20
218.470237
 30
0.0
 10
148.471900
 20
218.470237
 30
0.0
 10
148.471900
 20
209.952737
 30
0.0
 10
151.471900
 20
209.952737
 30
0.0
 10
151.471900
 20
202.782737
 30
0.0
 10
148.471900
 20
202.782737
 30
0.0
 10
148.471900
 20
194.265240
 30
0.0
 10
151.471900
 20
194.265240
 30
0.0
 10
151.471900
 20
187.095240
 30
0.0
 10
148.471900
 20
187.095240
 30
0.0
 10
148.471900
 20
178.577740
 30
0.0
 10
151.471900
 20
178.577740
 30
0.0
 10
151.471900
 20
171.407740
 30
0.0
 10
148.471900
 20
171.407740
 30
0.0
 10
148.471900
 20
162.805240
 30
0.0
 10
141.886900
 20
162.805240
 30
0.0
 10
141.886900
 20
165.805240
 30
0.0
 10
135.056900
 20
165.805240
 30
0.0
 10
135.056900
 20
162.805240
 30
0.0
  0
LWPOLYLINE
  5
101
100
AcDbEntity
  8
newlayer
 62
7
100
AcDbPolyline
 90
68
 70
1
 10
9.471903
 20
139.305240
 30
0.0
 10
9.471903
 20
145.720240
 30
0.0
 10
6.471903
 20
145.720240
 30
0.0
 10
6.471903
 20
152.890240
 30
0.0
 10
9.471903
 20
152.890240
 30
0.0
 10
9.471903
 20
159.305240
 30
0.0
 10
15.074403
 20
159.305240
 30
0.0
 10
15.074403
 20
162.305240
 30
0.0
 10
22.244403
 20
162.305240
 30
0.0
 10
22.244403
 20
159.305240
 30
0.0
 10
30.761903
 20
159.305240
 30
0.0
 10
30.761903
 20
162.305240
 30
0.0
 10
37.931903
 20
162.305240
 30
0.0
 10
37.931903
 20
159.305240
 30
0.0
 10
46.449403
 20
159.305240
 30
0.0
 10
46.449403
 20
162.305240
 30
0.0
 10
53.619403
 20
162.305240
 30
0.0
 10
53.619403
 20
159.305240
 30
0.0
 10
62.136903
 20
159.305240
 30
0.0
 10
62.136903
 20
162.305240
 30
0.0
 10
69.306903
 20
162.305240
 30
0.0
 10
69.306903
 20
159.305240
 30
0.0
 10
77.824403
 20
159.305240
 30
0.0
 10
77.824403
 20
162.305240
 30
0.0
 10
84.994403
 20
162.305240
 30
0.0
 10
84.994403
 20
159.305240
 30
0.0
 10
93.511903
 20
159.305240
 30
0.0
 10
93.511903
 20
162.305240
 30
0.0
 10
100.681900
 20
162.305240
 30
0.0
 10
100.681900
 20
159.305240
 30
0.0
 10
109.199400
 20
159.305240
 30
0.0
 10
109.199400
 20
162.305240
 30
0.0
 10
116.369400
 20
162.305240
 30
0.0
 10
116.369400
 20
159.305240
 30
0.0
 10
121.971900
 20
159.305240
 30
0.0
 10
121.971900
 20
152.890240
 30
0.0
 10
124.971900
 20
152.890240
 30
0.0
 10
124.971900
 20
145.720240
 30
0.0
 10
121.971900
 20
145.720240
 30
0.0
 10
121.971900
 20
139.305240
 30
0.0
 10
116.369400
 20
139.305240
 30
0.0
 10
116.369400
 20
136.305240
 30
0.0
 10
109.199400
 20
136.305240
 30
0.0
 10
109.199400
 20
139.305240
 30
0.0
 10
100.681900
 20
139.305240
 30
0.0
 10
100.681900
 20
136.305240
 30
0.0
 10
93.511903
 20
136.305240
 30
0.0
 10
93.511903
 20
139.305240
 30
0.0
 10
84.994403
 20
139.305240
 30
0.0
 10
84.994403
 20
136.305240
 30
0.0
 10
77.824403
 20
136.305240
 30
0.0
 10
77.824403
 20
139.305240
 30
0.0
 10
69.306903
 20
139.305240
 30
0.0
 10
69.306903
 20
136.305240
 30
0.0
 10
62.136903
 20
136.305240
 30
0.0
 10
62.136903
 20
139.305240
 30
0.0
 10
53.619403
 20
139.305240
 30
0.0
 10
53.619403
 20
136.305240
 30
0.0
 10
46.449403
 20
136.305240
 30
0.0
 10
46.449403
 20
139.305240
 30
0.0
 10
37.931903
 20
139.305240
 30
0.0
 10
37.931903
 20
136.305240
 30
0.0
 10
30.761903
 20
136.305240
 30
0.0
 10
30.761903
 20
139.305240
 30
0.0
 10
22.244403
 20
139.305240
 30
0.0
 10
22.244403
 20
136.305240
 30
0.0
 10
15.074403
 20
136.305240
 30
0.0
 10
15.074403
 20
139.305240
 30
0.0
  0
LWPOLYLINE
  5
102
100
AcDbEntity
  8
newlayer
 62
7
100
AcDbPolyline
 90
116
 70
1
 10
6.471903
 20
162.805240
 30
0.0
 10
6.471903
 20
171.577740
 30
0.0
 10
9.471903
 20
171.577740
 30
0.0
 10
9.471903
 20
178.407740
 30
0.0
 10
6.471903
 20
178.407740
 30
0.0
 10
6.471903
 20
187.265240
 30
0.0
 10
9.471903
 20
187.265240
 30
0.0
 10
9.471903
 20
194.095240
 30
0.0
 10
6.471903
 20
194.095240
 30
0.0
 10
6.471903
 20
202.952737
 30
0.0
 10
9.471903
 20
202.952737
 30
0.0
 10
9.471903
 20
209.782737
 30
0.0
 10
6.471903
 20
209.782737
 30
0.0
 10
6.471903
 20
218.640237
 30
0.0
 10
9.471903
 20
218.640237
 30
0.0
 10
9.471903
 20
225.470237
 30
0.0
 10
6.471903
 20
225.470237
 30
0.0
 10
6.471903
 20
234.327737
 30
0.0
 10
9.471903
 20
234.327737
 30
0.0
 10
9.471903
 20
241.157737
 30
0.0
 10
6.471903
 20
241.157737
 30
0.0
 10
6.471903
 20
250.015237
 30
0.0
 10
9.471903
 20
250.015237
 30
0.0
 10
9.471903
 20
256.845237
 30
0.0
 10
6.471903
 20
256.845237
 30
0.0
 10
6.471903
 20
265.702737
 30
0.0
 10
9.471903
 20
265.702737
 30
0.0
 10
9.471903
 20
272.532737
 30
0.0
 10
6.471903
 20
272.532737
 30
0.0
 10
6.471903
 20
281.305237
 30
0.0
 10
15.244403
 20
281.305237
 30
0.0
 10
15.244403
 20
278.305237
 30
0.0
 10
22.074403
 20
278.305237
 30
0.0
 10
22.074403
 20
281.305237
 30
0.0
 10
30.931903
 20
281.305237
 30
0.0
 10
30.931903
 20
278.305237
 30
0.0
 10
37.761903
 20
278.305237
 30
0.0
 10
37.761903
 20
281.305237
 30
0.0
 10
46.619403
 20
281.305237
 30
0.0
 10
46.619403
 20
278.305237
 30
0.0
 10
53.449403
 20
278.305237
 30
0.0
 10
53.449403
 20
281.305237
 30
0.0
 10
62.306903
 20
281.305237
 30
0.0
 10
62.306903
 20
278.305237
 30
0.0
 10
69.136903
 20
278.305237
 30
0.0
 10
69.136903
 20
281.305237
 30
0.0
 10
77.994403
 20
281.305237
 30
0.0
 10
77.994403
 20
278.305237
 30
0.0
 10
84.824403
 20
278.305237
 30
0.0
 10
84.824403
 20
281.305237
 30
0.0
 10
93.681903
 20
281.305237
 30
0.0
 10
93.681903
 20
278.305237
 30
0.0
 10
100.511900
 20
278.305237
 30
0.0
 10
100.511900
 20
281.305237
 30
0.0
 10
109.369400
 20
281.305237
 30
0.0
 10
109.369400
 20
278.305237
 30
0.0
 10
116.199400
 20
278.305237
 30
0.0
 10
116.199400
 20
281.305237
 30
0.0
 10
124.971900
 20
281.305237
 30
0.0
 10
124.971900
 20
272.532737
 30
0.0
 10
121.971900
 20
272.532737
 30
0.0
 10
121.971900
 20
265.702737
 30
0.0
 10
124.971900
 20
265.702737
 30
0.0
 10
124.971900
 20
256.845237
 30
0.0
 10
121.971900
 20
256.845237
 30
0.0
 10
121.971900
 20
250.015237
 30
0.0
 10
124.971900
 20
250.015237
 30
0.0
 10
124.971900
 20
241.157737
 30
0.0
 10
121.971900
 20
241.157737
 30
0.0
 10
121.971900
 20
234.327737
 30
0.0
 10
124.971900
 20
234.327737
 30
0.0
 10
124.971900
 20
225.470237
 30
0.0
 10
121.971900
 20
225.470237
 30
0.0
 10
121.971900
 20
218.640237
 30
0.0
 10
124.971900
 20
218.640237
 30
0.0
 10
124.971900
 20
209.782737
 30
0.0
 10
121.971900
 20
209.782737
 30
0.0
 10
121.971900
 20
202.952737
 30
0.0
 10
124.971900
 20
202.952737
 30
0.0
 10
124.971900
 20
194.095240
 30
0.0
 10
121.971900
 20
194.095240
 30
0.0
 10
121.971900
 20
187.265240
 30
0.0
 10
124.971900
 20
187.265240
 30
0.0
 10
124.971900
 20
178.407740
 30
0.0
 10
121.971900
 20
178.407740
 30
0.0
 10
121.971900
 20
171.577740
 30
0.0
 10
124.971900
 20
171.577740
 30
0.0
 10
124.971900
 20
162.805240
 30
0.0
 10
116.199400
 20
162.805240
 30
0.0
 10
116.199400
 20
165.805240
 30
0.0
 10
109.369400
 20
165.805240
 30
0.0
 10
109.369400
 20
162.805240
 30
0.0
 10
100.511900
 20
162.805240
 30
0.0
 10
100.511900
 20
165.805240
 30
0.0
 10
93.681903
 20
165.805240
 30
0.0
 10
93.681903
 20
162.805240
 30
0.0
 10
84.824403
 20
162.805240
 30
0.0
 10
84.824403
 20
165.805240
 30
0.0
 10
77.994403
 20
165.805240
 30
0.0
 10
77.994403
 20
162.805240
 30
0.0
 10
69.136903
 20
162.805240
 30
0.0
 10
69.136903
 20
165.805240
 30
0.0
 10
62.306903
 20
165.805240
 30
0.0
 10
62.306903
 20
162.805240
 30
0.0
 10
53.449403
 20
162.805240
 30
0.0
 10
53.449403
 20
165.805240
 30
0.0
 10
46.619403
 20
165.805240
 30
0.0
 10
46.619403
 20
162.805240
 30
0.0
 10
37.761903
 20
162.805240
 30
0.0
 10
37.761903
 20
165.805240
 30
0.0
 10
30.931903
 20
165.805240
 30
0.0
 10
30.931903
 20
162.805240
 30
0.0
 10
22.074403
 20
162.805240
 30
0.0
 10
22.074403
 20
165.805240
 30
0.0
 10
15.244403
 20
165.805240
 30
0.0
 10
15.244403
 20
162.805240
 30
0.0
  0
LWPOLYLINE
  5
103
100
AcDbEntity
  8
newlayer
 62
7
100
AcDbPolyline
 90
68
 70
1
 10
274.522130
 20
162.805240
 30
0.0
 10
274.522130
 20
171.407740
 30
0.0
 10
271.522130
 20
171.407740
 30
0.0
 10
271.522130
 20
178.577740
 30
0.0
 10
274.522130
 20
178.577740
 30
0.0
 10
274.522130
 20
187.095240
 30
0.0
 10
271.522130
 20
187.095240
 30
0.0
 10
271.522130
 20
194.265240
 30
0.0
 10
274.522130
 20
194.265240
 30
0.0
 10
274.522130
 20
202.782737
 30
0.0
 10
271.522130
 20
202.782737
 30
0.0
 10
271.522130
 20
209.952737
 30
0.0
 10
274.522130
 20
209.952737
 30
0.0
 10
274.522130
 20
218.470237
 30
0.0
 10
271.522130
 20
218.470237
 30
0.0
 10
271.522130
 20
225.640237
 30
0.0
 10
274.522130
 20
225.640237
 30
0.0
 10
274.522130
 20
234.157737
 30
0.0
 10
271.522130
 20
234.157737
 30
0.0
 10
271.522130
 20
241.327737
 30
0.0
 10
274.522130
 20
241.327737
 30
0.0
 10
274.522130
 20
249.845237
 30
0.0
 10
271.522130
 20
249.845237
 30
0.0
 10
271.522130
 20
257.015237
 30
0.0
 10
274.522130
 20
257.015237
 30
0.0
 10
274.522130
 20
265.532737
 30
0.0
 10
271.522130
 20
265.532737
 30
0.0
 10
271.522130
 20
272.702737
 30
0.0
 10
274.522130
 20
272.702737
 30
0.0
 10
274.522130
 20
281.305237
 30
0.0
 10
281.107130
 20
281.305237
 30
0.0
 10
281.107130
 20
278.305237
 30
0.0
 10
287.937130
 20
278.305237
 30
0.0
 10
287.937130
 20
281.305237
 30
0.0
 10
294.522130
 20
281.305237
 30
0.0
 10
294.522130
 20
272.702737
 30
0.0
 10
297.522130
 20
272.702737
 30
0.0
 10
297.522130
 20
265.532737
 30
0.0
 10
294.522130
 20
265.532737
 30
0.0
 10
294.522130
 20
257.015237
 30
0.0
 10
297.522130
 20
257.015237
 30
0.0
 10
297.522130
 20
249.845237
 30
0.0
 10
294.522130
 20
249.845237
 30
0.0
 10
294.522130
 20
241.327737
 30
0.0
 10
297.522130
 20
241.327737
 30
0.0
 10
297.522130
 20
234.157737
 30
0.0
 10
294.522130
 20
234.157737
 30
0.0
 10
294.522130
 20
225.640237
 30
0.0
 10
297.522130
 20
225.640237
 30
0.0
 10
297.522130
 20
218.470237
 30
0.0
 10
294.522130
 20
218.470237
 30
0.0
 10
294.522130
 20
209.952737
 30
0.0
 10
297.522130
 20
209.952737
 30
0.0
 10
297.522130
 20
202.782737
 30
0.0
 10
294.522130
 20
202.782737
 30
0.0
 10
294.522130
 20
194.265240
 30
0.0
 10
297.522130
 20
194.265240
 30
0.0
 10
297.522130
 20
187.095240
 30
0.0
 10
294.522130
 20
187.095240
 30
0.0
 10
294.522130
 20
178.577740
 30
0.0
 10
297.522130
 20
178.577740
 30
0.0
 10
297.522130
 20
171.407740
 30
0.0
 10
294.522130
 20
171.407740
 30
0.0
 10
294.522130
 20
162.805240
 30
0.0
 10
287.937130
 20
162.805240
 30
0.0
 10
287.937130
 20
165.805240
 30
0.0
 10
281.107130
 20
165.805240
 30
0.0
 10
281.107130
 20
162.805240
 30
0.0
  0
LWPOLYLINE
  5
104
100
AcDbEntity
  8
newlayer
 62
7
100
AcDbPolyline
 90
68
 70
1
 10
155.521920
 20
139.305240
 30
0.0
 10
155.521920
 20
145.720240
 30
0.0
 10
152.521920
 20
145.720240
 30
0.0
 10
152.521920
 20
152.890240
 30
0.0
 10
155.521920
 20
152.890240
 30
0.0
 10
155.521920
 20
159.305240
 30
0.0
 10
161.124430
 20
159.305240
 30
0.0
 10
161.124430
 20
162.305240
 30
0.0
 10
168.294430
 20
162.305240
 30
0.0
 10
168.294430
 20
159.305240
 30
0.0
 10
176.811940
 20
159.305240
 30
0.0
 10
176.811940
 20
162.305240
 30
0.0
 10
183.981940
 20
162.305240
 30
0.0
 10
183.981940
 20
159.305240
 30
0.0
 10
192.499450
 20
159.305240
 30
0.0
 10
192.499450
 20
162.305240
 30
0.0
 10
199.669450
 20
162.305240
 30
0.0
 10
199.669450
 20
159.305240
 30
0.0
 10
208.186960
 20
159.305240
 30
0.0
 10
208.186960
 20
162.305240
 30
0.0
 10
215.356960
 20
162.305240
 30
0.0
 10
215.356960
 20
159.305240
 30
0.0
 10
223.874470
 20
159.305240
 30
0.0
 10
223.874470
 20
162.305240
 30
0.0
 10
231.044510
 20
162.305240
 30
0.0
 10
231.044510
 20
159.305240
 30
0.0
 10
239.562060
 20
159.305240
 30
0.0
 10
239.562060
 20
162.305240
 30
0.0
 10
246.732100
 20
162.305240
 30
0.0
 10
246.732100
 20
159.305240
 30
0.0
 10
255.249630
 20
159.305240
 30
0.0
 10
255.249630
 20
162.305240
 30
0.0
 10
262.419630
 20
162.305240
 30
0.0
 10
262.419630
 20
159.305240
 30
0.0
 10
268.022130
 20
159.305240
 30
0.0
 10
268.022130
 20
152.890240
 30
0.0
 10
271.022130
 20
152.890240
 30
0.0
 10
271.022130
 20
145.720240
 30
0.0
 10
268.022130
 20
145.720240
 30
0.0
 10
268.022130
 20
139.305240
 30
0.0
 10
262.419630
 20
139.305240
 30
0.0
 10
262.419630
 20
136.305240
 30
0.0
 10
255.249630
 20
136.305240
 30
0.0
 10
255.249630
 20
139.305240
 30
0.0
 10
246.732100
 20
139.305240
 30
0.0
 10
246.732100
 20
136.305240
 30
0.0
 10
239.562060
 20
136.305240
 30
0.0
 10
239.562060
 20
139.305240
 30
0.0
 10
231.044510
 20
139.305240
 30
0.0
 10
231.044510
 20
136.305240
 30
0.0
 10
223.874470
 20
136.305240
 30
0.0
 10
223.874470
 20
139.305240
 30
0.0
 10
215.356960
 20
139.305240
 30
0.0
 10
215.356960
 20
136.305240
 30
0.0
 10
208.186960
 20
136.305240
 30
0.0
 10
208.186960
 20
139.305240
 30
0.0
 10
199.669450
 20
139.305240
 30
0.0
 10
199.669450
 20
136.305240
 30
0.0
 10
192.499450
 20
136.305240
 30
0.0
 10
192.499450
 20
139.305240
 30
0.0
 10
183.981940
 20
139.305240
 30
0.0
 10
183.981940
 20
136.305240
 30
0.0
 10
176.811940
 20
136.305240
 30
0.0
 10
176.811940
 20
139.305240
 30
0.0
 10
168.294430
 20
139.305240
 30
0.0
 10
168.294430
 20
136.305240
 30
0.0
 10
161.124430
 20
136.305240
 30
0.0
 10
161.124430
 20
139.305240
 30
0.0
  0
LWPOLYLINE
  5
105
100
AcDbEntity
  8
newlayer
 62
7
100
AcDbPolyline
 90
116
 70
1
 10
152.521920
 20
162.805240
 30
0.0
 10
152.521920
 20
171.577740
 30
0.0
 10
155.521920
 20
171.577740
 30
0.0
 10
155.521920
 20
178.407740
 30
0.0
 10
152.521920
 20
178.407740
 30
0.0
 10
152.521920
 20
187.265240
 30
0.0
 10
155.521920
 20
187.265240
 30
0.0
 10
155.521920
 20
194.095240
 30
0.0
 10
152.521920
 20
194.095240
 30
0.0
 10
152.521920
 20
202.952737
 30
0.0
 10
155.521920
 20
202.952737
 30
0.0
 10
155.521920
 20
209.782737
 30
0.0
 10
152.521920
 20
209.782737
 30
0.0
 10
152.521920
 20
218.640237
 30
0.0
 10
155.521920
 20
218.640237
 30
0.0
 10
155.521920
 20
225.470237
 30
0.0
 10
152.521920
 20
225.470237
 30
0.0
 10
152.521920
 20
234.327737
 30
0.0
 10
155.521920
 20
234.327737
 30
0.0
 10
155.521920
 20
241.157737
 30
0.0
 10
152.521920
 20
241.157737
 30
0.0
 10
152.521920
 20
250.015237
 30
0.0
 10
155.521920
 20
250.015237
 30
0.0
 10
155.521920
 20
256.845237
 30
0.0
 10
152.521920
 20
256.845237
 30
0.0
 10
152.521920
 20
265.702737
 30
0.0
 10
155.521920
 20
265.702737
 30
0.0
 10
155.521920
 20
272.532737
 30
0.0
 10
152.521920
 20
272.532737
 30
0.0
 10
152.521920
 20
281.305237
 30
0.0
 10
161.294430
 20
281.305237
 30
0.0
 10
161.294430
 20
278.305237
 30
0.0
 10
168.124430
 20
278.305237
 30
0.0
 10
168.124430
 20
281.305237
 30
0.0
 10
176.981940
 20
281.305237
 30
0.0
 10
176.981940
 20
278.305237
 30
0.0
 10
183.811940
 20
278.305237
 30
0.0
 10
183.811940
 20
281.305237
 30
0.0
 10
192.669450
 20
281.305237
 30
0.0
 10
192.669450
 20
278.305237
 30
0.0
 10
199.499450
 20
278.305237
 30
0.0
 10
199.499450
 20
281.305237
 30
0.0
 10
208.356960
 20
281.305237
 30
0.0
 10
208.356960
 20
278.305237
 30
0.0
 10
215.186960
 20
278.305237
 30
0.0
 10
215.186960
 20
281.305237
 30
0.0
 10
224.044470
 20
281.305237
 30
0.0
 10
224.044470
 20
278.305237
 30
0.0
 10
230.874510
 20
278.305237
 30
0.0
 10
230.874510
 20
281.305237
 30
0.0
 10
239.732060
 20
281.305237
 30
0.0
 10
239.732060
 20
278.305237
 30
0.0
 10
246.562100
 20
278.305237
 30
0.0
 10
246.562100
 20
281.305237
 30
0.0
 10
255.419630
 20
281.305237
 30
0.0
 10
255.419630
 20
278.305237
 30
0.0
 10
262.249630
 20
278.305237
 30
0.0
 10
262.249630
 20
281.305237
 30
0.0
 10
271.022130
 20
281.305237
 30
0.0
 10
271.022130
 20
272.532737
 30
0.0
 10
268.022130
 20
272.532737
 30
0.0
 10
268.022130
 20
265.702737
 30
0.0
 10
271.022130
 20
265.702737
 30
0.0
 10
271.022130
 20
256.845237
 30
0.0
 10
268.022130
 20
256.845237
 30
0.0
 10
268.022130
 20
250.015237
 30
0.0
 10
271.022130
 20
250.015237
 30
0.0
 10
271.022130
 20
241.157737
 30
0.0
 10
268.022130
 20
241.157737
 30
0.0
 10
268.022130
 20
234.327737
 30
0.0
 10
271.022130
 20
234.327737
 30
0.0
 10
271.022130
 20
225.470237
 30
0.0
 10
268.022130
 20
225.470237
 30
0.0
 10
268.022130
 20
218.640237
 30
0.0
 10
271.022130
 20
218.640237
 30
0.0
 10
271.022130
 20
209.782737
 30
0.0
 10
268.022130
 20
209.782737
 30
0.0
 10
268.022130
 20
202.952737
 30
0.0
 10
271.022130
 20
202.952737
 30
0.0
 10
271.022130
 20
194.095240
 30
0.0
 10
268.022130
 20
194.095240
 30
0.0
 10
268.022130
 20
187.265240
 30
0.0
 10
271.022130
 20
187.265240
 30
0.0
 10
271.022130
 20
178.407740
 30
0.0
 10
268.022130
 20
178.407740
 30
0.0
 10
268.022130
 20
171.577740
 30
0.0
 10
271.022130
 20
171.577740
 30
0.0
 10
271.022130
 20
162.805240
 30
0.0
 10
262.249630
 20
162.805240
 30
0.0
 10
262.249630
 20
165.805240
 30
0.0
 10
255.419630
 20
165.805240
 30
0.0
 10
255.419630
 20
162.805240
 30
0.0
 10
246.562100
 20
162.805240
 30
0.0
 10
246.562100
 20
165.805240
 30
0.0
 10
239.732060
 20
165.805240
 30
0.0
 10
239.732060
 20
162.805240
 30
0.0
 10
230.874510
 20
162.805240
 30
0.0
 10
230.874510
 20
165.805240
 30
0.0
 10
224.044470
 20
165.805240
 30
0.0
 10
224.044470
 20
162.805240
 30
0.0
 10
215.186960
 20
162.805240
 30
0.0
 10
215.186960
 20
165.805240
 30
0.0
 10
208.356960
 20
165.805240
 30
0.0
 10
208.356960
 20
162.805240
 30
0.0
 10
199.499450
 20
162.805240
 30
0.0
 10
199.499450
 20
165.805240
 30
0.0
 10
192.669450
 20
165.805240
 30
0.0
 10
192.669450
 20
162.805240
 30
0.0
 10
183.811940
 20
162.805240
 30
0.0
 10
183.811940
 20
165.805240
 30
0.0
 10
176.981940
 20
165.805240
 30
0.0
 10
176.981940
 20
162.805240
 30
0.0
 10
168.124430
 20
162.805240
 30
0.0
 10
168.124430
 20
165.805240
 30
0.0
 10
161.294430
 20
165.805240
 30
0.0
 10
161.294430
 20
162.805240
 30
0.0
  0
LWPOLYLINE
  5
106
100
AcDbEntity
  8
newlayer
 62
7
100
AcDbPolyline
 90
5
 70
1
 10
134.221900
 20
231.141175
 30
0.0
 10
134.321500
 20
231.141175
 30
0.0
 10
142.721890
 20
231.141175
 30
0.0
 10
142.721890
 20
247.641177
 30
0.0
 10
134.221890
 20
247.641177
 30
0.0
  0
SPLINE
  5
107
100
AcDbEntity
  8
newlayer
 62
1
100
AcDbSpline
 70
8
 71
3
 72
8
 73
4
 74
0
 40
0
 40
0
 40
0
 40
0
 40
1
 40
1
 40
1
 40
1
 10
211.508465
 20
242.534527
 30
0.0
 10
200.354533
 20
242.392713
 30
0.0
 10
191.346212
 20
233.267944
 30
0.0
 10
191.346212
 20
222.051457
 30
0.0
  0
SPLINE
  5
108
100
AcDbEntity
  8
newlayer
 62
1
100
AcDbSpline
 70
8
 71
3
 72
8
 73
4
 74
0
 40
0
 40
0
 40
0
 40
0
 40
1
 40
1
 40
1
 40
1
 10
191.346212
 20
222.051457
 30
0.0
 10
191.346212
 20
210.746653
 30
0.0
 10
200.499897
 20
201.575618
 30
0.0
 10
211.775276
 20
201.575618
 30
0.0
  0
SPLINE
  5
109
100
AcDbEntity
  8
newlayer
 62
1
100
AcDbSpline
 70
8
 71
3
 72
8
 73
4
 74
0
 40
0
 40
0
 40
0
 40
0
 40
1
 40
1
 40
1
 40
1
 10
211.775276
 20
201.575618
 30
0.0
 10
223.050657
 20
201.575618
 30
0.0
 10
232.197133
 20
210.746653
 30
0.0
 10
232.197130
 20
222.051457
 30
0.0
  0
SPLINE
  5
10a
100
AcDbEntity
  8
newlayer
 62
1
100
AcDbSpline
 70
8
 71
3
 72
8
 73
4
 74
0
 40
0
 40
0
 40
0
 40
0
 40
1
 40
1
 40
1
 40
1
 10
232.197130
 20
222.051457
 30
0.0
 10
232.197130
 20
222.139780
 30
0.0
 10
232.198744
 20
222.230916
 30
0.0
 10
232.197130
 20
222.318974
 30
0.0
  0
LWPOLYLINE
  5
10b
100
AcDbEntity
  8
newlayer
 62
7
100
AcDbPolyline
 90
4
 70
1
 10
134.421120
 20
231.340393
 30
0.0
 10
134.421120
 20
247.441957
 30
0.0
 10
142.522680
 20
247.441957
 30
0.0
 10
142.522680
 20
231.340393
 30
0.0
  0
SPLINE
  5
10c
100
AcDbEntity
  8
newlayer
 62
1
100
AcDbSpline
 70
8
 71
3
 72
8
 73
4
 74
0
 40
0
 40
0
 40
0
 40
0
 40
1
 40
1
 40
1
 40
1
 10
232.197130
 20
238.456712
 30
0.0
 10
232.152390
 20
240.704689
 30
0.0
 10
230.328536
 20
242.517593
 30
0.0
 10
228.079588
 20
242.534527
 30
0.0
  0
LWPOLYLINE
  5
10d
100
AcDbEntity
  8
newlayer
 62
1
100
AcDbPolyline
 90
2
 70
0
 10
232.197130
 20
222.318974
 30
0.0
 10
232.197130
 20
238.456712
 30
0.0
  0
SPLINE
  5
10e
100
AcDbEntity
  8
newlayer
 62
1
100
AcDbSpline
 70
8
 71
3
 72
8
 73
4
 74
0
 40
0
 40
0
 40
0
 40
0
 40
1
 40
1
 40
1
 40
1
 10
211.681532
 20
242.534527
 30
0.0
 10
211.624826
 20
242.534527
 30
0.0
 10
211.565255
 20
242.535256
 30
0.0
 10
211.508465
 20
242.534527
 30
0.0
  0
LWPOLYLINE
  5
10f
100
AcDbEntity
  8
newlayer
 62
1
100
AcDbPolyline
 90
3
 70
0
 10
228.079588
 20
242.534527
 30
0.0
 10
211.775276
 20
242.534527
 30
0.0
 10
211.681532
 20
242.534527
 30
0.0
  0
SPLINE
  5
110
100
AcDbEntity
  8
newlayer
 62
1
100
AcDbSpline
 70
8
 71
3
 72
8
 73
4
 74
0
 40
0
 40
0
 40
0
 40
0
 40
1
 40
1
 40
1
 40
1
 10
227.077243
 20
240.784826
 30
0.0
 10
227.575712
 20
240.784820
 30
0.0
 10
228.004922
 20
240.677542
 30
0.0
 10
228.339187
 20
240.445008
 30
0.0
  0
SPLINE
  5
111
100
AcDbEntity
  8
newlayer
 62
1
100
AcDbSpline
 70
8
 71
3
 72
8
 73
4
 74
0
 40
0
 40
0
 40
0
 40
0
 40
1
 40
1
 40
1
 40
1
 10
228.339187
 20
240.445008
 30
0.0
 10
228.677407
 20
240.216627
 30
0.0
 10
228.872806
 20
239.848615
 30
0.0
 10
228.872809
 20
239.440015
 30
0.0
  0
SPLINE
  5
112
100
AcDbEntity
  8
newlayer
 62
1
100
AcDbSpline
 70
8
 71
3
 72
8
 73
4
 74
0
 40
0
 40
0
 40
0
 40
0
 40
1
 40
1
 40
1
 40
1
 10
228.872809
 20
239.440015
 30
0.0
 10
228.872806
 20
239.198262
 30
0.0
 10
228.808948
 20
238.955302
 30
0.0
 10
228.699743
 20
238.716998
 30
0.0
  0
SPLINE
  5
113
100
AcDbEntity
  8
newlayer
 62
1
100
AcDbSpline
 70
8
 71
3
 72
8
 73
4
 74
0
 40
0
 40
0
 40
0
 40
0
 40
1
 40
1
 40
1
 40
1
 10
228.699743
 20
238.716998
 30
0.0
 10
228.596624
 20
238.498060
 30
0.0
 10
228.482309
 20
238.309684
 30
0.0
 10
228.353610
 20
238.160275
 30
0.0
  0
SPLINE
  5
114
100
AcDbEntity
  8
newlayer
 62
1
100
AcDbSpline
 70
8
 71
3
 72
8
 73
4
 74
0
 40
0
 40
0
 40
0
 40
0
 40
1
 40
1
 40
1
 40
1
 10
228.353610
 20
238.160275
 30
0.0
 10
228.259375
 20
238.055850
 30
0.0
 10
228.160330
 20
237.949347
 30
0.0
 10
228.057955
 20
237.849378
 30
0.0
  0
SPLINE
  5
115
100
AcDbEntity
  8
newlayer
 62
1
100
AcDbSpline
 70
8
 71
3
 72
8
 73
4
 74
0
 40
0
 40
0
 40
0
 40
0
 40
1
 40
1
 40
1
 40
1
 10
228.057955
 20
237.849378
 30
0.0
 10
228.345150
 20
237.687694
 30
0.0
 10
228.587986
 20
237.483851
 30
0.0
 10
228.771854
 20
237.227583
 30
0.0
  0
LWPOLYLINE
  5
116
100
AcDbEntity
  8
newlayer
 62
1
100
AcDbPolyline
 90
1
 70
1
 10
211.508465
 20
242.534527
 30
0.0
  0
SPLINE
  5
117
100
AcDbEntity
  8
newlayer
 62
1
100
AcDbSpline
 70
8
 71
3
 72
8
 73
4
 74
0
 40
0
 40
0
 40
0
 40
0
 40
1
 40
1
 40
1
 40
1
 10
228.779071
 20
237.227583
 30
0.0
 10
228.779994
 20
237.226011
 30
0.0
 10
228.778149
 20
237.214696
 30
0.0
 10
228.779071
 20
237.213122
 30
0.0
  0
SPLINE
  5
118
100
AcDbEntity
  8
newlayer
 62
1
100
AcDbSpline
 70
8
 71
3
 72
8
 73
4
 74
0
 40
0
 40
0
 40
0
 40
0
 40
1
 40
1
 40
1
 40
1
 10
228.779071
 20
237.213122
 30
0.0
 10
228.996395
 20
236.919971
 30
0.0
 10
229.103569
 20
236.570084
 30
0.0
 10
229.103571
 20
236.193668
 30
0.0
  0
SPLINE
  5
119
100
AcDbEntity
  8
newlayer
 62
1
100
AcDbSpline
 70
8
 71
3
 72
8
 73
4
 74
0
 40
0
 40
0
 40
0
 40
0
 40
1
 40
1
 40
1
 40
1
 10
229.103571
 20
236.193668
 30
0.0
 10
229.103569
 20
235.498316
 30
0.0
 10
228.815843
 20
234.913157
 30
0.0
 10
228.274294
 20
234.523499
 30
0.0
  0
SPLINE
  5
11a
100
AcDbEntity
  8
newlayer
 62
1
100
AcDbSpline
 70
8
 71
3
 72
8
 73
4
 74
0
 40
0
 40
0
 40
0
 40
0
 40
1
 40
1
 40
1
 40
1
 10
228.274294
 20
234.523499
 30
0.0
 10
227.753248
 20
234.144137
 30
0.0
 10
227.111789
 20
233.940098
 30
0.0
 10
226.377774
 20
233.916165
 30
0.0
  0
SPLINE
  5
11b
100
AcDbEntity
  8
newlayer
 62
1
100
AcDbSpline
 70
8
 71
3
 72
8
 73
4
 74
0
 40
0
 40
0
 40
0
 40
0
 40
1
 40
1
 40
1
 40
1
 10
226.377774
 20
233.916165
 30
0.0
 10
226.377774
 20
233.916165
 30
0.0
 10
226.371709
 20
233.916389
 30
0.0
 10
226.370556
 20
233.916165
 30
0.0
  0
SPLINE
  5
11c
100
AcDbEntity
  8
newlayer
 62
1
100
AcDbSpline
 70
8
 71
3
 72
8
 73
4
 74
0
 40
0
 40
0
 40
0
 40
0
 40
1
 40
1
 40
1
 40
1
 10
226.370556
 20
233.916165
 30
0.0
 10
226.189370
 20
233.916165
 30
0.0
 10
226.010680
 20
234.007884
 30
0.0
 10
225.887412
 20
234.140300
 30
0.0
  0
SPLINE
  5
11d
100
AcDbEntity
  8
newlayer
 62
1
100
AcDbSpline
 70
8
 71
3
 72
8
 73
4
 74
0
 40
0
 40
0
 40
0
 40
0
 40
1
 40
1
 40
1
 40
1
 10
225.887412
 20
234.140300
 30
0.0
 10
225.789932
 20
234.245549
 30
0.0
 10
225.699921
 20
234.359958
 30
0.0
 10
225.699921
 20
234.530729
 30
0.0
  0
SPLINE
  5
11e
100
AcDbEntity
  8
newlayer
 62
1
100
AcDbSpline
 70
8
 71
3
 72
8
 73
4
 74
0
 40
0
 40
0
 40
0
 40
0
 40
1
 40
1
 40
1
 40
1
 10
225.699921
 20
234.530729
 30
0.0
 10
225.699921
 20
234.609396
 30
0.0
 10
225.703126
 20
234.688152
 30
0.0
 10
225.721550
 20
234.762095
 30
0.0
  0
LWPOLYLINE
  5
11f
100
AcDbEntity
  8
newlayer
 62
1
100
AcDbPolyline
 90
2
 70
0
 10
228.771854
 20
237.227583
 30
0.0
 10
228.779071
 20
237.227583
 30
0.0
  0
SPLINE
  5
120
100
AcDbEntity
  8
newlayer
 62
1
100
AcDbSpline
 70
8
 71
3
 72
8
 73
4
 74
0
 40
0
 40
0
 40
0
 40
0
 40
1
 40
1
 40
1
 40
1
 10
225.981152
 20
234.971769
 30
0.0
 10
226.614969
 20
234.993129
 30
0.0
 10
227.062790
 20
235.131425
 30
0.0
 10
227.329627
 20
235.340507
 30
0.0
  0
SPLINE
  5
121
100
AcDbEntity
  8
newlayer
 62
1
100
AcDbSpline
 70
8
 71
3
 72
8
 73
4
 74
0
 40
0
 40
0
 40
0
 40
0
 40
1
 40
1
 40
1
 40
1
 10
227.329627
 20
235.340507
 30
0.0
 10
227.596469
 20
235.549590
 30
0.0
 10
227.719027
 20
235.826560
 30
0.0
 10
227.719027
 20
236.265969
 30
0.0
  0
SPLINE
  5
122
100
AcDbEntity
  8
newlayer
 62
1
100
AcDbSpline
 70
8
 71
3
 72
8
 73
4
 74
0
 40
0
 40
0
 40
0
 40
0
 40
1
 40
1
 40
1
 40
1
 10
227.719027
 20
236.265969
 30
0.0
 10
227.719025
 20
236.695382
 30
0.0
 10
227.549015
 20
236.949355
 30
0.0
 10
227.084451
 20
237.155280
 30
0.0
  0
SPLINE
  5
123
100
AcDbEntity
  8
newlayer
 62
1
100
AcDbSpline
 70
8
 71
3
 72
8
 73
4
 74
0
 40
0
 40
0
 40
0
 40
0
 40
1
 40
1
 40
1
 40
1
 10
227.084451
 20
237.155280
 30
0.0
 10
226.963846
 20
237.209692
 30
0.0
 10
226.869855
 20
237.258840
 30
0.0
 10
226.788795
 20
237.314343
 30
0.0
  0
SPLINE
  5
124
100
AcDbEntity
  8
newlayer
 62
1
100
AcDbSpline
 70
8
 71
3
 72
8
 73
4
 74
0
 40
0
 40
0
 40
0
 40
0
 40
1
 40
1
 40
1
 40
1
 10
226.788795
 20
237.314343
 30
0.0
 10
226.707736
 20
237.369847
 30
0.0
 10
226.599771
 20
237.416557
 30
0.0
 10
226.579674
 20
237.618011
 30
0.0
  0
LWPOLYLINE
  5
125
100
AcDbEntity
  8
newlayer
 62
1
100
AcDbPolyline
 90
3
 70
0
 10
225.721550
 20
234.762095
 30
0.0
 10
225.779240
 20
234.964539
 30
0.0
 10
225.981152
 20
234.971769
 30
0.0
  0
SPLINE
  5
126
100
AcDbEntity
  8
newlayer
 62
1
100
AcDbSpline
 70
8
 71
3
 72
8
 73
4
 74
0
 40
0
 40
0
 40
0
 40
0
 40
1
 40
1
 40
1
 40
1
 10
226.622936
 20
237.791535
 30
0.0
 10
226.690677
 20
237.897188
 30
0.0
 10
226.798067
 20
238.034064
 30
0.0
 10
226.969069
 20
238.239805
 30
0.0
  0
LWPOLYLINE
  5
127
100
AcDbEntity
  8
newlayer
 62
1
100
AcDbPolyline
 90
3
 70
0
 10
226.579674
 20
237.618011
 30
0.0
 10
226.572456
 20
237.712003
 30
0.0
 10
226.622936
 20
237.791535
 30
0.0
  0
SPLINE
  5
128
100
AcDbEntity
  8
newlayer
 62
1
100
AcDbSpline
 70
8
 71
3
 72
8
 73
4
 74
0
 40
0
 40
0
 40
0
 40
0
 40
1
 40
1
 40
1
 40
1
 10
226.969069
 20
238.247035
 30
0.0
 10
227.133151
 20
238.438079
 30
0.0
 10
227.261870
 20
238.617764
 30
0.0
 10
227.351256
 20
238.782067
 30
0.0
  0
LWPOLYLINE
  5
129
100
AcDbEntity
  8
newlayer
 62
1
100
AcDbPolyline
 90
2
 70
0
 10
226.969069
 20
238.239805
 30
0.0
 10
226.969069
 20
238.247035
 30
0.0
  0
SPLINE
  5
12a
100
AcDbEntity
  8
newlayer
 62
1
100
AcDbSpline
 70
8
 71
3
 72
8
 73
4
 74
0
 40
0
 40
0
 40
0
 40
0
 40
1
 40
1
 40
1
 40
1
 10
227.351256
 20
238.789297
 30
0.0
 10
227.435703
 20
238.936351
 30
0.0
 10
227.473842
 20
239.076582
 30
0.0
 10
227.473844
 20
239.237567
 30
0.0
  0
SPLINE
  5
12b
100
AcDbEntity
  8
newlayer
 62
1
100
AcDbSpline
 70
8
 71
3
 72
8
 73
4
 74
0
 40
0
 40
0
 40
0
 40
0
 40
1
 40
1
 40
1
 40
1
 10
227.473844
 20
239.237567
 30
0.0
 10
227.473842
 20
239.381115
 30
0.0
 10
227.438157
 20
239.461363
 30
0.0
 10
227.344046
 20
239.548465
 30
0.0
  0
SPLINE
  5
12c
100
AcDbEntity
  8
newlayer
 62
1
100
AcDbSpline
 70
8
 71
3
 72
8
 73
4
 74
0
 40
0
 40
0
 40
0
 40
0
 40
1
 40
1
 40
1
 40
1
 10
227.344046
 20
239.548465
 30
0.0
 10
227.262767
 20
239.623682
 30
0.0
 10
227.133580
 20
239.685833
 30
0.0
 10
226.896956
 20
239.685838
 30
0.0
  0
SPLINE
  5
12d
100
AcDbEntity
  8
newlayer
 62
1
100
AcDbSpline
 70
8
 71
3
 72
8
 73
4
 74
0
 40
0
 40
0
 40
0
 40
0
 40
1
 40
1
 40
1
 40
1
 10
226.896956
 20
239.685838
 30
0.0
 10
226.855529
 20
239.685836
 30
0.0
 10
226.701591
 20
239.660358
 30
0.0
 10
226.485925
 20
239.606306
 30
0.0
  0
SPLINE
  5
12e
100
AcDbEntity
  8
newlayer
 62
1
100
AcDbSpline
 70
8
 71
3
 72
8
 73
4
 74
0
 40
0
 40
0
 40
0
 40
0
 40
1
 40
1
 40
1
 40
1
 10
226.485925
 20
239.606306
 30
0.0
 10
226.372062
 20
239.577764
 30
0.0
 10
226.281332
 20
239.556368
 30
0.0
 10
226.211902
 20
239.541234
 30
0.0
  0
SPLINE
  5
12f
100
AcDbEntity
  8
newlayer
 62
1
100
AcDbSpline
 70
8
 71
3
 72
8
 73
4
 74
0
 40
0
 40
0
 40
0
 40
0
 40
1
 40
1
 40
1
 40
1
 10
226.211902
 20
239.541234
 30
0.0
 10
226.142471
 20
239.526100
 30
0.0
 10
226.125076
 20
239.512299
 30
0.0
 10
226.031624
 20
239.512314
 30
0.0
  0
SPLINE
  5
130
100
AcDbEntity
  8
newlayer
 62
1
100
AcDbSpline
 70
8
 71
3
 72
8
 73
4
 74
0
 40
0
 40
0
 40
0
 40
0
 40
1
 40
1
 40
1
 40
1
 10
226.031624
 20
239.512314
 30
0.0
 10
225.860097
 20
239.512287
 30
0.0
 10
225.796428
 20
239.573232
 30
0.0
 10
225.707125
 20
239.635227
 30
0.0
  0
LWPOLYLINE
  5
131
100
AcDbEntity
  8
newlayer
 62
1
100
AcDbPolyline
 90
2
 70
0
 10
227.351256
 20
238.782067
 30
0.0
 10
227.351256
 20
238.789297
 30
0.0
  0
SPLINE
  5
132
100
AcDbEntity
  8
newlayer
 62
1
100
AcDbSpline
 70
8
 71
3
 72
8
 73
4
 74
0
 40
0
 40
0
 40
0
 40
0
 40
1
 40
1
 40
1
 40
1
 10
225.692690
 20
239.649685
 30
0.0
 10
225.590601
 20
239.734972
 30
0.0
 10
225.490779
 20
239.858844
 30
0.0
 10
225.490779
 20
240.025654
 30
0.0
  0
SPLINE
  5
133
100
AcDbEntity
  8
newlayer
 62
1
100
AcDbSpline
 70
8
 71
3
 72
8
 73
4
 74
0
 40
0
 40
0
 40
0
 40
0
 40
1
 40
1
 40
1
 40
1
 10
225.490779
 20
240.025654
 30
0.0
 10
225.490779
 20
240.211662
 30
0.0
 10
225.609345
 20
240.327329
 30
0.0
 10
225.714324
 20
240.401623
 30
0.0
  0
SPLINE
  5
134
100
AcDbEntity
  8
newlayer
 62
1
100
AcDbSpline
 70
8
 71
3
 72
8
 73
4
 74
0
 40
0
 40
0
 40
0
 40
0
 40
1
 40
1
 40
1
 40
1
 10
225.714324
 20
240.401623
 30
0.0
 10
225.819300
 20
240.475916
 30
0.0
 10
225.940749
 20
240.538653
 30
0.0
 10
226.096513
 20
240.596837
 30
0.0
  0
SPLINE
  5
135
100
AcDbEntity
  8
newlayer
 62
1
100
AcDbSpline
 70
8
 71
3
 72
8
 73
4
 74
0
 40
0
 40
0
 40
0
 40
0
 40
1
 40
1
 40
1
 40
1
 10
226.096513
 20
240.596837
 30
0.0
 10
226.417739
 20
240.720702
 30
0.0
 10
226.744998
 20
240.784815
 30
0.0
 10
227.077222
 20
240.784822
 30
0.0
  0
LWPOLYLINE
  5
136
100
AcDbEntity
  8
newlayer
 62
1
100
AcDbPolyline
 90
3
 70
0
 10
225.707125
 20
239.635227
 30
0.0
 10
225.699908
 20
239.642456
 30
0.0
 10
225.692690
 20
239.649685
 30
0.0
  0
SPLINE
  5
137
100
AcDbEntity
  8
newlayer
 62
1
100
AcDbSpline
 70
8
 71
3
 72
8
 73
4
 74
0
 40
0
 40
0
 40
0
 40
0
 40
1
 40
1
 40
1
 40
1
 10
211.876231
 20
237.849378
 30
0.0
 10
215.679684
 20
237.817160
 30
0.0
 10
219.444031
 20
236.347014
 30
0.0
 10
222.296281
 20
233.829403
 30
0.0
  0
SPLINE
  5
138
100
AcDbEntity
  8
newlayer
 62
1
100
AcDbSpline
 70
8
 71
3
 72
8
 73
4
 74
0
 40
0
 40
0
 40
0
 40
0
 40
1
 40
1
 40
1
 40
1
 10
222.296281
 20
233.829403
 30
0.0
 10
226.565760
 20
230.129725
 30
0.0
 10
228.363468
 20
223.984881
 30
0.0
 10
227.156567
 20
218.494213
 30
0.0
  0
SPLINE
  5
139
100
AcDbEntity
  8
newlayer
 62
1
100
AcDbSpline
 70
8
 71
3
 72
8
 73
4
 74
0
 40
0
 40
0
 40
0
 40
0
 40
1
 40
1
 40
1
 40
1
 10
227.156567
 20
218.494213
 30
0.0
 10
226.101688
 20
213.381450
 30
0.0
 10
222.161709
 20
209.119185
 30
0.0
 10
217.327828
 20
207.294682
 30
0.0
  0
SPLINE
  5
13a
100
AcDbEntity
  8
newlayer
 62
1
100
AcDbSpline
 70
8
 71
3
 72
8
 73
4
 74
0
 40
0
 40
0
 40
0
 40
0
 40
1
 40
1
 40
1
 40
1
 10
217.327828
 20
207.294682
 30
0.0
 10
212.311445
 20
205.264940
 30
0.0
 10
206.282107
 20
206.235826
 30
0.0
 10
202.061916
 20
209.593876
 30
0.0
  0
SPLINE
  5
13b
100
AcDbEntity
  8
newlayer
 62
1
100
AcDbSpline
 70
8
 71
3
 72
8
 73
4
 74
0
 40
0
 40
0
 40
0
 40
0
 40
1
 40
1
 40
1
 40
1
 10
202.061916
 20
209.593876
 30
0.0
 10
197.377658
 20
213.182821
 30
0.0
 10
195.109558
 20
219.554042
 30
0.0
 10
196.300242
 20
225.326724
 30
0.0
  0
SPLINE
  5
13c
100
AcDbEntity
  8
newlayer
 62
1
100
AcDbSpline
 70
8
 71
3
 72
8
 73
4
 74
0
 40
0
 40
0
 40
0
 40
0
 40
1
 40
1
 40
1
 40
1
 10
196.300242
 20
225.326724
 30
0.0
 10
197.715146
 20
232.321463
 30
0.0
 10
204.374712
 20
237.808889
 30
0.0
 10
211.508465
 20
237.842147
 30
0.0
  0
SPLINE
  5
13d
100
AcDbEntity
  8
newlayer
 62
1
100
AcDbSpline
 70
8
 71
3
 72
8
 73
4
 74
0
 40
0
 40
0
 40
0
 40
0
 40
1
 40
1
 40
1
 40
1
 10
211.508465
 20
237.842147
 30
0.0
 10
211.631219
 20
237.844113
 30
0.0
 10
211.753541
 20
237.850415
 30
0.0
 10
211.876231
 20
237.849377
 30
0.0
  0
LWPOLYLINE
  5
13e
100
AcDbEntity
  8
newlayer
 62
1
100
AcDbPolyline
 90
1
 70
1
 10
227.077222
 20
240.784822
 30
0.0
  0
SPLINE
  5
13f
100
AcDbEntity
  8
newlayer
 62
1
100
AcDbSpline
 70
8
 71
3
 72
8
 73
4
 74
0
 40
0
 40
0
 40
0
 40
0
 40
1
 40
1
 40
1
 40
1
 10
218.683516
 20
231.978480
 30
0.0
 10
217.255660
 20
231.978460
 30
0.0
 10
215.541465
 20
231.560821
 30
0.0
 10
213.534786
 20
230.727661
 30
0.0
  0
SPLINE
  5
140
100
AcDbEntity
  8
newlayer
 62
1
100
AcDbSpline
 70
8
 71
3
 72
8
 73
4
 74
0
 40
0
 40
0
 40
0
 40
0
 40
1
 40
1
 40
1
 40
1
 10
213.534786
 20
230.727661
 30
0.0
 10
211.528084
 20
229.894462
 30
0.0
 10
210.405942
 20
229.476823
 30
0.0
 10
210.174410
 20
229.476842
 30
0.0
  0
SPLINE
  5
141
100
AcDbEntity
  8
newlayer
 62
1
100
AcDbSpline
 70
8
 71
3
 72
8
 73
4
 74
0
 40
0
 40
0
 40
0
 40
0
 40
1
 40
1
 40
1
 40
1
 10
210.174410
 20
229.476842
 30
0.0
 10
210.135809
 20
229.692833
 30
0.0
 10
210.116712
 20
230.065674
 30
0.0
 10
210.116721
 20
230.590288
 30
0.0
  0
SPLINE
  5
142
100
AcDbEntity
  8
newlayer
 62
1
100
AcDbSpline
 70
8
 71
3
 72
8
 73
4
 74
0
 40
0
 40
0
 40
0
 40
0
 40
1
 40
1
 40
1
 40
1
 10
210.116721
 20
230.590288
 30
0.0
 10
210.116712
 20
231.269155
 30
0.0
 10
209.154570
 20
231.609721
 30
0.0
 10
207.225068
 20
231.609741
 30
0.0
  0
SPLINE
  5
143
100
AcDbEntity
  8
newlayer
 62
1
100
AcDbSpline
 70
8
 71
3
 72
8
 73
4
 74
0
 40
0
 40
0
 40
0
 40
0
 40
1
 40
1
 40
1
 40
1
 10
207.225068
 20
231.609741
 30
0.0
 10
206.337487
 20
231.609721
 30
0.0
 10
206.072071
 20
231.390652
 30
0.0
 10
205.840535
 20
230.619208
 30
0.0
  0
SPLINE
  5
144
100
AcDbEntity
  8
newlayer
 62
1
100
AcDbSpline
 70
8
 71
3
 72
8
 73
4
 74
0
 40
0
 40
0
 40
0
 40
0
 40
1
 40
1
 40
1
 40
1
 10
205.840535
 20
230.619208
 30
0.0
 10
205.656155
 20
229.995161
 30
0.0
 10
205.685978
 20
229.518191
 30
0.0
 10
205.660258
 20
228.949039
 30
0.0
  0
SPLINE
  5
145
100
AcDbEntity
  8
newlayer
 62
1
100
AcDbSpline
 70
8
 71
3
 72
8
 73
4
 74
0
 40
0
 40
0
 40
0
 40
0
 40
1
 40
1
 40
1
 40
1
 10
205.660258
 20
228.949039
 30
0.0
 10
205.621664
 20
227.570669
 30
0.0
 10
205.638620
 20
227.715269
 30
0.0
 10
205.638624
 20
227.098116
 30
0.0
  0
SPLINE
  5
146
100
AcDbEntity
  8
newlayer
 62
1
100
AcDbSpline
 70
8
 71
3
 72
8
 73
4
 74
0
 40
0
 40
0
 40
0
 40
0
 40
1
 40
1
 40
1
 40
1
 10
205.638624
 20
227.098116
 30
0.0
 10
205.638624
 20
227.088482
 30
0.0
 10
205.638609
 20
227.092595
 30
0.0
 10
205.638624
 20
227.083655
 30
0.0
  0
SPLINE
  5
147
100
AcDbEntity
  8
newlayer
 62
1
100
AcDbSpline
 70
8
 71
3
 72
8
 73
4
 74
0
 40
0
 40
0
 40
0
 40
0
 40
1
 40
1
 40
1
 40
1
 10
205.638624
 20
227.083655
 30
0.0
 10
205.636572
 20
227.076030
 30
0.0
 10
205.634144
 20
227.072199
 30
0.0
 10
205.631414
 20
227.054734
 30
0.0
  0
LWPOLYLINE
  5
148
100
AcDbEntity
  8
newlayer
 62
1
100
AcDbPolyline
 90
1
 70
1
 10
211.876231
 20
237.849377
 30
0.0
  0
SPLINE
  5
149
100
AcDbEntity
  8
newlayer
 62
1
100
AcDbSpline
 70
8
 71
3
 72
8
 73
4
 74
0
 40
0
 40
0
 40
0
 40
0
 40
1
 40
1
 40
1
 40
1
 10
205.660258
 20
216.375774
 30
0.0
 10
205.661157
 20
213.468968
 30
0.0
 10
205.768872
 20
211.921955
 30
0.0
 10
206.229936
 20
211.676163
 30
0.0
  0
SPLINE
  5
14a
100
AcDbEntity
  8
newlayer
 62
1
100
AcDbSpline
 70
8
 71
3
 72
8
 73
4
 74
0
 40
0
 40
0
 40
0
 40
0
 40
1
 40
1
 40
1
 40
1
 10
206.229936
 20
211.676163
 30
0.0
 10
206.461472
 20
211.552730
 30
0.0
 10
206.413095
 20
211.423109
 30
0.0
 10
207.686579
 20
211.423109
 30
0.0
  0
SPLINE
  5
14b
100
AcDbEntity
  8
newlayer
 62
1
100
AcDbSpline
 70
8
 71
3
 72
8
 73
4
 74
0
 40
0
 40
0
 40
0
 40
0
 40
1
 40
1
 40
1
 40
1
 10
207.686579
 20
211.423109
 30
0.0
 10
208.998638
 20
211.423109
 30
0.0
 10
209.807991
 20
211.629282
 30
0.0
 10
210.116722
 20
212.030442
 30
0.0
  0
SPLINE
  5
14c
100
AcDbEntity
  8
newlayer
 62
1
100
AcDbSpline
 70
8
 71
3
 72
8
 73
4
 74
0
 40
0
 40
0
 40
0
 40
0
 40
1
 40
1
 40
1
 40
1
 10
210.116722
 20
212.030442
 30
0.0
 10
210.271073
 20
212.277307
 30
0.0
 10
210.347467
 20
212.521050
 30
0.0
 10
210.347477
 20
212.767919
 30
0.0
  0
SPLINE
  5
14d
100
AcDbEntity
  8
newlayer
 62
1
100
AcDbSpline
 70
8
 71
3
 72
8
 73
4
 74
0
 40
0
 40
0
 40
0
 40
0
 40
1
 40
1
 40
1
 40
1
 10
210.347477
 20
212.767919
 30
0.0
 10
210.386056
 20
213.014786
 30
0.0
 10
210.405156
 20
213.323079
 30
0.0
 10
210.405166
 20
213.693381
 30
0.0
  0
SPLINE
  5
14e
100
AcDbEntity
  8
newlayer
 62
1
100
AcDbSpline
 70
8
 71
3
 72
8
 73
4
 74
0
 40
0
 40
0
 40
0
 40
0
 40
1
 40
1
 40
1
 40
1
 10
210.405166
 20
213.693381
 30
0.0
 10
210.405156
 20
214.094539
 30
0.0
 10
210.405156
 20
214.358033
 30
0.0
 10
210.405166
 20
214.481469
 30
0.0
  0
LWPOLYLINE
  5
14f
100
AcDbEntity
  8
newlayer
 62
1
100
AcDbPolyline
 90
2
 70
0
 10
205.631414
 20
227.054734
 30
0.0
 10
205.660258
 20
216.375774
 30
0.0
  0
SPLINE
  5
150
100
AcDbEntity
  8
newlayer
 62
1
100
AcDbSpline
 70
8
 71
3
 72
8
 73
4
 74
0
 40
0
 40
0
 40
0
 40
0
 40
1
 40
1
 40
1
 40
1
 10
210.289788
 20
226.049740
 30
0.0
 10
210.521319
 20
226.358311
 30
0.0
 10
210.948700
 20
226.609282
 30
0.0
 10
211.566154
 20
226.794448
 30
0.0
  0
SPLINE
  5
151
100
AcDbEntity
  8
newlayer
 62
1
100
AcDbSpline
 70
8
 71
3
 72
8
 73
4
 74
0
 40
0
 40
0
 40
0
 40
0
 40
1
 40
1
 40
1
 40
1
 10
211.566154
 20
226.794448
 30
0.0
 10
211.874865
 20
226.887008
 30
0.0
 10
212.161344
 20
226.976603
 30
0.0
 10
212.431487
 20
227.069194
 30
0.0
  0
SPLINE
  5
152
100
AcDbEntity
  8
newlayer
 62
1
100
AcDbSpline
 70
8
 71
3
 72
8
 73
4
 74
0
 40
0
 40
0
 40
0
 40
0
 40
1
 40
1
 40
1
 40
1
 10
212.431487
 20
227.069194
 30
0.0
 10
212.740196
 20
227.161754
 30
0.0
 10
213.110284
 20
227.238827
 30
0.0
 10
213.534786
 20
227.300560
 30
0.0
  0
SPLINE
  5
153
100
AcDbEntity
  8
newlayer
 62
1
100
AcDbSpline
 70
8
 71
3
 72
8
 73
4
 74
0
 40
0
 40
0
 40
0
 40
0
 40
1
 40
1
 40
1
 40
1
 10
213.534786
 20
227.300560
 30
0.0
 10
213.997860
 20
227.393119
 30
0.0
 10
214.379824
 20
227.457670
 30
0.0
 10
214.688562
 20
227.488544
 30
0.0
  0
SPLINE
  5
154
100
AcDbEntity
  8
newlayer
 62
1
100
AcDbSpline
 70
8
 71
3
 72
8
 73
4
 74
0
 40
0
 40
0
 40
0
 40
0
 40
1
 40
1
 40
1
 40
1
 10
214.688562
 20
227.488544
 30
0.0
 10
214.997267
 20
227.550245
 30
0.0
 10
215.424651
 20
227.614795
 30
0.0
 10
215.964929
 20
227.676529
 30
0.0
  0
SPLINE
  5
155
100
AcDbEntity
  8
newlayer
 62
1
100
AcDbSpline
 70
8
 71
3
 72
8
 73
4
 74
0
 40
0
 40
0
 40
0
 40
0
 40
1
 40
1
 40
1
 40
1
 10
215.964929
 20
227.676529
 30
0.0
 10
216.505175
 20
227.769088
 30
0.0
 10
216.906250
 20
227.826408
 30
0.0
 10
217.176394
 20
227.857283
 30
0.0
  0
SPLINE
  5
156
100
AcDbEntity
  8
newlayer
 62
1
100
AcDbSpline
 70
8
 71
3
 72
8
 73
4
 74
0
 40
0
 40
0
 40
0
 40
0
 40
1
 40
1
 40
1
 40
1
 10
217.176394
 20
227.857283
 30
0.0
 10
217.485101
 20
227.888125
 30
0.0
 10
217.931579
 20
227.932923
 30
0.0
 10
218.510449
 20
227.994656
 30
0.0
  0
SPLINE
  5
157
100
AcDbEntity
  8
newlayer
 62
1
100
AcDbSpline
 70
8
 71
3
 72
8
 73
4
 74
0
 40
0
 40
0
 40
0
 40
0
 40
1
 40
1
 40
1
 40
1
 10
218.510449
 20
227.994656
 30
0.0
 10
219.127876
 20
228.056356
 30
0.0
 10
219.548050
 20
228.108384
 30
0.0
 10
219.779603
 20
228.139259
 30
0.0
  0
SPLINE
  5
158
100
AcDbEntity
  8
newlayer
 62
1
100
AcDbSpline
 70
8
 71
3
 72
8
 73
4
 74
0
 40
0
 40
0
 40
0
 40
0
 40
1
 40
1
 40
1
 40
1
 10
219.779603
 20
228.139259
 30
0.0
 10
220.049722
 20
228.571262
 30
0.0
 10
220.190616
 20
229.200366
 30
0.0
 10
220.190636
 20
230.033564
 30
0.0
  0
SPLINE
  5
159
100
AcDbEntity
  8
newlayer
 62
1
100
AcDbSpline
 70
8
 71
3
 72
8
 73
4
 74
0
 40
0
 40
0
 40
0
 40
0
 40
1
 40
1
 40
1
 40
1
 10
220.190636
 20
230.033564
 30
0.0
 10
220.190616
 20
230.866725
 30
0.0
 10
220.068814
 20
231.393711
 30
0.0
 10
219.837293
 20
231.609741
 30
0.0
  0
SPLINE
  5
15a
100
AcDbEntity
  8
newlayer
 62
1
100
AcDbSpline
 70
8
 71
3
 72
8
 73
4
 74
0
 40
0
 40
0
 40
0
 40
0
 40
1
 40
1
 40
1
 40
1
 10
219.837293
 20
231.609741
 30
0.0
 10
219.644321
 20
231.856589
 30
0.0
 10
219.262348
 20
231.978459
 30
0.0
 10
218.683516
 20
231.978479
 30
0.0
  0
LWPOLYLINE
  5
15b
100
AcDbEntity
  8
newlayer
 62
1
100
AcDbPolyline
 90
4
 70
0
 10
210.405166
 20
214.481469
 30
0.0
 10
210.405166
 20
215.175566
 30
0.0
 10
210.289788
 20
223.041990
 30
0.0
 10
210.289788
 20
226.049740
 30
0.0
  0
SPLINE
  5
15c
100
AcDbEntity
  8
newlayer
 62
1
100
AcDbSpline
 70
8
 71
3
 72
8
 73
4
 74
0
 40
0
 40
0
 40
0
 40
0
 40
1
 40
1
 40
1
 40
1
 10
138.363918
 20
274.678440
 30
0.0
 10
133.794468
 20
274.620341
 30
0.0
 10
130.104014
 20
270.882085
 30
0.0
 10
130.104014
 20
266.286889
 30
0.0
  0
SPLINE
  5
15d
100
AcDbEntity
  8
newlayer
 62
1
100
AcDbSpline
 70
8
 71
3
 72
8
 73
4
 74
0
 40
0
 40
0
 40
0
 40
0
 40
1
 40
1
 40
1
 40
1
 10
130.104014
 20
266.286889
 30
0.0
 10
130.104014
 20
261.655511
 30
0.0
 10
133.854019
 20
257.898300
 30
0.0
 10
138.473223
 20
257.898300
 30
0.0
  0
SPLINE
  5
15e
100
AcDbEntity
  8
newlayer
 62
1
100
AcDbSpline
 70
8
 71
3
 72
8
 73
4
 74
0
 40
0
 40
0
 40
0
 40
0
 40
1
 40
1
 40
1
 40
1
 10
138.473223
 20
257.898300
 30
0.0
 10
143.092427
 20
257.898300
 30
0.0
 10
146.839479
 20
261.655511
 30
0.0
 10
146.839478
 20
266.286889
 30
0.0
  0
SPLINE
  5
15f
100
AcDbEntity
  8
newlayer
 62
1
100
AcDbSpline
 70
8
 71
3
 72
8
 73
4
 74
0
 40
0
 40
0
 40
0
 40
0
 40
1
 40
1
 40
1
 40
1
 10
146.839478
 20
266.286889
 30
0.0
 10
146.839478
 20
266.323073
 30
0.0
 10
146.840139
 20
266.360410
 30
0.0
 10
146.839478
 20
266.396486
 30
0.0
  0
LWPOLYLINE
  5
160
100
AcDbEntity
  8
newlayer
 62
1
100
AcDbPolyline
 90
1
 70
1
 10
218.683516
 20
231.978479
 30
0.0
  0
SPLINE
  5
161
100
AcDbEntity
  8
newlayer
 62
1
100
AcDbSpline
 70
8
 71
3
 72
8
 73
4
 74
0
 40
0
 40
0
 40
0
 40
0
 40
1
 40
1
 40
1
 40
1
 10
146.839478
 20
273.007832
 30
0.0
 10
146.821149
 20
273.928788
 30
0.0
 10
146.073968
 20
274.671502
 30
0.0
 10
145.152637
 20
274.678440
 30
0.0
  0
LWPOLYLINE
  5
162
100
AcDbEntity
  8
newlayer
 62
1
100
AcDbPolyline
 90
2
 70
0
 10
146.839478
 20
266.396486
 30
0.0
 10
146.839478
 20
273.007832
 30
0.0
  0
SPLINE
  5
163
100
AcDbEntity
  8
newlayer
 62
1
100
AcDbSpline
 70
8
 71
3
 72
8
 73
4
 74
0
 40
0
 40
0
 40
0
 40
0
 40
1
 40
1
 40
1
 40
1
 10
138.434818
 20
274.678440
 30
0.0
 10
138.411588
 20
274.678440
 30
0.0
 10
138.387183
 20
274.678739
 30
0.0
 10
138.363918
 20
274.678440
 30
0.0
  0
LWPOLYLINE
  5
164
100
AcDbEntity
  8
newlayer
 62
1
100
AcDbPolyline
 90
3
 70
0
 10
145.152637
 20
274.678440
 30
0.0
 10
138.473223
 20
274.678440
 30
0.0
 10
138.434818
 20
274.678440
 30
0.0
  0
SPLINE
  5
165
100
AcDbEntity
  8
newlayer
 62
1
100
AcDbSpline
 70
8
 71
3
 72
8
 73
4
 74
0
 40
0
 40
0
 40
0
 40
0
 40
1
 40
1
 40
1
 40
1
 10
144.742005
 20
273.961619
 30
0.0
 10
144.946214
 20
273.961616
 30
0.0
 10
145.122049
 20
273.917666
 30
0.0
 10
145.258988
 20
273.822401
 30
0.0
  0
SPLINE
  5
166
100
AcDbEntity
  8
newlayer
 62
1
100
AcDbSpline
 70
8
 71
3
 72
8
 73
4
 74
0
 40
0
 40
0
 40
0
 40
0
 40
1
 40
1
 40
1
 40
1
 10
145.258988
 20
273.822401
 30
0.0
 10
145.397547
 20
273.728837
 30
0.0
 10
145.477597
 20
273.578070
 30
0.0
 10
145.477598
 20
273.410673
 30
0.0
  0
SPLINE
  5
167
100
AcDbEntity
  8
newlayer
 62
1
100
AcDbSpline
 70
8
 71
3
 72
8
 73
4
 74
0
 40
0
 40
0
 40
0
 40
0
 40
1
 40
1
 40
1
 40
1
 10
145.477598
 20
273.410673
 30
0.0
 10
145.477597
 20
273.311631
 30
0.0
 10
145.451436
 20
273.212095
 30
0.0
 10
145.406698
 20
273.114466
 30
0.0
  0
SPLINE
  5
168
100
AcDbEntity
  8
newlayer
 62
1
100
AcDbSpline
 70
8
 71
3
 72
8
 73
4
 74
0
 40
0
 40
0
 40
0
 40
0
 40
1
 40
1
 40
1
 40
1
 10
145.406698
 20
273.114466
 30
0.0
 10
145.364452
 20
273.024771
 30
0.0
 10
145.317621
 20
272.947597
 30
0.0
 10
145.264897
 20
272.886386
 30
0.0
  0
SPLINE
  5
169
100
AcDbEntity
  8
newlayer
 62
1
100
AcDbSpline
 70
8
 71
3
 72
8
 73
4
 74
0
 40
0
 40
0
 40
0
 40
0
 40
1
 40
1
 40
1
 40
1
 10
145.264897
 20
272.886386
 30
0.0
 10
145.226291
 20
272.843606
 30
0.0
 10
145.185715
 20
272.799973
 30
0.0
 10
145.143775
 20
272.759017
 30
0.0
  0
SPLINE
  5
16a
100
AcDbEntity
  8
newlayer
 62
1
100
AcDbSpline
 70
8
 71
3
 72
8
 73
4
 74
0
 40
0
 40
0
 40
0
 40
0
 40
1
 40
1
 40
1
 40
1
 10
145.143775
 20
272.759017
 30
0.0
 10
145.261431
 20
272.692779
 30
0.0
 10
145.360914
 20
272.609268
 30
0.0
 10
145.436239
 20
272.504279
 30
0.0
  0
LWPOLYLINE
  5
16b
100
AcDbEntity
  8
newlayer
 62
1
100
AcDbPolyline
 90
1
 70
1
 10
138.363918
 20
274.678440
 30
0.0
  0
SPLINE
  5
16c
100
AcDbEntity
  8
newlayer
 62
1
100
AcDbSpline
 70
8
 71
3
 72
8
 73
4
 74
0
 40
0
 40
0
 40
0
 40
0
 40
1
 40
1
 40
1
 40
1
 10
145.439196
 20
272.504279
 30
0.0
 10
145.439574
 20
272.503635
 30
0.0
 10
145.438818
 20
272.499000
 30
0.0
 10
145.439196
 20
272.498355
 30
0.0
  0
SPLINE
  5
16d
100
AcDbEntity
  8
newlayer
 62
1
100
AcDbSpline
 70
8
 71
3
 72
8
 73
4
 74
0
 40
0
 40
0
 40
0
 40
0
 40
1
 40
1
 40
1
 40
1
 10
145.439196
 20
272.498355
 30
0.0
 10
145.528227
 20
272.378256
 30
0.0
 10
145.572133
 20
272.234914
 30
0.0
 10
145.572134
 20
272.080702
 30
0.0
  0
SPLINE
  5
16e
100
AcDbEntity
  8
newlayer
 62
1
100
AcDbSpline
 70
8
 71
3
 72
8
 73
4
 74
0
 40
0
 40
0
 40
0
 40
0
 40
1
 40
1
 40
1
 40
1
 10
145.572134
 20
272.080702
 30
0.0
 10
145.572133
 20
271.795829
 30
0.0
 10
145.454260
 20
271.556100
 30
0.0
 10
145.232403
 20
271.396464
 30
0.0
  0
SPLINE
  5
16f
100
AcDbEntity
  8
newlayer
 62
1
100
AcDbSpline
 70
8
 71
3
 72
8
 73
4
 74
0
 40
0
 40
0
 40
0
 40
0
 40
1
 40
1
 40
1
 40
1
 10
145.232403
 20
271.396464
 30
0.0
 10
145.018945
 20
271.241046
 30
0.0
 10
144.756158
 20
271.157455
 30
0.0
 10
144.455452
 20
271.147650
 30
0.0
  0
SPLINE
  5
170
100
AcDbEntity
  8
newlayer
 62
1
100
AcDbSpline
 70
8
 71
3
 72
8
 73
4
 74
0
 40
0
 40
0
 40
0
 40
0
 40
1
 40
1
 40
1
 40
1
 10
144.455452
 20
271.147650
 30
0.0
 10
144.455452
 20
271.147650
 30
0.0
 10
144.452968
 20
271.147741
 30
0.0
 10
144.452496
 20
271.147650
 30
0.0
  0
SPLINE
  5
171
100
AcDbEntity
  8
newlayer
 62
1
100
AcDbSpline
 70
8
 71
3
 72
8
 73
4
 74
0
 40
0
 40
0
 40
0
 40
0
 40
1
 40
1
 40
1
 40
1
 10
144.452496
 20
271.147650
 30
0.0
 10
144.378269
 20
271.147650
 30
0.0
 10
144.305065
 20
271.185225
 30
0.0
 10
144.254565
 20
271.239474
 30
0.0
  0
SPLINE
  5
172
100
AcDbEntity
  8
newlayer
 62
1
100
AcDbSpline
 70
8
 71
3
 72
8
 73
4
 74
0
 40
0
 40
0
 40
0
 40
0
 40
1
 40
1
 40
1
 40
1
 10
144.254565
 20
271.239474
 30
0.0
 10
144.214630
 20
271.282593
 30
0.0
 10
144.177755
 20
271.329464
 30
0.0
 10
144.177755
 20
271.399426
 30
0.0
  0
SPLINE
  5
173
100
AcDbEntity
  8
newlayer
 62
1
100
AcDbSpline
 70
8
 71
3
 72
8
 73
4
 74
0
 40
0
 40
0
 40
0
 40
0
 40
1
 40
1
 40
1
 40
1
 10
144.177755
 20
271.399426
 30
0.0
 10
144.177755
 20
271.431654
 30
0.0
 10
144.179069
 20
271.463919
 30
0.0
 10
144.186616
 20
271.494212
 30
0.0
  0
LWPOLYLINE
  5
174
100
AcDbEntity
  8
newlayer
 62
1
100
AcDbPolyline
 90
2
 70
0
 10
145.436239
 20
272.504279
 30
0.0
 10
145.439196
 20
272.504279
 30
0.0
  0
SPLINE
  5
175
100
AcDbEntity
  8
newlayer
 62
1
100
AcDbSpline
 70
8
 71
3
 72
8
 73
4
 74
0
 40
0
 40
0
 40
0
 40
0
 40
1
 40
1
 40
1
 40
1
 10
144.292968
 20
271.580112
 30
0.0
 10
144.552625
 20
271.588863
 30
0.0
 10
144.736084
 20
271.645520
 30
0.0
 10
144.845400
 20
271.731178
 30
0.0
  0
SPLINE
  5
176
100
AcDbEntity
  8
newlayer
 62
1
100
AcDbSpline
 70
8
 71
3
 72
8
 73
4
 74
0
 40
0
 40
0
 40
0
 40
0
 40
1
 40
1
 40
1
 40
1
 10
144.845400
 20
271.731178
 30
0.0
 10
144.954717
 20
271.816835
 30
0.0
 10
145.004926
 20
271.930305
 30
0.0
 10
145.004926
 20
272.110323
 30
0.0
  0
SPLINE
  5
177
100
AcDbEntity
  8
newlayer
 62
1
100
AcDbSpline
 70
8
 71
3
 72
8
 73
4
 74
0
 40
0
 40
0
 40
0
 40
0
 40
1
 40
1
 40
1
 40
1
 10
145.004926
 20
272.110323
 30
0.0
 10
145.004925
 20
272.286246
 30
0.0
 10
144.935277
 20
272.390294
 30
0.0
 10
144.744958
 20
272.474658
 30
0.0
  0
SPLINE
  5
178
100
AcDbEntity
  8
newlayer
 62
1
100
AcDbSpline
 70
8
 71
3
 72
8
 73
4
 74
0
 40
0
 40
0
 40
0
 40
0
 40
1
 40
1
 40
1
 40
1
 10
144.744958
 20
272.474658
 30
0.0
 10
144.695550
 20
272.496949
 30
0.0
 10
144.657044
 20
272.517085
 30
0.0
 10
144.623836
 20
272.539823
 30
0.0
  0
SPLINE
  5
179
100
AcDbEntity
  8
newlayer
 62
1
100
AcDbSpline
 70
8
 71
3
 72
8
 73
4
 74
0
 40
0
 40
0
 40
0
 40
0
 40
1
 40
1
 40
1
 40
1
 10
144.623836
 20
272.539823
 30
0.0
 10
144.590628
 20
272.562562
 30
0.0
 10
144.546399
 20
272.581698
 30
0.0
 10
144.538165
 20
272.664230
 30
0.0
  0
LWPOLYLINE
  5
17a
100
AcDbEntity
  8
newlayer
 62
1
100
AcDbPolyline
 90
3
 70
0
 10
144.186616
 20
271.494212
 30
0.0
 10
144.210250
 20
271.577150
 30
0.0
 10
144.292968
 20
271.580112
 30
0.0
  0
SPLINE
  5
17b
100
AcDbEntity
  8
newlayer
 62
1
100
AcDbSpline
 70
8
 71
3
 72
8
 73
4
 74
0
 40
0
 40
0
 40
0
 40
0
 40
1
 40
1
 40
1
 40
1
 10
144.555888
 20
272.735320
 30
0.0
 10
144.583640
 20
272.778604
 30
0.0
 10
144.627635
 20
272.834680
 30
0.0
 10
144.697689
 20
272.918969
 30
0.0
  0
LWPOLYLINE
  5
17c
100
AcDbEntity
  8
newlayer
 62
1
100
AcDbPolyline
 90
3
 70
0
 10
144.538165
 20
272.664230
 30
0.0
 10
144.535208
 20
272.702737
 30
0.0
 10
144.555888
 20
272.735320
 30
0.0
  0
SPLINE
  5
17d
100
AcDbEntity
  8
newlayer
 62
1
100
AcDbSpline
 70
8
 71
3
 72
8
 73
4
 74
0
 40
0
 40
0
 40
0
 40
0
 40
1
 40
1
 40
1
 40
1
 10
144.697689
 20
272.921930
 30
0.0
 10
144.764909
 20
273.000198
 30
0.0
 10
144.817642
 20
273.073812
 30
0.0
 10
144.854261
 20
273.141124
 30
0.0
  0
LWPOLYLINE
  5
17e
100
AcDbEntity
  8
newlayer
 62
1
100
AcDbPolyline
 90
2
 70
0
 10
144.697689
 20
272.918969
 30
0.0
 10
144.697689
 20
272.921930
 30
0.0
  0
SPLINE
  5
17f
100
AcDbEntity
  8
newlayer
 62
1
100
AcDbSpline
 70
8
 71
3
 72
8
 73
4
 74
0
 40
0
 40
0
 40
0
 40
0
 40
1
 40
1
 40
1
 40
1
 10
144.854261
 20
273.144086
 30
0.0
 10
144.888856
 20
273.204331
 30
0.0
 10
144.904480
 20
273.261781
 30
0.0
 10
144.904481
 20
273.327734
 30
0.0
  0
SPLINE
  5
180
100
AcDbEntity
  8
newlayer
 62
1
100
AcDbSpline
 70
8
 71
3
 72
8
 73
4
 74
0
 40
0
 40
0
 40
0
 40
0
 40
1
 40
1
 40
1
 40
1
 10
144.904481
 20
273.327734
 30
0.0
 10
144.904480
 20
273.386543
 30
0.0
 10
144.889861
 20
273.419419
 30
0.0
 10
144.851307
 20
273.455103
 30
0.0
  0
SPLINE
  5
181
100
AcDbEntity
  8
newlayer
 62
1
100
AcDbSpline
 70
8
 71
3
 72
8
 73
4
 74
0
 40
0
 40
0
 40
0
 40
0
 40
1
 40
1
 40
1
 40
1
 10
144.851307
 20
273.455103
 30
0.0
 10
144.818009
 20
273.485919
 30
0.0
 10
144.765085
 20
273.511381
 30
0.0
 10
144.668147
 20
273.511383
 30
0.0
  0
SPLINE
  5
182
100
AcDbEntity
  8
newlayer
 62
1
100
AcDbSpline
 70
8
 71
3
 72
8
 73
4
 74
0
 40
0
 40
0
 40
0
 40
0
 40
1
 40
1
 40
1
 40
1
 10
144.668147
 20
273.511383
 30
0.0
 10
144.651175
 20
273.511382
 30
0.0
 10
144.588111
 20
273.500944
 30
0.0
 10
144.499759
 20
273.478800
 30
0.0
  0
SPLINE
  5
183
100
AcDbEntity
  8
newlayer
 62
1
100
AcDbSpline
 70
8
 71
3
 72
8
 73
4
 74
0
 40
0
 40
0
 40
0
 40
0
 40
1
 40
1
 40
1
 40
1
 10
144.499759
 20
273.478800
 30
0.0
 10
144.453112
 20
273.467106
 30
0.0
 10
144.415943
 20
273.458341
 30
0.0
 10
144.387500
 20
273.452141
 30
0.0
  0
SPLINE
  5
184
100
AcDbEntity
  8
newlayer
 62
1
100
AcDbSpline
 70
8
 71
3
 72
8
 73
4
 74
0
 40
0
 40
0
 40
0
 40
0
 40
1
 40
1
 40
1
 40
1
 10
144.387500
 20
273.452141
 30
0.0
 10
144.359056
 20
273.445941
 30
0.0
 10
144.351929
 20
273.440287
 30
0.0
 10
144.313645
 20
273.440293
 30
0.0
  0
SPLINE
  5
185
100
AcDbEntity
  8
newlayer
 62
1
100
AcDbSpline
 70
8
 71
3
 72
8
 73
4
 74
0
 40
0
 40
0
 40
0
 40
0
 40
1
 40
1
 40
1
 40
1
 10
144.313645
 20
273.440293
 30
0.0
 10
144.243375
 20
273.440282
 30
0.0
 10
144.217291
 20
273.465250
 30
0.0
 10
144.180707
 20
273.490648
 30
0.0
  0
LWPOLYLINE
  5
186
100
AcDbEntity
  8
newlayer
 62
1
100
AcDbPolyline
 90
2
 70
0
 10
144.854261
 20
273.141124
 30
0.0
 10
144.854261
 20
273.144086
 30
0.0
  0
SPLINE
  5
187
100
AcDbEntity
  8
newlayer
 62
1
100
AcDbSpline
 70
8
 71
3
 72
8
 73
4
 74
0
 40
0
 40
0
 40
0
 40
0
 40
1
 40
1
 40
1
 40
1
 10
144.174793
 20
273.496572
 30
0.0
 10
144.132970
 20
273.531512
 30
0.0
 10
144.092076
 20
273.582260
 30
0.0
 10
144.092076
 20
273.650599
 30
0.0
  0
SPLINE
  5
188
100
AcDbEntity
  8
newlayer
 62
1
100
AcDbSpline
 70
8
 71
3
 72
8
 73
4
 74
0
 40
0
 40
0
 40
0
 40
0
 40
1
 40
1
 40
1
 40
1
 10
144.092076
 20
273.650599
 30
0.0
 10
144.092076
 20
273.726804
 30
0.0
 10
144.140649
 20
273.774190
 30
0.0
 10
144.183656
 20
273.804627
 30
0.0
  0
SPLINE
  5
189
100
AcDbEntity
  8
newlayer
 62
1
100
AcDbSpline
 70
8
 71
3
 72
8
 73
4
 74
0
 40
0
 40
0
 40
0
 40
0
 40
1
 40
1
 40
1
 40
1
 10
144.183656
 20
273.804627
 30
0.0
 10
144.226661
 20
273.835064
 30
0.0
 10
144.276416
 20
273.860766
 30
0.0
 10
144.340228
 20
273.884603
 30
0.0
  0
SPLINE
  5
18a
100
AcDbEntity
  8
newlayer
 62
1
100
AcDbSpline
 70
8
 71
3
 72
8
 73
4
 74
0
 40
0
 40
0
 40
0
 40
0
 40
1
 40
1
 40
1
 40
1
 10
144.340228
 20
273.884603
 30
0.0
 10
144.471825
 20
273.935348
 30
0.0
 10
144.605894
 20
273.961614
 30
0.0
 10
144.741997
 20
273.961617
 30
0.0
  0
LWPOLYLINE
  5
18b
100
AcDbEntity
  8
newlayer
 62
1
100
AcDbPolyline
 90
3
 70
0
 10
144.180707
 20
273.490648
 30
0.0
 10
144.177750
 20
273.493610
 30
0.0
 10
144.174793
 20
273.496572
 30
0.0
  0
SPLINE
  5
18c
100
AcDbEntity
  8
newlayer
 62
1
100
AcDbSpline
 70
8
 71
3
 72
8
 73
4
 74
0
 40
0
 40
0
 40
0
 40
0
 40
1
 40
1
 40
1
 40
1
 10
138.514581
 20
272.759017
 30
0.0
 10
140.072748
 20
272.745819
 30
0.0
 10
141.614894
 20
272.143526
 30
0.0
 10
142.783380
 20
271.112105
 30
0.0
  0
SPLINE
  5
18d
100
AcDbEntity
  8
newlayer
 62
1
100
AcDbSpline
 70
8
 71
3
 72
8
 73
4
 74
0
 40
0
 40
0
 40
0
 40
0
 40
1
 40
1
 40
1
 40
1
 10
142.783380
 20
271.112105
 30
0.0
 10
144.532465
 20
269.596412
 30
0.0
 10
145.268935
 20
267.078979
 30
0.0
 10
144.774502
 20
264.829549
 30
0.0
  0
SPLINE
  5
18e
100
AcDbEntity
  8
newlayer
 62
1
100
AcDbSpline
 70
8
 71
3
 72
8
 73
4
 74
0
 40
0
 40
0
 40
0
 40
0
 40
1
 40
1
 40
1
 40
1
 10
144.774502
 20
264.829549
 30
0.0
 10
144.342348
 20
262.734940
 30
0.0
 10
142.728250
 20
260.988766
 30
0.0
 10
140.747946
 20
260.241299
 30
0.0
  0
SPLINE
  5
18f
100
AcDbEntity
  8
newlayer
 62
1
100
AcDbSpline
 70
8
 71
3
 72
8
 73
4
 74
0
 40
0
 40
0
 40
0
 40
0
 40
1
 40
1
 40
1
 40
1
 10
140.747946
 20
260.241299
 30
0.0
 10
138.692876
 20
259.409750
 30
0.0
 10
136.222827
 20
259.807505
 30
0.0
 10
134.493934
 20
261.183238
 30
0.0
  0
SPLINE
  5
190
100
AcDbEntity
  8
newlayer
 62
1
100
AcDbSpline
 70
8
 71
3
 72
8
 73
4
 74
0
 40
0
 40
0
 40
0
 40
0
 40
1
 40
1
 40
1
 40
1
 10
134.493934
 20
261.183238
 30
0.0
 10
132.574927
 20
262.653566
 30
0.0
 10
131.645750
 20
265.263742
 30
0.0
 10
132.133540
 20
267.628708
 30
0.0
  0
SPLINE
  5
191
100
AcDbEntity
  8
newlayer
 62
1
100
AcDbSpline
 70
8
 71
3
 72
8
 73
4
 74
0
 40
0
 40
0
 40
0
 40
0
 40
1
 40
1
 40
1
 40
1
 10
132.133540
 20
267.628708
 30
0.0
 10
132.713186
 20
270.494329
 30
0.0
 10
135.441421
 20
272.742430
 30
0.0
 10
138.363918
 20
272.756055
 30
0.0
  0
SPLINE
  5
192
100
AcDbEntity
  8
newlayer
 62
1
100
AcDbSpline
 70
8
 71
3
 72
8
 73
4
 74
0
 40
0
 40
0
 40
0
 40
0
 40
1
 40
1
 40
1
 40
1
 10
138.363918
 20
272.756055
 30
0.0
 10
138.414207
 20
272.756860
 30
0.0
 10
138.464319
 20
272.759442
 30
0.0
 10
138.514581
 20
272.759017
 30
0.0
  0
LWPOLYLINE
  5
193
100
AcDbEntity
  8
newlayer
 62
1
100
AcDbPolyline
 90
1
 70
1
 10
144.741997
 20
273.961617
 30
0.0
  0
SPLINE
  5
194
100
AcDbEntity
  8
newlayer
 62
1
100
AcDbSpline
 70
8
 71
3
 72
8
 73
4
 74
0
 40
0
 40
0
 40
0
 40
0
 40
1
 40
1
 40
1
 40
1
 10
141.303333
 20
270.353815
 30
0.0
 10
140.718381
 20
270.353806
 30
0.0
 10
140.016124
 20
270.182707
 30
0.0
 10
139.194044
 20
269.841376
 30
0.0
  0
SPLINE
  5
195
100
AcDbEntity
  8
newlayer
 62
1
100
AcDbSpline
 70
8
 71
3
 72
8
 73
4
 74
0
 40
0
 40
0
 40
0
 40
0
 40
1
 40
1
 40
1
 40
1
 10
139.194044
 20
269.841376
 30
0.0
 10
138.371955
 20
269.500029
 30
0.0
 10
137.912245
 20
269.328930
 30
0.0
 10
137.817394
 20
269.328938
 30
0.0
  0
SPLINE
  5
196
100
AcDbEntity
  8
newlayer
 62
1
100
AcDbSpline
 70
8
 71
3
 72
8
 73
4
 74
0
 40
0
 40
0
 40
0
 40
0
 40
1
 40
1
 40
1
 40
1
 10
137.817394
 20
269.328938
 30
0.0
 10
137.801580
 20
269.417425
 30
0.0
 10
137.793756
 20
269.570172
 30
0.0
 10
137.793760
 20
269.785097
 30
0.0
  0
SPLINE
  5
197
100
AcDbEntity
  8
newlayer
 62
1
100
AcDbSpline
 70
8
 71
3
 72
8
 73
4
 74
0
 40
0
 40
0
 40
0
 40
0
 40
1
 40
1
 40
1
 40
1
 10
137.793760
 20
269.785097
 30
0.0
 10
137.793756
 20
270.063217
 30
0.0
 10
137.399594
 20
270.202741
 30
0.0
 10
136.609131
 20
270.202749
 30
0.0
  0
SPLINE
  5
198
100
AcDbEntity
  8
newlayer
 62
1
100
AcDbSpline
 70
8
 71
3
 72
8
 73
4
 74
0
 40
0
 40
0
 40
0
 40
0
 40
1
 40
1
 40
1
 40
1
 10
136.609131
 20
270.202749
 30
0.0
 10
136.245515
 20
270.202741
 30
0.0
 10
136.136781
 20
270.112992
 30
0.0
 10
136.041928
 20
269.796945
 30
0.0
  0
SPLINE
  5
199
100
AcDbEntity
  8
newlayer
 62
1
100
AcDbSpline
 70
8
 71
3
 72
8
 73
4
 74
0
 40
0
 40
0
 40
0
 40
0
 40
1
 40
1
 40
1
 40
1
 10
136.041928
 20
269.796945
 30
0.0
 10
135.966392
 20
269.541284
 30
0.0
 10
135.978610
 20
269.345878
 30
0.0
 10
135.968073
 20
269.112706
 30
0.0
  0
SPLINE
  5
19a
100
AcDbEntity
  8
newlayer
 62
1
100
AcDbSpline
 70
8
 71
3
 72
8
 73
4
 74
0
 40
0
 40
0
 40
0
 40
0
 40
1
 40
1
 40
1
 40
1
 10
135.968073
 20
269.112706
 30
0.0
 10
135.952262
 20
268.548012
 30
0.0
 10
135.959209
 20
268.607253
 30
0.0
 10
135.959210
 20
268.354416
 30
0.0
  0
SPLINE
  5
19b
100
AcDbEntity
  8
newlayer
 62
1
100
AcDbSpline
 70
8
 71
3
 72
8
 73
4
 74
0
 40
0
 40
0
 40
0
 40
0
 40
1
 40
1
 40
1
 40
1
 10
135.959210
 20
268.354416
 30
0.0
 10
135.959210
 20
268.350469
 30
0.0
 10
135.959204
 20
268.352154
 30
0.0
 10
135.959210
 20
268.348491
 30
0.0
  0
SPLINE
  5
19c
100
AcDbEntity
  8
newlayer
 62
1
100
AcDbSpline
 70
8
 71
3
 72
8
 73
4
 74
0
 40
0
 40
0
 40
0
 40
0
 40
1
 40
1
 40
1
 40
1
 10
135.959210
 20
268.348491
 30
0.0
 10
135.958370
 20
268.345367
 30
0.0
 10
135.957375
 20
268.343798
 30
0.0
 10
135.956257
 20
268.336643
 30
0.0
  0
LWPOLYLINE
  5
19d
100
AcDbEntity
  8
newlayer
 62
1
100
AcDbPolyline
 90
1
 70
1
 10
138.514581
 20
272.759017
 30
0.0
  0
SPLINE
  5
19e
100
AcDbEntity
  8
newlayer
 62
1
100
AcDbSpline
 70
8
 71
3
 72
8
 73
4
 74
0
 40
0
 40
0
 40
0
 40
0
 40
1
 40
1
 40
1
 40
1
 10
135.968073
 20
263.961662
 30
0.0
 10
135.968442
 20
262.770795
 30
0.0
 10
136.012569
 20
262.137011
 30
0.0
 10
136.201454
 20
262.036315
 30
0.0
  0
SPLINE
  5
19f
100
AcDbEntity
  8
newlayer
 62
1
100
AcDbSpline
 70
8
 71
3
 72
8
 73
4
 74
0
 40
0
 40
0
 40
0
 40
0
 40
1
 40
1
 40
1
 40
1
 10
136.201454
 20
262.036315
 30
0.0
 10
136.296308
 20
261.985746
 30
0.0
 10
136.276489
 20
261.932643
 30
0.0
 10
136.798200
 20
261.932643
 30
0.0
  0
SPLINE
  5
1a0
100
AcDbEntity
  8
newlayer
 62
1
100
AcDbSpline
 70
8
 71
3
 72
8
 73
4
 74
0
 40
0
 40
0
 40
0
 40
0
 40
1
 40
1
 40
1
 40
1
 10
136.798200
 20
261.932643
 30
0.0
 10
137.335713
 20
261.932643
 30
0.0
 10
137.667282
 20
262.017108
 30
0.0
 10
137.793760
 20
262.181456
 30
0.0
  0
SPLINE
  5
1a1
100
AcDbEntity
  8
newlayer
 62
1
100
AcDbSpline
 70
8
 71
3
 72
8
 73
4
 74
0
 40
0
 40
0
 40
0
 40
0
 40
1
 40
1
 40
1
 40
1
 10
137.793760
 20
262.181456
 30
0.0
 10
137.856993
 20
262.282592
 30
0.0
 10
137.888290
 20
262.382450
 30
0.0
 10
137.888294
 20
262.483588
 30
0.0
  0
SPLINE
  5
1a2
100
AcDbEntity
  8
newlayer
 62
1
100
AcDbSpline
 70
8
 71
3
 72
8
 73
4
 74
0
 40
0
 40
0
 40
0
 40
0
 40
1
 40
1
 40
1
 40
1
 10
137.888294
 20
262.483588
 30
0.0
 10
137.904099
 20
262.584725
 30
0.0
 10
137.911923
 20
262.711027
 30
0.0
 10
137.911928
 20
262.862733
 30
0.0
  0
SPLINE
  5
1a3
100
AcDbEntity
  8
newlayer
 62
1
100
AcDbSpline
 70
8
 71
3
 72
8
 73
4
 74
0
 40
0
 40
0
 40
0
 40
0
 40
1
 40
1
 40
1
 40
1
 10
137.911928
 20
262.862733
 30
0.0
 10
137.911923
 20
263.027080
 30
0.0
 10
137.911923
 20
263.135029
 30
0.0
 10
137.911928
 20
263.185599
 30
0.0
  0
LWPOLYLINE
  5
1a4
100
AcDbEntity
  8
newlayer
 62
1
100
AcDbPolyline
 90
2
 70
0
 10
135.956257
 20
268.336643
 30
0.0
 10
135.968073
 20
263.961662
 30
0.0
  0
SPLINE
  5
1a5
100
AcDbEntity
  8
newlayer
 62
1
100
AcDbSpline
 70
8
 71
3
 72
8
 73
4
 74
0
 40
0
 40
0
 40
0
 40
0
 40
1
 40
1
 40
1
 40
1
 10
137.864661
 20
267.924915
 30
0.0
 10
137.959512
 20
268.051331
 30
0.0
 10
138.134598
 20
268.154149
 30
0.0
 10
138.387552
 20
268.230008
 30
0.0
  0
SPLINE
  5
1a6
100
AcDbEntity
  8
newlayer
 62
1
100
AcDbSpline
 70
8
 71
3
 72
8
 73
4
 74
0
 40
0
 40
0
 40
0
 40
0
 40
1
 40
1
 40
1
 40
1
 10
138.387552
 20
268.230008
 30
0.0
 10
138.514022
 20
268.267929
 30
0.0
 10
138.631384
 20
268.304634
 30
0.0
 10
138.742054
 20
268.342567
 30
0.0
  0
SPLINE
  5
1a7
100
AcDbEntity
  8
newlayer
 62
1
100
AcDbSpline
 70
8
 71
3
 72
8
 73
4
 74
0
 40
0
 40
0
 40
0
 40
0
 40
1
 40
1
 40
1
 40
1
 10
138.742054
 20
268.342567
 30
0.0
 10
138.868523
 20
268.380487
 30
0.0
 10
139.020138
 20
268.412063
 30
0.0
 10
139.194044
 20
268.437353
 30
0.0
  0
SPLINE
  5
1a8
100
AcDbEntity
  8
newlayer
 62
1
100
AcDbSpline
 70
8
 71
3
 72
8
 73
4
 74
0
 40
0
 40
0
 40
0
 40
0
 40
1
 40
1
 40
1
 40
1
 10
139.194044
 20
268.437353
 30
0.0
 10
139.383752
 20
268.475273
 30
0.0
 10
139.540232
 20
268.501719
 30
0.0
 10
139.666714
 20
268.514367
 30
0.0
  0
SPLINE
  5
1a9
100
AcDbEntity
  8
newlayer
 62
1
100
AcDbSpline
 70
8
 71
3
 72
8
 73
4
 74
0
 40
0
 40
0
 40
0
 40
0
 40
1
 40
1
 40
1
 40
1
 10
139.666714
 20
268.514367
 30
0.0
 10
139.793181
 20
268.539645
 30
0.0
 10
139.968268
 20
268.566090
 30
0.0
 10
140.189605
 20
268.591381
 30
0.0
  0
SPLINE
  5
1aa
100
AcDbEntity
  8
newlayer
 62
1
100
AcDbSpline
 70
8
 71
3
 72
8
 73
4
 74
0
 40
0
 40
0
 40
0
 40
0
 40
1
 40
1
 40
1
 40
1
 10
140.189605
 20
268.591381
 30
0.0
 10
140.410929
 20
268.629301
 30
0.0
 10
140.575237
 20
268.652784
 30
0.0
 10
140.685908
 20
268.665433
 30
0.0
  0
SPLINE
  5
1ab
100
AcDbEntity
  8
newlayer
 62
1
100
AcDbSpline
 70
8
 71
3
 72
8
 73
4
 74
0
 40
0
 40
0
 40
0
 40
0
 40
1
 40
1
 40
1
 40
1
 10
140.685908
 20
268.665433
 30
0.0
 10
140.812376
 20
268.678068
 30
0.0
 10
140.995286
 20
268.696421
 30
0.0
 10
141.232432
 20
268.721712
 30
0.0
  0
SPLINE
  5
1ac
100
AcDbEntity
  8
newlayer
 62
1
100
AcDbSpline
 70
8
 71
3
 72
8
 73
4
 74
0
 40
0
 40
0
 40
0
 40
0
 40
1
 40
1
 40
1
 40
1
 10
141.232432
 20
268.721712
 30
0.0
 10
141.485375
 20
268.746990
 30
0.0
 10
141.657508
 20
268.768305
 30
0.0
 10
141.752369
 20
268.780954
 30
0.0
  0
SPLINE
  5
1ad
100
AcDbEntity
  8
newlayer
 62
1
100
AcDbSpline
 70
8
 71
3
 72
8
 73
4
 74
0
 40
0
 40
0
 40
0
 40
0
 40
1
 40
1
 40
1
 40
1
 10
141.752369
 20
268.780954
 30
0.0
 10
141.863029
 20
268.957937
 30
0.0
 10
141.920749
 20
269.215670
 30
0.0
 10
141.920758
 20
269.557017
 30
0.0
  0
SPLINE
  5
1ae
100
AcDbEntity
  8
newlayer
 62
1
100
AcDbSpline
 70
8
 71
3
 72
8
 73
4
 74
0
 40
0
 40
0
 40
0
 40
0
 40
1
 40
1
 40
1
 40
1
 10
141.920758
 20
269.557017
 30
0.0
 10
141.920749
 20
269.898348
 30
0.0
 10
141.870850
 20
270.114245
 30
0.0
 10
141.776003
 20
270.202749
 30
0.0
  0
SPLINE
  5
1af
100
AcDbEntity
  8
newlayer
 62
1
100
AcDbSpline
 70
8
 71
3
 72
8
 73
4
 74
0
 40
0
 40
0
 40
0
 40
0
 40
1
 40
1
 40
1
 40
1
 10
141.776003
 20
270.202749
 30
0.0
 10
141.696948
 20
270.303878
 30
0.0
 10
141.540464
 20
270.353806
 30
0.0
 10
141.303333
 20
270.353814
 30
0.0
  0
LWPOLYLINE
  5
1b0
100
AcDbEntity
  8
newlayer
 62
1
100
AcDbPolyline
 90
4
 70
0
 10
137.911928
 20
263.185599
 30
0.0
 10
137.911928
 20
263.469958
 30
0.0
 10
137.864661
 20
266.692693
 30
0.0
 10
137.864661
 20
267.924915
 30
0.0
  0
SPLINE
  5
1b1
100
AcDbEntity
  8
newlayer
 62
1
100
AcDbSpline
 70
8
 71
3
 72
8
 73
4
 74
0
 40
0
 40
0
 40
0
 40
0
 40
1
 40
1
 40
1
 40
1
 10
25.999696
 20
157.695239
 30
0.0
 10
21.430246
 20
157.637140
 30
0.0
 10
17.739792
 20
153.898884
 30
0.0
 10
17.739792
 20
149.303688
 30
0.0
  0
SPLINE
  5
1b2
100
AcDbEntity
  8
newlayer
 62
1
100
AcDbSpline
 70
8
 71
3
 72
8
 73
4
 74
0
 40
0
 40
0
 40
0
 40
0
 40
1
 40
1
 40
1
 40
1
 10
17.739792
 20
149.303688
 30
0.0
 10
17.739792
 20
144.672310
 30
0.0
 10
21.489797
 20
140.915099
 30
0.0
 10
26.109001
 20
140.915099
 30
0.0
  0
SPLINE
  5
1b3
100
AcDbEntity
  8
newlayer
 62
1
100
AcDbSpline
 70
8
 71
3
 72
8
 73
4
 74
0
 40
0
 40
0
 40
0
 40
0
 40
1
 40
1
 40
1
 40
1
 10
26.109001
 20
140.915099
 30
0.0
 10
30.728205
 20
140.915099
 30
0.0
 10
34.475257
 20
144.672310
 30
0.0
 10
34.475256
 20
149.303688
 30
0.0
  0
SPLINE
  5
1b4
100
AcDbEntity
  8
newlayer
 62
1
100
AcDbSpline
 70
8
 71
3
 72
8
 73
4
 74
0
 40
0
 40
0
 40
0
 40
0
 40
1
 40
1
 40
1
 40
1
 10
34.475256
 20
149.303688
 30
0.0
 10
34.475256
 20
149.339872
 30
0.0
 10
34.475917
 20
149.377209
 30
0.0
 10
34.475256
 20
149.413285
 30
0.0
  0
LWPOLYLINE
  5
1b5
100
AcDbEntity
  8
newlayer
 62
1
100
AcDbPolyline
 90
1
 70
1
 10
141.303333
 20
270.353814
 30
0.0
  0
SPLINE
  5
1b6
100
AcDbEntity
  8
newlayer
 62
1
100
AcDbSpline
 70
8
 71
3
 72
8
 73
4
 74
0
 40
0
 40
0
 40
0
 40
0
 40
1
 40
1
 40
1
 40
1
 10
34.475256
 20
156.024631
 30
0.0
 10
34.456927
 20
156.945587
 30
0.0
 10
33.709746
 20
157.688301
 30
0.0
 10
32.788415
 20
157.695239
 30
0.0
  0
LWPOLYLINE
  5
1b7
100
AcDbEntity
  8
newlayer
 62
1
100
AcDbPolyline
 90
2
 70
0
 10
34.475256
 20
149.413285
 30
0.0
 10
34.475256
 20
156.024631
 30
0.0
  0
SPLINE
  5
1b8
100
AcDbEntity
  8
newlayer
 62
1
100
AcDbSpline
 70
8
 71
3
 72
8
 73
4
 74
0
 40
0
 40
0
 40
0
 40
0
 40
1
 40
1
 40
1
 40
1
 10
26.070596
 20
157.695239
 30
0.0
 10
26.047366
 20
157.695239
 30
0.0
 10
26.022961
 20
157.695538
 30
0.0
 10
25.999696
 20
157.695239
 30
0.0
  0
LWPOLYLINE
  5
1b9
100
AcDbEntity
  8
newlayer
 62
1
100
AcDbPolyline
 90
3
 70
0
 10
32.788415
 20
157.695239
 30
0.0
 10
26.109001
 20
157.695239
 30
0.0
 10
26.070596
 20
157.695239
 30
0.0
  0
SPLINE
  5
1ba
100
AcDbEntity
  8
newlayer
 62
1
100
AcDbSpline
 70
8
 71
3
 72
8
 73
4
 74
0
 40
0
 40
0
 40
0
 40
0
 40
1
 40
1
 40
1
 40
1
 10
32.377783
 20
156.978418
 30
0.0
 10
32.581992
 20
156.978415
 30
0.0
 10
32.757827
 20
156.934465
 30
0.0
 10
32.894766
 20
156.839200
 30
0.0
  0
SPLINE
  5
1bb
100
AcDbEntity
  8
newlayer
 62
1
100
AcDbSpline
 70
8
 71
3
 72
8
 73
4
 74
0
 40
0
 40
0
 40
0
 40
0
 40
1
 40
1
 40
1
 40
1
 10
32.894766
 20
156.839200
 30
0.0
 10
33.033325
 20
156.745636
 30
0.0
 10
33.113375
 20
156.594869
 30
0.0
 10
33.113376
 20
156.427472
 30
0.0
  0
SPLINE
  5
1bc
100
AcDbEntity
  8
newlayer
 62
1
100
AcDbSpline
 70
8
 71
3
 72
8
 73
4
 74
0
 40
0
 40
0
 40
0
 40
0
 40
1
 40
1
 40
1
 40
1
 10
33.113376
 20
156.427472
 30
0.0
 10
33.113375
 20
156.328430
 30
0.0
 10
33.087214
 20
156.228894
 30
0.0
 10
33.042476
 20
156.131265
 30
0.0
  0
SPLINE
  5
1bd
100
AcDbEntity
  8
newlayer
 62
1
100
AcDbSpline
 70
8
 71
3
 72
8
 73
4
 74
0
 40
0
 40
0
 40
0
 40
0
 40
1
 40
1
 40
1
 40
1
 10
33.042476
 20
156.131265
 30
0.0
 10
33.000230
 20
156.041570
 30
0.0
 10
32.953399
 20
155.964396
 30
0.0
 10
32.900675
 20
155.903185
 30
0.0
  0
SPLINE
  5
1be
100
AcDbEntity
  8
newlayer
 62
1
100
AcDbSpline
 70
8
 71
3
 72
8
 73
4
 74
0
 40
0
 40
0
 40
0
 40
0
 40
1
 40
1
 40
1
 40
1
 10
32.900675
 20
155.903185
 30
0.0
 10
32.862069
 20
155.860405
 30
0.0
 10
32.821493
 20
155.816772
 30
0.0
 10
32.779553
 20
155.775816
 30
0.0
  0
SPLINE
  5
1bf
100
AcDbEntity
  8
newlayer
 62
1
100
AcDbSpline
 70
8
 71
3
 72
8
 73
4
 74
0
 40
0
 40
0
 40
0
 40
0
 40
1
 40
1
 40
1
 40
1
 10
32.779553
 20
155.775816
 30
0.0
 10
32.897209
 20
155.709578
 30
0.0
 10
32.996692
 20
155.626067
 30
0.0
 10
33.072017
 20
155.521078
 30
0.0
  0
LWPOLYLINE
  5
1c0
100
AcDbEntity
  8
newlayer
 62
1
100
AcDbPolyline
 90
1
 70
1
 10
25.999696
 20
157.695239
 30
0.0
  0
SPLINE
  5
1c1
100
AcDbEntity
  8
newlayer
 62
1
100
AcDbSpline
 70
8
 71
3
 72
8
 73
4
 74
0
 40
0
 40
0
 40
0
 40
0
 40
1
 40
1
 40
1
 40
1
 10
33.074974
 20
155.521078
 30
0.0
 10
33.075352
 20
155.520434
 30
0.0
 10
33.074596
 20
155.515799
 30
0.0
 10
33.074974
 20
155.515154
 30
0.0
  0
SPLINE
  5
1c2
100
AcDbEntity
  8
newlayer
 62
1
100
AcDbSpline
 70
8
 71
3
 72
8
 73
4
 74
0
 40
0
 40
0
 40
0
 40
0
 40
1
 40
1
 40
1
 40
1
 10
33.074974
 20
155.515154
 30
0.0
 10
33.164005
 20
155.395055
 30
0.0
 10
33.207911
 20
155.251713
 30
0.0
 10
33.207912
 20
155.097501
 30
0.0
  0
SPLINE
  5
1c3
100
AcDbEntity
  8
newlayer
 62
1
100
AcDbSpline
 70
8
 71
3
 72
8
 73
4
 74
0
 40
0
 40
0
 40
0
 40
0
 40
1
 40
1
 40
1
 40
1
 10
33.207912
 20
155.097501
 30
0.0
 10
33.207911
 20
154.812628
 30
0.0
 10
33.090038
 20
154.572899
 30
0.0
 10
32.868181
 20
154.413263
 30
0.0
  0
SPLINE
  5
1c4
100
AcDbEntity
  8
newlayer
 62
1
100
AcDbSpline
 70
8
 71
3
 72
8
 73
4
 74
0
 40
0
 40
0
 40
0
 40
0
 40
1
 40
1
 40
1
 40
1
 10
32.868181
 20
154.413263
 30
0.0
 10
32.654723
 20
154.257845
 30
0.0
 10
32.391936
 20
154.174254
 30
0.0
 10
32.091230
 20
154.164449
 30
0.0
  0
SPLINE
  5
1c5
100
AcDbEntity
  8
newlayer
 62
1
100
AcDbSpline
 70
8
 71
3
 72
8
 73
4
 74
0
 40
0
 40
0
 40
0
 40
0
 40
1
 40
1
 40
1
 40
1
 10
32.091230
 20
154.164449
 30
0.0
 10
32.091230
 20
154.164449
 30
0.0
 10
32.088746
 20
154.164540
 30
0.0
 10
32.088274
 20
154.164449
 30
0.0
  0
SPLINE
  5
1c6
100
AcDbEntity
  8
newlayer
 62
1
100
AcDbSpline
 70
8
 71
3
 72
8
 73
4
 74
0
 40
0
 40
0
 40
0
 40
0
 40
1
 40
1
 40
1
 40
1
 10
32.088274
 20
154.164449
 30
0.0
 10
32.014047
 20
154.164449
 30
0.0
 10
31.940843
 20
154.202024
 30
0.0
 10
31.890343
 20
154.256273
 30
0.0
  0
SPLINE
  5
1c7
100
AcDbEntity
  8
newlayer
 62
1
100
AcDbSpline
 70
8
 71
3
 72
8
 73
4
 74
0
 40
0
 40
0
 40
0
 40
0
 40
1
 40
1
 40
1
 40
1
 10
31.890343
 20
154.256273
 30
0.0
 10
31.850408
 20
154.299392
 30
0.0
 10
31.813533
 20
154.346263
 30
0.0
 10
31.813533
 20
154.416225
 30
0.0
  0
SPLINE
  5
1c8
100
AcDbEntity
  8
newlayer
 62
1
100
AcDbSpline
 70
8
 71
3
 72
8
 73
4
 74
0
 40
0
 40
0
 40
0
 40
0
 40
1
 40
1
 40
1
 40
1
 10
31.813533
 20
154.416225
 30
0.0
 10
31.813533
 20
154.448453
 30
0.0
 10
31.814847
 20
154.480718
 30
0.0
 10
31.822394
 20
154.511011
 30
0.0
  0
LWPOLYLINE
  5
1c9
100
AcDbEntity
  8
newlayer
 62
1
100
AcDbPolyline
 90
2
 70
0
 10
33.072017
 20
155.521078
 30
0.0
 10
33.074974
 20
155.521078
 30
0.0
  0
SPLINE
  5
1ca
100
AcDbEntity
  8
newlayer
 62
1
100
AcDbSpline
 70
8
 71
3
 72
8
 73
4
 74
0
 40
0
 40
0
 40
0
 40
0
 40
1
 40
1
 40
1
 40
1
 10
31.928746
 20
154.596911
 30
0.0
 10
32.188403
 20
154.605662
 30
0.0
 10
32.371862
 20
154.662319
 30
0.0
 10
32.481178
 20
154.747977
 30
0.0
  0
SPLINE
  5
1cb
100
AcDbEntity
  8
newlayer
 62
1
100
AcDbSpline
 70
8
 71
3
 72
8
 73
4
 74
0
 40
0
 40
0
 40
0
 40
0
 40
1
 40
1
 40
1
 40
1
 10
32.481178
 20
154.747977
 30
0.0
 10
32.590495
 20
154.833634
 30
0.0
 10
32.640704
 20
154.947104
 30
0.0
 10
32.640704
 20
155.127122
 30
0.0
  0
SPLINE
  5
1cc
100
AcDbEntity
  8
newlayer
 62
1
100
AcDbSpline
 70
8
 71
3
 72
8
 73
4
 74
0
 40
0
 40
0
 40
0
 40
0
 40
1
 40
1
 40
1
 40
1
 10
32.640704
 20
155.127122
 30
0.0
 10
32.640703
 20
155.303045
 30
0.0
 10
32.571055
 20
155.407093
 30
0.0
 10
32.380736
 20
155.491457
 30
0.0
  0
SPLINE
  5
1cd
100
AcDbEntity
  8
newlayer
 62
1
100
AcDbSpline
 70
8
 71
3
 72
8
 73
4
 74
0
 40
0
 40
0
 40
0
 40
0
 40
1
 40
1
 40
1
 40
1
 10
32.380736
 20
155.491457
 30
0.0
 10
32.331328
 20
155.513748
 30
0.0
 10
32.292822
 20
155.533884
 30
0.0
 10
32.259614
 20
155.556622
 30
0.0
  0
SPLINE
  5
1ce
100
AcDbEntity
  8
newlayer
 62
1
100
AcDbSpline
 70
8
 71
3
 72
8
 73
4
 74
0
 40
0
 40
0
 40
0
 40
0
 40
1
 40
1
 40
1
 40
1
 10
32.259614
 20
155.556622
 30
0.0
 10
32.226406
 20
155.579361
 30
0.0
 10
32.182177
 20
155.598497
 30
0.0
 10
32.173943
 20
155.681029
 30
0.0
  0
LWPOLYLINE
  5
1cf
100
AcDbEntity
  8
newlayer
 62
1
100
AcDbPolyline
 90
3
 70
0
 10
31.822394
 20
154.511011
 30
0.0
 10
31.846028
 20
154.593949
 30
0.0
 10
31.928746
 20
154.596911
 30
0.0
  0
SPLINE
  5
1d0
100
AcDbEntity
  8
newlayer
 62
1
100
AcDbSpline
 70
8
 71
3
 72
8
 73
4
 74
0
 40
0
 40
0
 40
0
 40
0
 40
1
 40
1
 40
1
 40
1
 10
32.191666
 20
155.752119
 30
0.0
 10
32.219418
 20
155.795403
 30
0.0
 10
32.263413
 20
155.851479
 30
0.0
 10
32.333467
 20
155.935768
 30
0.0
  0
LWPOLYLINE
  5
1d1
100
AcDbEntity
  8
newlayer
 62
1
100
AcDbPolyline
 90
3
 70
0
 10
32.173943
 20
155.681029
 30
0.0
 10
32.170986
 20
155.719536
 30
0.0
 10
32.191666
 20
155.752119
 30
0.0
  0
SPLINE
  5
1d2
100
AcDbEntity
  8
newlayer
 62
1
100
AcDbSpline
 70
8
 71
3
 72
8
 73
4
 74
0
 40
0
 40
0
 40
0
 40
0
 40
1
 40
1
 40
1
 40
1
 10
32.333467
 20
155.938729
 30
0.0
 10
32.400687
 20
156.016997
 30
0.0
 10
32.453420
 20
156.090611
 30
0.0
 10
32.490039
 20
156.157923
 30
0.0
  0
LWPOLYLINE
  5
1d3
100
AcDbEntity
  8
newlayer
 62
1
100
AcDbPolyline
 90
2
 70
0
 10
32.333467
 20
155.935768
 30
0.0
 10
32.333467
 20
155.938729
 30
0.0
  0
SPLINE
  5
1d4
100
AcDbEntity
  8
newlayer
 62
1
100
AcDbSpline
 70
8
 71
3
 72
8
 73
4
 74
0
 40
0
 40
0
 40
0
 40
0
 40
1
 40
1
 40
1
 40
1
 10
32.490039
 20
156.160885
 30
0.0
 10
32.524634
 20
156.221130
 30
0.0
 10
32.540258
 20
156.278580
 30
0.0
 10
32.540259
 20
156.344533
 30
0.0
  0
SPLINE
  5
1d5
100
AcDbEntity
  8
newlayer
 62
1
100
AcDbSpline
 70
8
 71
3
 72
8
 73
4
 74
0
 40
0
 40
0
 40
0
 40
0
 40
1
 40
1
 40
1
 40
1
 10
32.540259
 20
156.344533
 30
0.0
 10
32.540258
 20
156.403342
 30
0.0
 10
32.525639
 20
156.436218
 30
0.0
 10
32.487085
 20
156.471902
 30
0.0
  0
SPLINE
  5
1d6
100
AcDbEntity
  8
newlayer
 62
1
100
AcDbSpline
 70
8
 71
3
 72
8
 73
4
 74
0
 40
0
 40
0
 40
0
 40
0
 40
1
 40
1
 40
1
 40
1
 10
32.487085
 20
156.471902
 30
0.0
 10
32.453787
 20
156.502718
 30
0.0
 10
32.400863
 20
156.528180
 30
0.0
 10
32.303925
 20
156.528182
 30
0.0
  0
SPLINE
  5
1d7
100
AcDbEntity
  8
newlayer
 62
1
100
AcDbSpline
 70
8
 71
3
 72
8
 73
4
 74
0
 40
0
 40
0
 40
0
 40
0
 40
1
 40
1
 40
1
 40
1
 10
32.303925
 20
156.528182
 30
0.0
 10
32.286953
 20
156.528181
 30
0.0
 10
32.223889
 20
156.517743
 30
0.0
 10
32.135537
 20
156.495599
 30
0.0
  0
SPLINE
  5
1d8
100
AcDbEntity
  8
newlayer
 62
1
100
AcDbSpline
 70
8
 71
3
 72
8
 73
4
 74
0
 40
0
 40
0
 40
0
 40
0
 40
1
 40
1
 40
1
 40
1
 10
32.135537
 20
156.495599
 30
0.0
 10
32.088890
 20
156.483905
 30
0.0
 10
32.051721
 20
156.475140
 30
0.0
 10
32.023278
 20
156.468940
 30
0.0
  0
SPLINE
  5
1d9
100
AcDbEntity
  8
newlayer
 62
1
100
AcDbSpline
 70
8
 71
3
 72
8
 73
4
 74
0
 40
0
 40
0
 40
0
 40
0
 40
1
 40
1
 40
1
 40
1
 10
32.023278
 20
156.468940
 30
0.0
 10
31.994834
 20
156.462740
 30
0.0
 10
31.987707
 20
156.457086
 30
0.0
 10
31.949423
 20
156.457092
 30
0.0
  0
SPLINE
  5
1da
100
AcDbEntity
  8
newlayer
 62
1
100
AcDbSpline
 70
8
 71
3
 72
8
 73
4
 74
0
 40
0
 40
0
 40
0
 40
0
 40
1
 40
1
 40
1
 40
1
 10
31.949423
 20
156.457092
 30
0.0
 10
31.879153
 20
156.457081
 30
0.0
 10
31.853069
 20
156.482049
 30
0.0
 10
31.816485
 20
156.507447
 30
0.0
  0
LWPOLYLINE
  5
1db
100
AcDbEntity
  8
newlayer
 62
1
100
AcDbPolyline
 90
2
 70
0
 10
32.490039
 20
156.157923
 30
0.0
 10
32.490039
 20
156.160885
 30
0.0
  0
SPLINE
  5
1dc
100
AcDbEntity
  8
newlayer
 62
1
100
AcDbSpline
 70
8
 71
3
 72
8
 73
4
 74
0
 40
0
 40
0
 40
0
 40
0
 40
1
 40
1
 40
1
 40
1
 10
31.810571
 20
156.513371
 30
0.0
 10
31.768748
 20
156.548311
 30
0.0
 10
31.727854
 20
156.599059
 30
0.0
 10
31.727854
 20
156.667398
 30
0.0
  0
SPLINE
  5
1dd
100
AcDbEntity
  8
newlayer
 62
1
100
AcDbSpline
 70
8
 71
3
 72
8
 73
4
 74
0
 40
0
 40
0
 40
0
 40
0
 40
1
 40
1
 40
1
 40
1
 10
31.727854
 20
156.667398
 30
0.0
 10
31.727854
 20
156.743603
 30
0.0
 10
31.776427
 20
156.790989
 30
0.0
 10
31.819434
 20
156.821426
 30
0.0
  0
SPLINE
  5
1de
100
AcDbEntity
  8
newlayer
 62
1
100
AcDbSpline
 70
8
 71
3
 72
8
 73
4
 74
0
 40
0
 40
0
 40
0
 40
0
 40
1
 40
1
 40
1
 40
1
 10
31.819434
 20
156.821426
 30
0.0
 10
31.862439
 20
156.851863
 30
0.0
 10
31.912194
 20
156.877565
 30
0.0
 10
31.976006
 20
156.901402
 30
0.0
  0
SPLINE
  5
1df
100
AcDbEntity
  8
newlayer
 62
1
100
AcDbSpline
 70
8
 71
3
 72
8
 73
4
 74
0
 40
0
 40
0
 40
0
 40
0
 40
1
 40
1
 40
1
 40
1
 10
31.976006
 20
156.901402
 30
0.0
 10
32.107603
 20
156.952147
 30
0.0
 10
32.241672
 20
156.978413
 30
0.0
 10
32.377775
 20
156.978416
 30
0.0
  0
LWPOLYLINE
  5
1e0
100
AcDbEntity
  8
newlayer
 62
1
100
AcDbPolyline
 90
3
 70
0
 10
31.816485
 20
156.507447
 30
0.0
 10
31.813528
 20
156.510409
 30
0.0
 10
31.810571
 20
156.513371
 30
0.0
  0
SPLINE
  5
1e1
100
AcDbEntity
  8
newlayer
 62
1
100
AcDbSpline
 70
8
 71
3
 72
8
 73
4
 74
0
 40
0
 40
0
 40
0
 40
0
 40
1
 40
1
 40
1
 40
1
 10
26.150359
 20
155.775816
 30
0.0
 10
27.708526
 20
155.762618
 30
0.0
 10
29.250672
 20
155.160325
 30
0.0
 10
30.419158
 20
154.128904
 30
0.0
  0
SPLINE
  5
1e2
100
AcDbEntity
  8
newlayer
 62
1
100
AcDbSpline
 70
8
 71
3
 72
8
 73
4
 74
0
 40
0
 40
0
 40
0
 40
0
 40
1
 40
1
 40
1
 40
1
 10
30.419158
 20
154.128904
 30
0.0
 10
32.168243
 20
152.613211
 30
0.0
 10
32.904713
 20
150.095778
 30
0.0
 10
32.410280
 20
147.846348
 30
0.0
  0
SPLINE
  5
1e3
100
AcDbEntity
  8
newlayer
 62
1
100
AcDbSpline
 70
8
 71
3
 72
8
 73
4
 74
0
 40
0
 40
0
 40
0
 40
0
 40
1
 40
1
 40
1
 40
1
 10
32.410280
 20
147.846348
 30
0.0
 10
31.978126
 20
145.751739
 30
0.0
 10
30.364028
 20
144.005565
 30
0.0
 10
28.383724
 20
143.258098
 30
0.0
  0
SPLINE
  5
1e4
100
AcDbEntity
  8
newlayer
 62
1
100
AcDbSpline
 70
8
 71
3
 72
8
 73
4
 74
0
 40
0
 40
0
 40
0
 40
0
 40
1
 40
1
 40
1
 40
1
 10
28.383724
 20
143.258098
 30
0.0
 10
26.328654
 20
142.426549
 30
0.0
 10
23.858605
 20
142.824304
 30
0.0
 10
22.129712
 20
144.200037
 30
0.0
  0
SPLINE
  5
1e5
100
AcDbEntity
  8
newlayer
 62
1
100
AcDbSpline
 70
8
 71
3
 72
8
 73
4
 74
0
 40
0
 40
0
 40
0
 40
0
 40
1
 40
1
 40
1
 40
1
 10
22.129712
 20
144.200037
 30
0.0
 10
20.210705
 20
145.670365
 30
0.0
 10
19.281528
 20
148.280541
 30
0.0
 10
19.769318
 20
150.645507
 30
0.0
  0
SPLINE
  5
1e6
100
AcDbEntity
  8
newlayer
 62
1
100
AcDbSpline
 70
8
 71
3
 72
8
 73
4
 74
0
 40
0
 40
0
 40
0
 40
0
 40
1
 40
1
 40
1
 40
1
 10
19.769318
 20
150.645507
 30
0.0
 10
20.348964
 20
153.511128
 30
0.0
 10
23.077199
 20
155.759229
 30
0.0
 10
25.999696
 20
155.772854
 30
0.0
  0
SPLINE
  5
1e7
100
AcDbEntity
  8
newlayer
 62
1
100
AcDbSpline
 70
8
 71
3
 72
8
 73
4
 74
0
 40
0
 40
0
 40
0
 40
0
 40
1
 40
1
 40
1
 40
1
 10
25.999696
 20
155.772854
 30
0.0
 10
26.049985
 20
155.773659
 30
0.0
 10
26.100097
 20
155.776241
 30
0.0
 10
26.150359
 20
155.775816
 30
0.0
  0
LWPOLYLINE
  5
1e8
100
AcDbEntity
  8
newlayer
 62
1
100
AcDbPolyline
 90
1
 70
1
 10
32.377775
 20
156.978416
 30
0.0
  0
SPLINE
  5
1e9
100
AcDbEntity
  8
newlayer
 62
1
100
AcDbSpline
 70
8
 71
3
 72
8
 73
4
 74
0
 40
0
 40
0
 40
0
 40
0
 40
1
 40
1
 40
1
 40
1
 10
28.939111
 20
153.370614
 30
0.0
 10
28.354159
 20
153.370605
 30
0.0
 10
27.651902
 20
153.199506
 30
0.0
 10
26.829822
 20
152.858175
 30
0.0
  0
SPLINE
  5
1ea
100
AcDbEntity
  8
newlayer
 62
1
100
AcDbSpline
 70
8
 71
3
 72
8
 73
4
 74
0
 40
0
 40
0
 40
0
 40
0
 40
1
 40
1
 40
1
 40
1
 10
26.829822
 20
152.858175
 30
0.0
 10
26.007733
 20
152.516828
 30
0.0
 10
25.548023
 20
152.345729
 30
0.0
 10
25.453172
 20
152.345736
 30
0.0
  0
SPLINE
  5
1eb
100
AcDbEntity
  8
newlayer
 62
1
100
AcDbSpline
 70
8
 71
3
 72
8
 73
4
 74
0
 40
0
 40
0
 40
0
 40
0
 40
1
 40
1
 40
1
 40
1
 10
25.453172
 20
152.345736
 30
0.0
 10
25.437358
 20
152.434224
 30
0.0
 10
25.429534
 20
152.586971
 30
0.0
 10
25.429538
 20
152.801896
 30
0.0
  0
SPLINE
  5
1ec
100
AcDbEntity
  8
newlayer
 62
1
100
AcDbSpline
 70
8
 71
3
 72
8
 73
4
 74
0
 40
0
 40
0
 40
0
 40
0
 40
1
 40
1
 40
1
 40
1
 10
25.429538
 20
152.801896
 30
0.0
 10
25.429534
 20
153.080016
 30
0.0
 10
25.035372
 20
153.219540
 30
0.0
 10
24.244909
 20
153.219548
 30
0.0
  0
SPLINE
  5
1ed
100
AcDbEntity
  8
newlayer
 62
1
100
AcDbSpline
 70
8
 71
3
 72
8
 73
4
 74
0
 40
0
 40
0
 40
0
 40
0
 40
1
 40
1
 40
1
 40
1
 10
24.244909
 20
153.219548
 30
0.0
 10
23.881293
 20
153.219540
 30
0.0
 10
23.772559
 20
153.129791
 30
0.0
 10
23.677706
 20
152.813744
 30
0.0
  0
SPLINE
  5
1ee
100
AcDbEntity
  8
newlayer
 62
1
100
AcDbSpline
 70
8
 71
3
 72
8
 73
4
 74
0
 40
0
 40
0
 40
0
 40
0
 40
1
 40
1
 40
1
 40
1
 10
23.677706
 20
152.813744
 30
0.0
 10
23.602170
 20
152.558083
 30
0.0
 10
23.614388
 20
152.362677
 30
0.0
 10
23.603851
 20
152.129505
 30
0.0
  0
SPLINE
  5
1ef
100
AcDbEntity
  8
newlayer
 62
1
100
AcDbSpline
 70
8
 71
3
 72
8
 73
4
 74
0
 40
0
 40
0
 40
0
 40
0
 40
1
 40
1
 40
1
 40
1
 10
23.603851
 20
152.129505
 30
0.0
 10
23.588040
 20
151.564811
 30
0.0
 10
23.594987
 20
151.624052
 30
0.0
 10
23.594988
 20
151.371215
 30
0.0
  0
SPLINE
  5
1f0
100
AcDbEntity
  8
newlayer
 62
1
100
AcDbSpline
 70
8
 71
3
 72
8
 73
4
 74
0
 40
0
 40
0
 40
0
 40
0
 40
1
 40
1
 40
1
 40
1
 10
23.594988
 20
151.371215
 30
0.0
 10
23.594988
 20
151.367268
 30
0.0
 10
23.594982
 20
151.368953
 30
0.0
 10
23.594988
 20
151.365290
 30
0.0
  0
SPLINE
  5
1f1
100
AcDbEntity
  8
newlayer
 62
1
100
AcDbSpline
 70
8
 71
3
 72
8
 73
4
 74
0
 40
0
 40
0
 40
0
 40
0
 40
1
 40
1
 40
1
 40
1
 10
23.594988
 20
151.365290
 30
0.0
 10
23.594148
 20
151.362166
 30
0.0
 10
23.593153
 20
151.360597
 30
0.0
 10
23.592035
 20
151.353442
 30
0.0
  0
LWPOLYLINE
  5
1f2
100
AcDbEntity
  8
newlayer
 62
1
100
AcDbPolyline
 90
1
 70
1
 10
26.150359
 20
155.775816
 30
0.0
  0
SPLINE
  5
1f3
100
AcDbEntity
  8
newlayer
 62
1
100
AcDbSpline
 70
8
 71
3
 72
8
 73
4
 74
0
 40
0
 40
0
 40
0
 40
0
 40
1
 40
1
 40
1
 40
1
 10
23.603851
 20
146.978461
 30
0.0
 10
23.604220
 20
145.787594
 30
0.0
 10
23.648347
 20
145.153810
 30
0.0
 10
23.837232
 20
145.053114
 30
0.0
  0
SPLINE
  5
1f4
100
AcDbEntity
  8
newlayer
 62
1
100
AcDbSpline
 70
8
 71
3
 72
8
 73
4
 74
0
 40
0
 40
0
 40
0
 40
0
 40
1
 40
1
 40
1
 40
1
 10
23.837232
 20
145.053114
 30
0.0
 10
23.932086
 20
145.002545
 30
0.0
 10
23.912267
 20
144.949442
 30
0.0
 10
24.433978
 20
144.949442
 30
0.0
  0
SPLINE
  5
1f5
100
AcDbEntity
  8
newlayer
 62
1
100
AcDbSpline
 70
8
 71
3
 72
8
 73
4
 74
0
 40
0
 40
0
 40
0
 40
0
 40
1
 40
1
 40
1
 40
1
 10
24.433978
 20
144.949442
 30
0.0
 10
24.971491
 20
144.949442
 30
0.0
 10
25.303060
 20
145.033907
 30
0.0
 10
25.429538
 20
145.198255
 30
0.0
  0
SPLINE
  5
1f6
100
AcDbEntity
  8
newlayer
 62
1
100
AcDbSpline
 70
8
 71
3
 72
8
 73
4
 74
0
 40
0
 40
0
 40
0
 40
0
 40
1
 40
1
 40
1
 40
1
 10
25.429538
 20
145.198255
 30
0.0
 10
25.492771
 20
145.299391
 30
0.0
 10
25.524068
 20
145.399249
 30
0.0
 10
25.524072
 20
145.500387
 30
0.0
  0
SPLINE
  5
1f7
100
AcDbEntity
  8
newlayer
 62
1
100
AcDbSpline
 70
8
 71
3
 72
8
 73
4
 74
0
 40
0
 40
0
 40
0
 40
0
 40
1
 40
1
 40
1
 40
1
 10
25.524072
 20
145.500387
 30
0.0
 10
25.539877
 20
145.601524
 30
0.0
 10
25.547701
 20
145.727826
 30
0.0
 10
25.547706
 20
145.879532
 30
0.0
  0
SPLINE
  5
1f8
100
AcDbEntity
  8
newlayer
 62
1
100
AcDbSpline
 70
8
 71
3
 72
8
 73
4
 74
0
 40
0
 40
0
 40
0
 40
0
 40
1
 40
1
 40
1
 40
1
 10
25.547706
 20
145.879532
 30
0.0
 10
25.547701
 20
146.043879
 30
0.0
 10
25.547701
 20
146.151828
 30
0.0
 10
25.547706
 20
146.202398
 30
0.0
  0
LWPOLYLINE
  5
1f9
100
AcDbEntity
  8
newlayer
 62
1
100
AcDbPolyline
 90
2
 70
0
 10
23.592035
 20
151.353442
 30
0.0
 10
23.603851
 20
146.978461
 30
0.0
  0
SPLINE
  5
1fa
100
AcDbEntity
  8
newlayer
 62
1
100
AcDbSpline
 70
8
 71
3
 72
8
 73
4
 74
0
 40
0
 40
0
 40
0
 40
0
 40
1
 40
1
 40
1
 40
1
 10
25.500439
 20
150.941714
 30
0.0
 10
25.595290
 20
151.068130
 30
0.0
 10
25.770376
 20
151.170948
 30
0.0
 10
26.023330
 20
151.246807
 30
0.0
  0
SPLINE
  5
1fb
100
AcDbEntity
  8
newlayer
 62
1
100
AcDbSpline
 70
8
 71
3
 72
8
 73
4
 74
0
 40
0
 40
0
 40
0
 40
0
 40
1
 40
1
 40
1
 40
1
 10
26.023330
 20
151.246807
 30
0.0
 10
26.149800
 20
151.284728
 30
0.0
 10
26.267162
 20
151.321433
 30
0.0
 10
26.377832
 20
151.359366
 30
0.0
  0
SPLINE
  5
1fc
100
AcDbEntity
  8
newlayer
 62
1
100
AcDbSpline
 70
8
 71
3
 72
8
 73
4
 74
0
 40
0
 40
0
 40
0
 40
0
 40
1
 40
1
 40
1
 40
1
 10
26.377832
 20
151.359366
 30
0.0
 10
26.504301
 20
151.397286
 30
0.0
 10
26.655916
 20
151.428862
 30
0.0
 10
26.829822
 20
151.454152
 30
0.0
  0
SPLINE
  5
1fd
100
AcDbEntity
  8
newlayer
 62
1
100
AcDbSpline
 70
8
 71
3
 72
8
 73
4
 74
0
 40
0
 40
0
 40
0
 40
0
 40
1
 40
1
 40
1
 40
1
 10
26.829822
 20
151.454152
 30
0.0
 10
27.019530
 20
151.492072
 30
0.0
 10
27.176010
 20
151.518518
 30
0.0
 10
27.302492
 20
151.531166
 30
0.0
  0
SPLINE
  5
1fe
100
AcDbEntity
  8
newlayer
 62
1
100
AcDbSpline
 70
8
 71
3
 72
8
 73
4
 74
0
 40
0
 40
0
 40
0
 40
0
 40
1
 40
1
 40
1
 40
1
 10
27.302492
 20
151.531166
 30
0.0
 10
27.428959
 20
151.556444
 30
0.0
 10
27.604046
 20
151.582889
 30
0.0
 10
27.825383
 20
151.608180
 30
0.0
  0
SPLINE
  5
1ff
100
AcDbEntity
  8
newlayer
 62
1
100
AcDbSpline
 70
8
 71
3
 72
8
 73
4
 74
0
 40
0
 40
0
 40
0
 40
0
 40
1
 40
1
 40
1
 40
1
 10
27.825383
 20
151.608180
 30
0.0
 10
28.046707
 20
151.646100
 30
0.0
 10
28.211015
 20
151.669583
 30
0.0
 10
28.321686
 20
151.682232
 30
0.0
  0
SPLINE
  5
200
100
AcDbEntity
  8
newlayer
 62
1
100
AcDbSpline
 70
8
 71
3
 72
8
 73
4
 74
0
 40
0
 40
0
 40
0
 40
0
 40
1
 40
1
 40
1
 40
1
 10
28.321686
 20
151.682232
 30
0.0
 10
28.448154
 20
151.694867
 30
0.0
 10
28.631064
 20
151.713220
 30
0.0
 10
28.868210
 20
151.738511
 30
0.0
  0
SPLINE
  5
201
100
AcDbEntity
  8
newlayer
 62
1
100
AcDbSpline
 70
8
 71
3
 72
8
 73
4
 74
0
 40
0
 40
0
 40
0
 40
0
 40
1
 40
1
 40
1
 40
1
 10
28.868210
 20
151.738511
 30
0.0
 10
29.121153
 20
151.763789
 30
0.0
 10
29.293286
 20
151.785104
 30
0.0
 10
29.388147
 20
151.797753
 30
0.0
  0
SPLINE
  5
202
100
AcDbEntity
  8
newlayer
 62
1
100
AcDbSpline
 70
8
 71
3
 72
8
 73
4
 74
0
 40
0
 40
0
 40
0
 40
0
 40
1
 40
1
 40
1
 40
1
 10
29.388147
 20
151.797753
 30
0.0
 10
29.498807
 20
151.974736
 30
0.0
 10
29.556527
 20
152.232469
 30
0.0
 10
29.556536
 20
152.573816
 30
0.0
  0
SPLINE
  5
203
100
AcDbEntity
  8
newlayer
 62
1
100
AcDbSpline
 70
8
 71
3
 72
8
 73
4
 74
0
 40
0
 40
0
 40
0
 40
0
 40
1
 40
1
 40
1
 40
1
 10
29.556536
 20
152.573816
 30
0.0
 10
29.556527
 20
152.915147
 30
0.0
 10
29.506628
 20
153.131044
 30
0.0
 10
29.411781
 20
153.219548
 30
0.0
  0
SPLINE
  5
204
100
AcDbEntity
  8
newlayer
 62
1
100
AcDbSpline
 70
8
 71
3
 72
8
 73
4
 74
0
 40
0
 40
0
 40
0
 40
0
 40
1
 40
1
 40
1
 40
1
 10
29.411781
 20
153.219548
 30
0.0
 10
29.332726
 20
153.320677
 30
0.0
 10
29.176242
 20
153.370605
 30
0.0
 10
28.939111
 20
153.370613
 30
0.0
  0
LWPOLYLINE
  5
205
100
AcDbEntity
  8
newlayer
 62
1
100
AcDbPolyline
 90
4
 70
0
 10
25.547706
 20
146.202398
 30
0.0
 10
25.547706
 20
146.486757
 30
0.0
 10
25.500439
 20
149.709492
 30
0.0
 10
25.500439
 20
150.941714
 30
0.0
  0
LWPOLYLINE
  5
206
100
AcDbEntity
  8
newlayer
 62
1
100
AcDbPolyline
 90
1
 70
1
 10
28.939111
 20
153.370613
 30
0.0
  0
LWPOLYLINE
  5
207
100
AcDbEntity
  8
newlayer
 62
1
100
AcDbPolyline
 90
16
 70
1
 10
87.851930
 20
199.925220
 30
0.0
 10
77.702780
 20
189.776080
 30
0.0
 10
65.721916
 20
189.776080
 30
0.0
 10
53.741036
 20
189.776080
 30
0.0
 10
43.591892
 20
199.925220
 30
0.0
 10
33.442747
 20
210.074360
 30
0.0
 10
33.442747
 20
221.887880
 30
0.0
 10
33.442747
 20
233.701390
 30
0.0
 10
43.763702
 20
244.017900
 30
0.0
 10
54.084656
 20
254.334400
 30
0.0
 10
65.726356
 20
254.334400
 30
0.0
 10
77.368060
 20
254.334400
 30
0.0
 10
87.684560
 20
244.013450
 30
0.0
 10
98.001070
 20
233.692500
 30
0.0
 10
98.001070
 20
221.883430
 30
0.0
 10
98.001070
 20
210.074360
 30
0.0
  0
LWPOLYLINE
  5
208
100
AcDbEntity
  8
newlayer
 62
1
100
AcDbPolyline
 90
16
 70
1
 10
85.920840
 20
242.249400
 30
0.0
 10
76.310050
 20
251.864960
 30
0.0
 10
65.726686
 20
251.864960
 30
0.0
 10
55.143306
 20
251.864960
 30
0.0
 10
45.527748
 20
242.254170
 30
0.0
 10
35.912192
 20
232.643380
 30
0.0
 10
35.912192
 20
222.060010
 30
0.0
 10
35.912192
 20
211.476630
 30
0.0
 10
45.522980
 20
201.861080
 30
0.0
 10
55.133766
 20
192.245520
 30
0.0
 10
65.717146
 20
192.245520
 30
0.0
 10
76.300510
 20
192.245520
 30
0.0
 10
85.916070
 20
201.856310
 30
0.0
 10
95.531630
 20
211.467100
 30
0.0
 10
95.531630
 20
222.050470
 30
0.0
 10
95.531630
 20
232.633850
 30
0.0
  0
LWPOLYLINE
  5
209
100
AcDbEntity
  8
newlayer
 62
1
100
AcDbPolyline
 90
16
 70
1
 10
73.917976
 20
213.846850
 30
0.0
 10
70.295976
 20
210.237190
 30
0.0
 10
65.709586
 20
210.237190
 30
0.0
 10
61.123196
 20
210.237190
 30
0.0
 10
57.513526
 20
213.859180
 30
0.0
 10
53.903856
 20
217.481180
 30
0.0
 10
53.903856
 20
222.042800
 30
0.0
 10
53.903856
 20
226.604430
 30
0.0
 10
57.538286
 20
230.238860
 30
0.0
 10
61.172716
 20
233.873290
 30
0.0
 10
65.746676
 20
233.873290
 30
0.0
 10
70.320626
 20
233.873290
 30
0.0
 10
73.930296
 20
230.251300
 30
0.0
 10
77.539960
 20
226.629300
 30
0.0
 10
77.539960
 20
222.042910
 30
0.0
 10
77.539960
 20
217.456520
 30
0.0
  0
LWPOLYLINE
  5
20a
100
AcDbEntity
  8
newlayer
 62
1
100
AcDbPolyline
 90
16
 70
1
 10
72.137426
 20
228.470750
 30
0.0
 10
69.204336
 20
231.403850
 30
0.0
 10
65.721916
 20
231.403850
 30
0.0
 10
62.239496
 20
231.403850
 30
0.0
 10
59.306396
 20
228.470750
 30
0.0
 10
56.373306
 20
225.537660
 30
0.0
 10
56.373306
 20
222.055240
 30
0.0
 10
56.373306
 20
218.572820
 30
0.0
 10
59.306396
 20
215.639730
 30
0.0
 10
62.239496
 20
212.706630
 30
0.0
 10
65.721916
 20
212.706630
 30
0.0
 10
69.204336
 20
212.706630
 30
0.0
 10
72.137426
 20
215.639730
 30
0.0
 10
75.070520
 20
218.572820
 30
0.0
 10
75.070520
 20
222.055240
 30
0.0
 10
75.070520
 20
225.537660
 30
0.0
  0
LWPOLYLINE
  5
20b
100
AcDbEntity
  8
newlayer
 62
1
100
AcDbPolyline
 90
4
 70
1
 10
58.579988
 20
258.838652
 30
0.0
 10
58.579988
 20
261.471938
 30
0.0
 10
72.863833
 20
261.471938
 30
0.0
 10
72.863833
 20
258.838652
 30
0.0
  0
LWPOLYLINE
  5
20c
100
AcDbEntity
  8
newlayer
 62
1
100
AcDbPolyline
 90
4
 70
1
 10
61.887277
 20
266.246922
 30
0.0
 10
61.887277
 20
268.880208
 30
0.0
 10
69.556539
 20
268.880208
 30
0.0
 10
69.556539
 20
266.246922
 30
0.0
  0
LWPOLYLINE
  5
20d
100
AcDbEntity
  8
newlayer
 62
1
100
AcDbPolyline
 90
4
 70
1
 10
58.579988
 20
185.271830
 30
0.0
 10
58.579988
 20
182.638544
 30
0.0
 10
72.863833
 20
182.638544
 30
0.0
 10
72.863833
 20
185.271830
 30
0.0
  0
LWPOLYLINE
  5
20e
100
AcDbEntity
  8
newlayer
 62
1
100
AcDbPolyline
 90
4
 70
1
 10
61.887277
 20
177.863560
 30
0.0
 10
61.887277
 20
175.230274
 30
0.0
 10
69.556539
 20
175.230274
 30
0.0
 10
69.556539
 20
177.863560
 30
0.0
  0
LWPOLYLINE
  5
20f
100
AcDbEntity
  8
newlayer
 62
1
100
AcDbPolyline
 90
4
 70
1
 10
102.504830
 20
214.913318
 30
0.0
 10
105.138116
 20
214.913318
 30
0.0
 10
105.138116
 20
229.197163
 30
0.0
 10
102.504830
 20
229.197163
 30
0.0
  0
LWPOLYLINE
  5
210
100
AcDbEntity
  8
newlayer
 62
1
100
AcDbPolyline
 90
4
 70
1
 10
109.913100
 20
218.220607
 30
0.0
 10
112.546386
 20
218.220607
 30
0.0
 10
112.546386
 20
225.889869
 30
0.0
 10
109.913100
 20
225.889869
 30
0.0
  0
LWPOLYLINE
  5
211
100
AcDbEntity
  8
newlayer
 62
1
100
AcDbPolyline
 90
4
 70
1
 10
28.938985
 20
214.913323
 30
0.0
 10
26.305699
 20
214.913323
 30
0.0
 10
26.305699
 20
229.197168
 30
0.0
 10
28.938985
 20
229.197168
 30
0.0
  0
LWPOLYLINE
  5
212
100
AcDbEntity
  8
newlayer
 62
1
100
AcDbPolyline
 90
4
 70
1
 10
21.530715
 20
218.220612
 30
0.0
 10
18.897429
 20
218.220612
 30
0.0
 10
18.897429
 20
225.889874
 30
0.0
 10
21.530715
 20
225.889874
 30
0.0
  0
LWPOLYLINE
  5
213
100
AcDbEntity
  8
newlayer
 62
1
100
AcDbPolyline
 90
4
 70
1
 10
35.357070
 20
193.797591
 30
0.0
 10
32.987859
 20
191.428379
 30
0.0
 10
26.087694
 20
198.328544
 30
0.0
 10
28.456906
 20
200.697756
 30
0.0
  0
LWPOLYLINE
  5
214
100
AcDbEntity
  8
newlayer
 62
1
100
AcDbPolyline
 90
4
 70
1
 10
44.865839
 20
184.452885
 30
0.0
 10
42.496628
 20
182.083673
 30
0.0
 10
35.596463
 20
188.983838
 30
0.0
 10
37.965675
 20
191.353050
 30
0.0
  0
LWPOLYLINE
  5
215
100
AcDbEntity
  8
newlayer
 62
1
100
AcDbPolyline
 90
4
 70
1
 10
95.993367
 20
254.727947
 30
0.0
 10
93.624155
 20
252.358735
 30
0.0
 10
86.723990
 20
259.258900
 30
0.0
 10
89.093202
 20
261.628112
 30
0.0
  0
LWPOLYLINE
  5
216
100
AcDbEntity
  8
newlayer
 62
1
100
AcDbPolyline
 90
4
 70
1
 10
105.502150
 20
245.383255
 30
0.0
 10
103.132938
 20
243.014043
 30
0.0
 10
96.232773
 20
249.914208
 30
0.0
 10
98.601985
 20
252.283420
 30
0.0
  0
LWPOLYLINE
  5
217
100
AcDbEntity
  8
newlayer
 62
1
100
AcDbPolyline
 90
4
 70
1
 10
37.883633
 20
252.440785
 30
0.0
 10
35.514421
 20
254.809997
 30
0.0
 10
42.414586
 20
261.710161
 30
0.0
 10
44.783798
 20
259.340949
 30
0.0
  0
LWPOLYLINE
  5
218
100
AcDbEntity
  8
newlayer
 62
1
100
AcDbPolyline
 90
4
 70
1
 10
28.538934
 20
242.931995
 30
0.0
 10
26.169723
 20
245.301206
 30
0.0
 10
33.069887
 20
252.201371
 30
0.0
 10
35.439099
 20
249.832159
 30
0.0
  0
LWPOLYLINE
  5
219
100
AcDbEntity
  8
newlayer
 62
1
100
AcDbPolyline
 90
4
 70
1
 10
98.519942
 20
191.510419
 30
0.0
 10
96.150730
 20
193.879631
 30
0.0
 10
103.050895
 20
200.779795
 30
0.0
 10
105.420107
 20
198.410583
 30
0.0
  0
LWPOLYLINE
  5
21a
100
AcDbEntity
  8
newlayer
 62
1
100
AcDbPolyline
 90
4
 70
1
 10
89.175243
 20
182.001643
 30
0.0
 10
86.806031
 20
184.370855
 30
0.0
 10
93.706196
 20
191.271019
 30
0.0
 10
96.075408
 20
188.901807
 30
0.0
  0
ENDSEC
  0
SECTION
  2
OBJECTS
  0
DICTIONARY
  5
C
330
0
100
AcDbDictionary
  3
ACAD_GROUP
350
D
  3
ACAD_MLINESTYLE
350
17
  0
DICTIONARY
  5
D
330
C
100
AcDbDictionary
  0
DICTIONARY
  5
1A
330
C
100
AcDbDictionary
  0
DICTIONARY
  5
17
330
C
100
AcDbDictionary
  3
STANDARD
350
18
  0
DICTIONARY
  5
19
330
C
100
AcDbDictionary
  0
ENDSEC
  0
EOF
