  0
SECTION
  2
HEADER
  9
$ACADVER
  1
AC1014
  9
$HANDSEED
  5
FFFF
  9
$MEASUREMENT
 70
     1
  0
ENDSEC
  0
SECTION
  2
TABLES
  0
TABLE
  2
VPORT
  5
8
330
0
100
AcDbSymbolTable
 70
     4
  0
VPORT
  5
2E
330
8
100
AcDbSymbolTableRecord
100
AcDbViewportTableRecord
  2
*ACTIVE
 70
     0
 10
0.0
 20
0.0
 11
1.0
 21
1.0
 12
210.0
 22
148.5
 13
0.0
 23
0.0
 14
10.0
 24
10.0
 15
10.0
 25
10.0
 16
0.0
 26
0.0
 36
1.0
 17
0.0
 27
0.0
 37
0.0
 40
341.0
 41
1.24
 42
50.0
 43
0.0
 44
0.0
 50
0.0
 51
0.0
 71
     0
 72
   100
 73
     1
 74
     3
 75
     0
 76
     0
 77
     0
 78
     0
  0
ENDTAB
  0
TABLE
  2
LTYPE
  5
5
330
0
100
AcDbSymbolTable
 70
     1
  0
LTYPE
  5
14
330
5
100
AcDbSymbolTableRecord
100
AcDbLinetypeTableRecord
  2
BYBLOCK
 70
     0
  3

 72
    65
 73
     0
 40
0.0
  0
LTYPE
  5
15
330
5
100
AcDbSymbolTableRecord
100
AcDbLinetypeTableRecord
  2
BYLAYER
 70
     0
  3

 72
    65
 73
     0
 40
0.0
  0
LTYPE
  5
16
330
5
100
AcDbSymbolTableRecord
100
AcDbLinetypeTableRecord
  2
CONTINUOUS
 70
     0
  3
Solid line
 72
    65
 73
     0
 40
0.0
  0
ENDTAB
  0
TABLE
  2
LAYER
  5
2
100
AcDbSymbolTable
 70
3
  0
LAYER
  5
50
100
AcDbSymbolTableRecord
100
AcDbLayerTableRecord
  2
0
 70
0
  6
CONTINUOUS
  0
LAYER
  5
51
100
AcDbSymbolTableRecord
100
AcDbLayerTableRecord
  2
Layer_1
 70
0
  6
CONTINUOUS
  0
LAYER
  5
52
100
AcDbSymbolTableRecord
100
AcDbLayerTableRecord
  2
newlayer
 70
0
  6
CONTINUOUS
  0
ENDTAB
  0
TABLE
  2
STYLE
  5
3
330
0
100
AcDbSymbolTable
 70
     1
  0
STYLE
  5
11
330
3
100
AcDbSymbolTableRecord
100
AcDbTextStyleTableRecord
  2
STANDARD
 70
     0
 40
0.0
 41
1.0
 50
0.0
 71
     0
 42
2.5
  3
txt
  4

  0
ENDTAB
  0
TABLE
  2
VIEW
  5
6
330
0
100
AcDbSymbolTable
 70
     0
  0
ENDTAB
  0
TABLE
  2
UCS
  5
7
330
0
100
AcDbSymbolTable
 70
     0
  0
ENDTAB
  0
TABLE
  2
APPID
  5
9
330
0
100
AcDbSymbolTable
 70
     2
  0
APPID
  5
12
330
9
100
AcDbSymbolTableRecord
100
AcDbRegAppTableRecord
  2
ACAD
 70
     0
  0
ENDTAB
  0
TABLE
  2
DIMSTYLE
  5
A
330
0
100
AcDbSymbolTable
 70
     1
  0
DIMSTYLE
105
27
330
A
100
AcDbSymbolTableRecord
100
AcDbDimStyleTableRecord
  2
ISO-25
 70
     0
  3

  4

  5

  6

  7

 40
1.0
 41
2.5
 42
0.625
 43
3.75
 44
1.25
 45
0.0
 46
0.0
 47
0.0
 48
0.0
140
2.5
141
2.5
142
0.0
143
0.03937007874016
144
1.0
145
0.0
146
1.0
147
0.625
 71
     0
 72
     0
 73
     0
 74
     0
 75
     0
 76
     0
 77
     1
 78
     8
170
     0
171
     3
172
     1
173
     0
174
     0
175
     0
176
     0
177
     0
178
     0
270
     2
271
     2
272
     2
273
     2
274
     3
340
11
275
     0
280
     0
281
     0
282
     0
283
     0
284
     8
285
     0
286
     0
287
     3
288
     0
  0
ENDTAB
  0
TABLE
  2
BLOCK_RECORD
  5
1
330
0
100
AcDbSymbolTable
 70
     1
  0
BLOCK_RECORD
  5
1F
330
1
100
AcDbSymbolTableRecord
100
AcDbBlockTableRecord
  2
*MODEL_SPACE
  0
BLOCK_RECORD
  5
1B
330
1
100
AcDbSymbolTableRecord
100
AcDbBlockTableRecord
  2
*PAPER_SPACE
  0
ENDTAB
  0
ENDSEC
  0
SECTION
  2
BLOCKS
  0
BLOCK
  5
20
330
1F
100
AcDbEntity
  8
0
100
AcDbBlockBegin
  2
*MODEL_SPACE
 70
     0
 10
0.0
 20
0.0
 30
0.0
  3
*MODEL_SPACE
  1

  0
ENDBLK
  5
21
330
1F
100
AcDbEntity
  8
0
100
AcDbBlockEnd
  0
BLOCK
  5
1C
330
1B
100
AcDbEntity
 67
     1
  8
0
100
AcDbBlockBegin
  2
*PAPER_SPACE
  1

  0
ENDBLK
  5
1D
330
1B
100
AcDbEntity
 67
     1
  8
0
100
AcDbBlockEnd
  0
ENDSEC
  0
SECTION
  2
ENTITIES
  0
LWPOLYLINE
  5
100
100
AcDbEntity
  8
Layer_1
 62
1
100
AcDbPolyline
 90
4
 70
1
 10
170.668778
 20
113.268870
 30
0.0
 10
170.668778
 20
120.833782
 30
0.0
 10
148.637046
 20
120.833782
 30
0.0
 10
148.637046
 20
113.268870
 30
0.0
  0
LWPOLYLINE
  5
101
100
AcDbEntity
  8
Layer_1
 62
1
100
AcDbPolyline
 90
4
 70
1
 10
226.609031
 20
133.866578
 30
0.0
 10
246.431601
 20
153.689142
 30
0.0
 10
239.625290
 20
160.495445
 30
0.0
 10
219.803244
 20
140.672881
 30
0.0
  0
LWPOLYLINE
  5
102
100
AcDbEntity
  8
Layer_1
 62
1
100
AcDbPolyline
 90
4
 70
1
 10
92.513341
 20
134.102223
 30
0.0
 10
99.319128
 20
140.908526
 30
0.0
 10
79.497082
 20
160.731088
 30
0.0
 10
72.690779
 20
153.924785
 30
0.0
  0
LWPOLYLINE
  5
103
100
AcDbEntity
  8
Layer_1
 62
1
100
AcDbPolyline
 90
4
 70
1
 10
180.170005
 20
134.551290
 30
0.0
 10
180.170005
 20
142.115688
 30
0.0
 10
139.136335
 20
142.115688
 30
0.0
 10
139.136335
 20
134.551290
 30
0.0
  0
LWPOLYLINE
  5
104
100
AcDbEntity
  8
Layer_1
 62
1
100
AcDbPolyline
 90
18
 70
1
 10
193.083947
 20
155.055466
 30
0.0
 10
222.733298
 20
184.691900
 30
0.0
 10
252.383164
 20
214.328850
 30
0.0
 10
252.383164
 20
247.685468
 30
0.0
 10
245.289027
 20
247.685468
 30
0.0
 10
245.289027
 20
217.368457
 30
0.0
 10
217.665908
 20
189.758774
 30
0.0
 10
190.042786
 20
162.149607
 30
0.0
 10
159.639476
 20
162.149607
 30
0.0
 10
129.236163
 20
162.149607
 30
0.0
 10
101.626480
 20
189.772726
 30
0.0
 10
74.017313
 20
217.395847
 30
0.0
 10
74.017313
 20
247.685468
 30
0.0
 10
66.923172
 20
247.685468
 30
0.0
 10
66.923172
 20
214.354171
 30
0.0
 10
96.560122
 20
184.704820
 30
0.0
 10
126.196556
 20
155.055466
 30
0.0
 10
159.640511
 20
155.055466
 30
0.0
  0
LWPOLYLINE
  5
105
100
AcDbEntity
  8
Layer_1
 62
1
100
AcDbPolyline
 90
4
 70
1
 10
65.196663
 20
160.947613
 30
0.0
 10
72.002966
 20
167.753400
 30
0.0
 10
52.180404
 20
187.575962
 30
0.0
 10
45.374617
 20
180.769659
 30
0.0
  0
LWPOLYLINE
  5
106
100
AcDbEntity
  8
Layer_1
 62
1
100
AcDbPolyline
 90
4
 70
1
 10
253.453907
 20
161.183256
 30
0.0
 10
273.276463
 20
181.005302
 30
0.0
 10
266.470163
 20
187.811605
 30
0.0
 10
246.648109
 20
167.989043
 30
0.0
  0
LWPOLYLINE
  5
107
100
AcDbEntity
  8
Layer_1
 62
1
100
AcDbPolyline
 90
18
 70
1
 10
172.721881
 20
213.834823
 30
0.0
 10
183.162588
 20
224.276045
 30
0.0
 10
193.603295
 20
234.716752
 30
0.0
 10
193.603295
 20
247.685468
 30
0.0
 10
186.509154
 20
247.685468
 30
0.0
 10
186.509154
 20
237.781164
 30
0.0
 10
178.083310
 20
229.355323
 30
0.0
 10
169.656953
 20
220.928963
 30
0.0
 10
159.652912
 20
220.928963
 30
0.0
 10
149.648871
 20
220.928963
 30
0.0
 10
141.223029
 20
229.355323
 30
0.0
 10
132.796669
 20
237.781164
 30
0.0
 10
132.796669
 20
247.685468
 30
0.0
 10
125.702529
 20
247.685468
 30
0.0
 10
125.702529
 20
234.645439
 30
0.0
 10
136.072438
 20
224.239872
 30
0.0
 10
146.442348
 20
213.834823
 30
0.0
 10
159.582115
 20
213.834823
 30
0.0
  0
LWPOLYLINE
  5
108
100
AcDbEntity
  8
Layer_1
 62
1
100
AcDbPolyline
 90
4
 70
1
 10
272.885780
 20
227.268628
 30
0.0
 10
272.885780
 20
247.685468
 30
0.0
 10
265.321395
 20
247.685468
 30
0.0
 10
265.321395
 20
227.268628
 30
0.0
  0
LWPOLYLINE
  5
109
100
AcDbEntity
  8
Layer_1
 62
1
100
AcDbPolyline
 90
4
 70
1
 10
53.984944
 20
227.268628
 30
0.0
 10
53.984944
 20
247.685468
 30
0.0
 10
46.420031
 20
247.685468
 30
0.0
 10
46.420031
 20
227.268628
 30
0.0
  0
LWPOLYLINE
  5
10a
100
AcDbEntity
  8
Layer_1
 62
1
100
AcDbPolyline
 90
4
 70
1
 10
294.168201
 20
236.769340
 30
0.0
 10
294.168201
 20
247.685468
 30
0.0
 10
286.603314
 20
247.685468
 30
0.0
 10
286.603314
 20
236.769340
 30
0.0
  0
SPLINE
  5
10b
100
AcDbEntity
  8
Layer_1
 62
7
100
AcDbSpline
 70
8
 71
3
 72
8
 73
4
 74
0
 40
0
 40
0
 40
0
 40
0
 40
1
 40
1
 40
1
 40
1
 10
159.652912
 20
90.385512
 30
0.0
 10
246.541543
 20
90.388230
 30
0.0
 10
316.992734
 20
160.796854
 30
0.0
 10
317.047965
 20
247.685468
 30
0.0
  0
LWPOLYLINE
  5
10c
100
AcDbEntity
  8
Layer_1
 62
1
100
AcDbPolyline
 90
4
 70
1
 10
32.703039
 20
236.769340
 30
0.0
 10
32.703039
 20
247.685468
 30
0.0
 10
25.138128
 20
247.685468
 30
0.0
 10
25.138128
 20
236.769340
 30
0.0
  0
SPLINE
  5
10d
100
AcDbEntity
  8
Layer_1
 62
7
100
AcDbSpline
 70
8
 71
3
 72
8
 73
4
 74
0
 40
0
 40
0
 40
0
 40
0
 40
1
 40
1
 40
1
 40
1
 10
100.402782
 20
247.685468
 30
0.0
 10
100.402782
 20
247.685468
 30
0.0
 10
2.256836
 20
247.685468
 30
0.0
 10
2.256836
 20
247.685468
 30
0.0
  0
SPLINE
  5
10e
100
AcDbEntity
  8
Layer_1
 62
7
100
AcDbSpline
 70
8
 71
3
 72
8
 73
4
 74
0
 40
0
 40
0
 40
0
 40
0
 40
1
 40
1
 40
1
 40
1
 10
2.256836
 20
247.685468
 30
0.0
 10
2.312068
 20
160.796455
 30
0.0
 10
72.763881
 20
90.387666
 30
0.0
 10
159.652912
 20
90.385512
 30
0.0
  0
LWPOLYLINE
  5
10f
100
AcDbEntity
  8
Layer_1
 62
7
100
AcDbPolyline
 90
9
 70
0
 10
317.047965
 20
247.685468
 30
0.0
 10
218.903041
 20
247.685468
 30
0.0
 10
218.903041
 20
244.370427
 30
0.0
 10
215.903225
 20
244.370427
 30
0.0
 10
215.903225
 20
247.685468
 30
0.0
 10
103.403115
 20
247.685468
 30
0.0
 10
103.403115
 20
244.370427
 30
0.0
 10
100.402782
 20
244.370427
 30
0.0
 10
100.402782
 20
247.685468
 30
0.0
  0
LWPOLYLINE
  5
110
100
AcDbEntity
  8
Layer_1
 62
7
100
AcDbPolyline
 90
1
 70
1
 10
159.652912
 20
90.385512
 30
0.0
  0
LWPOLYLINE
  5
111
100
AcDbEntity
  8
Layer_1
 62
7
100
AcDbPolyline
 90
4
 70
1
 10
57.418844
 20
143.438604
 30
0.0
 10
55.297526
 20
145.559922
 30
0.0
 10
60.126688
 20
150.389084
 30
0.0
 10
62.248006
 20
148.267766
 30
0.0
  0
LWPOLYLINE
  5
112
100
AcDbEntity
  8
Layer_1
 62
7
100
AcDbPolyline
 90
4
 70
1
 10
67.553624
 20
153.573903
 30
0.0
 10
65.432309
 20
155.695221
 30
0.0
 10
70.261986
 20
160.524383
 30
0.0
 10
72.383304
 20
158.403065
 30
0.0
  0
LWPOLYLINE
  5
113
100
AcDbEntity
  8
Layer_1
 62
7
100
AcDbPolyline
 90
4
 70
1
 10
210.130450
 20
188.535076
 30
0.0
 10
203.300893
 20
188.535076
 30
0.0
 10
203.300893
 20
191.535409
 30
0.0
 10
210.130450
 20
191.535409
 30
0.0
  0
LWPOLYLINE
  5
114
100
AcDbEntity
  8
Layer_1
 62
7
100
AcDbPolyline
 90
4
 70
1
 10
194.443035
 20
188.535076
 30
0.0
 10
187.612962
 20
188.535076
 30
0.0
 10
187.612962
 20
191.535409
 30
0.0
 10
194.443035
 20
191.535409
 30
0.0
  0
LWPOLYLINE
  5
115
100
AcDbEntity
  8
Layer_1
 62
7
100
AcDbPolyline
 90
4
 70
1
 10
178.755622
 20
188.535076
 30
0.0
 10
171.925549
 20
188.535076
 30
0.0
 10
171.925549
 20
191.535409
 30
0.0
 10
178.755622
 20
191.535409
 30
0.0
  0
LWPOLYLINE
  5
116
100
AcDbEntity
  8
Layer_1
 62
7
100
AcDbPolyline
 90
4
 70
1
 10
163.068206
 20
188.535076
 30
0.0
 10
156.238133
 20
188.535076
 30
0.0
 10
156.238133
 20
191.535409
 30
0.0
 10
163.068206
 20
191.535409
 30
0.0
  0
LWPOLYLINE
  5
117
100
AcDbEntity
  8
Layer_1
 62
7
100
AcDbPolyline
 90
4
 70
1
 10
147.380793
 20
188.535076
 30
0.0
 10
140.550718
 20
188.535076
 30
0.0
 10
140.550718
 20
191.535409
 30
0.0
 10
147.380793
 20
191.535409
 30
0.0
  0
LWPOLYLINE
  5
118
100
AcDbEntity
  8
Layer_1
 62
7
100
AcDbPolyline
 90
4
 70
1
 10
131.692862
 20
188.535076
 30
0.0
 10
124.862789
 20
188.535076
 30
0.0
 10
124.862789
 20
191.535409
 30
0.0
 10
131.692862
 20
191.535409
 30
0.0
  0
LWPOLYLINE
  5
119
100
AcDbEntity
  8
Layer_1
 62
7
100
AcDbPolyline
 90
4
 70
1
 10
116.005446
 20
188.535076
 30
0.0
 10
109.175373
 20
188.535076
 30
0.0
 10
109.175373
 20
191.535409
 30
0.0
 10
116.005446
 20
191.535409
 30
0.0
  0
LWPOLYLINE
  5
11a
100
AcDbEntity
  8
Layer_1
 62
7
100
AcDbPolyline
 90
4
 70
1
 10
218.903041
 20
197.307667
 30
0.0
 10
215.903225
 20
197.307667
 30
0.0
 10
215.903225
 20
204.137740
 30
0.0
 10
218.903041
 20
204.137740
 30
0.0
  0
LWPOLYLINE
  5
11b
100
AcDbEntity
  8
Layer_1
 62
7
100
AcDbPolyline
 90
4
 70
1
 10
103.403115
 20
197.307667
 30
0.0
 10
100.402782
 20
197.307667
 30
0.0
 10
100.402782
 20
204.137740
 30
0.0
 10
103.403115
 20
204.137740
 30
0.0
  0
LWPOLYLINE
  5
11c
100
AcDbEntity
  8
Layer_1
 62
7
100
AcDbPolyline
 90
4
 70
1
 10
218.903041
 20
212.995080
 30
0.0
 10
215.903225
 20
212.995080
 30
0.0
 10
215.903225
 20
219.825156
 30
0.0
 10
218.903041
 20
219.825156
 30
0.0
  0
LWPOLYLINE
  5
11d
100
AcDbEntity
  8
Layer_1
 62
7
100
AcDbPolyline
 90
4
 70
1
 10
103.403115
 20
212.995080
 30
0.0
 10
100.402782
 20
212.995080
 30
0.0
 10
100.402782
 20
219.825156
 30
0.0
 10
103.403115
 20
219.825156
 30
0.0
  0
LWPOLYLINE
  5
11e
100
AcDbEntity
  8
Layer_1
 62
7
100
AcDbPolyline
 90
4
 70
1
 10
218.903041
 20
228.683012
 30
0.0
 10
215.903225
 20
228.683012
 30
0.0
 10
215.903225
 20
235.513085
 30
0.0
 10
218.903041
 20
235.513085
 30
0.0
  0
LWPOLYLINE
  5
11f
100
AcDbEntity
  8
Layer_1
 62
7
100
AcDbPolyline
 90
4
 70
1
 10
103.403115
 20
228.683012
 30
0.0
 10
100.402782
 20
228.683012
 30
0.0
 10
100.402782
 20
235.513085
 30
0.0
 10
103.403115
 20
235.513085
 30
0.0
  0
LWPOLYLINE
  5
120
100
AcDbEntity
  8
Layer_1
 62
7
100
AcDbPolyline
 90
4
 70
1
 10
282.048280
 20
237.181727
 30
0.0
 10
279.048280
 20
237.181727
 30
0.0
 10
279.048280
 20
244.011727
 30
0.0
 10
282.048280
 20
244.011727
 30
0.0
  0
LWPOLYLINE
  5
121
100
AcDbEntity
  8
Layer_1
 62
7
100
AcDbPolyline
 90
4
 70
1
 10
245.975330
 20
159.437110
 30
0.0
 10
248.096650
 20
161.558430
 30
0.0
 10
252.926190
 20
156.728890
 30
0.0
 10
250.804870
 20
154.607570
 30
0.0
  0
LWPOLYLINE
  5
122
100
AcDbEntity
  8
Layer_1
 62
7
100
AcDbPolyline
 90
4
 70
1
 10
256.110520
 20
149.301910
 30
0.0
 10
258.231840
 20
151.423230
 30
0.0
 10
263.061380
 20
146.593690
 30
0.0
 10
260.940060
 20
144.472370
 30
0.0
  0
LWPOLYLINE
  5
123
100
AcDbEntity
  8
Layer_1
 62
7
100
AcDbPolyline
 90
4
 70
1
 10
170.234070
 20
126.125480
 30
0.0
 10
170.234070
 20
129.125480
 30
0.0
 10
163.404070
 20
129.125480
 30
0.0
 10
163.404070
 20
126.125480
 30
0.0
  0
LWPOLYLINE
  5
124
100
AcDbEntity
  8
Layer_1
 62
7
100
AcDbPolyline
 90
4
 70
1
 10
155.900740
 20
126.125480
 30
0.0
 10
155.900740
 20
129.125480
 30
0.0
 10
149.070740
 20
129.125480
 30
0.0
 10
149.070740
 20
126.125480
 30
0.0
  0
LWPOLYLINE
  5
125
100
AcDbEntity
  8
Layer_1
 62
7
100
AcDbPolyline
 90
4
 70
1
 10
40.256518
 20
237.181727
 30
0.0
 10
37.256518
 20
237.181727
 30
0.0
 10
37.256518
 20
244.011727
 30
0.0
 10
40.256518
 20
244.011727
 30
0.0
  0
LWPOLYLINE
  5
126
100
AcDbEntity
  8
Layer_1
 62
7
100
AcDbPolyline
 90
12
 70
1
 10
60.358673
 20
90.714290
 30
0.0
 10
20.466129
 20
90.714290
 30
0.0
 10
20.466129
 20
113.714290
 30
0.0
 10
28.983653
 20
113.714290
 30
0.0
 10
28.983653
 20
116.714290
 30
0.0
 10
36.153653
 20
116.714290
 30
0.0
 10
36.153653
 20
113.714290
 30
0.0
 10
44.671163
 20
113.714290
 30
0.0
 10
44.671163
 20
116.714290
 30
0.0
 10
51.841163
 20
116.714290
 30
0.0
 10
51.841163
 20
113.714290
 30
0.0
 10
60.358673
 20
113.714290
 30
0.0
  0
LWPOLYLINE
  5
127
100
AcDbEntity
  8
Layer_1
 62
7
100
AcDbPolyline
 90
12
 70
1
 10
295.420680
 20
90.714290
 30
0.0
 10
255.528150
 20
90.714290
 30
0.0
 10
255.528150
 20
113.714290
 30
0.0
 10
264.045660
 20
113.714290
 30
0.0
 10
264.045660
 20
116.714290
 30
0.0
 10
271.215660
 20
116.714290
 30
0.0
 10
271.215660
 20
113.714290
 30
0.0
 10
279.733170
 20
113.714290
 30
0.0
 10
279.733170
 20
116.714290
 30
0.0
 10
286.903170
 20
116.714290
 30
0.0
 10
286.903170
 20
113.714290
 30
0.0
 10
295.420680
 20
113.714290
 30
0.0
  0
LWPOLYLINE
  5
128
100
AcDbEntity
  8
Layer_1
 62
7
100
AcDbPolyline
 90
12
 70
1
 10
3.003622
 20
120.020350
 30
0.0
 10
3.003622
 20
159.912890
 30
0.0
 10
26.003622
 20
159.912890
 30
0.0
 10
26.003622
 20
151.395370
 30
0.0
 10
29.003622
 20
151.395370
 30
0.0
 10
29.003622
 20
144.225370
 30
0.0
 10
26.003622
 20
144.225370
 30
0.0
 10
26.003622
 20
135.707860
 30
0.0
 10
29.003622
 20
135.707860
 30
0.0
 10
29.003622
 20
128.537860
 30
0.0
 10
26.003622
 20
128.537860
 30
0.0
 10
26.003622
 20
120.020350
 30
0.0
  0
LWPOLYLINE
  5
129
100
AcDbEntity
  8
Layer_1
 62
7
100
AcDbPolyline
 90
12
 70
1
 10
315.774830
 20
160.486040
 30
0.0
 10
315.774830
 20
120.593500
 30
0.0
 10
292.774830
 20
120.593500
 30
0.0
 10
292.774830
 20
129.111010
 30
0.0
 10
289.774830
 20
129.111010
 30
0.0
 10
289.774830
 20
136.281010
 30
0.0
 10
292.774830
 20
136.281010
 30
0.0
 10
292.774830
 20
144.798520
 30
0.0
 10
289.774830
 20
144.798520
 30
0.0
 10
289.774830
 20
151.968530
 30
0.0
 10
292.774830
 20
151.968530
 30
0.0
 10
292.774830
 20
160.486040
 30
0.0
  0
ENDSEC
  0
SECTION
  2
OBJECTS
  0
DICTIONARY
  5
C
330
0
100
AcDbDictionary
  3
ACAD_GROUP
350
D
  3
ACAD_MLINESTYLE
350
17
  0
DICTIONARY
  5
D
330
C
100
AcDbDictionary
  0
DICTIONARY
  5
1A
330
C
100
AcDbDictionary
  0
DICTIONARY
  5
17
330
C
100
AcDbDictionary
  3
STANDARD
350
18
  0
DICTIONARY
  5
19
330
C
100
AcDbDictionary
  0
ENDSEC
  0
EOF
