  0
SECTION
  2
HEADER
  9
$ACADVER
  1
AC1014
  9
$HANDSEED
  5
FFFF
  9
$MEASUREMENT
 70
     1
  0
ENDSEC
  0
SECTION
  2
TABLES
  0
TABLE
  2
VPORT
  5
8
330
0
100
AcDbSymbolTable
 70
     4
  0
VPORT
  5
2E
330
8
100
AcDbSymbolTableRecord
100
AcDbViewportTableRecord
  2
*ACTIVE
 70
     0
 10
0.0
 20
0.0
 11
1.0
 21
1.0
 12
210.0
 22
148.5
 13
0.0
 23
0.0
 14
10.0
 24
10.0
 15
10.0
 25
10.0
 16
0.0
 26
0.0
 36
1.0
 17
0.0
 27
0.0
 37
0.0
 40
341.0
 41
1.24
 42
50.0
 43
0.0
 44
0.0
 50
0.0
 51
0.0
 71
     0
 72
   100
 73
     1
 74
     3
 75
     0
 76
     0
 77
     0
 78
     0
  0
ENDTAB
  0
TABLE
  2
LTYPE
  5
5
330
0
100
AcDbSymbolTable
 70
     1
  0
LTYPE
  5
14
330
5
100
AcDbSymbolTableRecord
100
AcDbLinetypeTableRecord
  2
BYBLOCK
 70
     0
  3

 72
    65
 73
     0
 40
0.0
  0
LTYPE
  5
15
330
5
100
AcDbSymbolTableRecord
100
AcDbLinetypeTableRecord
  2
BYLAYER
 70
     0
  3

 72
    65
 73
     0
 40
0.0
  0
LTYPE
  5
16
330
5
100
AcDbSymbolTableRecord
100
AcDbLinetypeTableRecord
  2
CONTINUOUS
 70
     0
  3
Solid line
 72
    65
 73
     0
 40
0.0
  0
ENDTAB
  0
TABLE
  2
LAYER
  5
2
100
AcDbSymbolTable
 70
2
  0
LAYER
  5
50
100
AcDbSymbolTableRecord
100
AcDbLayerTableRecord
  2
0
 70
0
  6
CONTINUOUS
  0
LAYER
  5
51
100
AcDbSymbolTableRecord
100
AcDbLayerTableRecord
  2
Layer_1
 70
0
  6
CONTINUOUS
  0
ENDTAB
  0
TABLE
  2
STYLE
  5
3
330
0
100
AcDbSymbolTable
 70
     1
  0
STYLE
  5
11
330
3
100
AcDbSymbolTableRecord
100
AcDbTextStyleTableRecord
  2
STANDARD
 70
     0
 40
0.0
 41
1.0
 50
0.0
 71
     0
 42
2.5
  3
txt
  4

  0
ENDTAB
  0
TABLE
  2
VIEW
  5
6
330
0
100
AcDbSymbolTable
 70
     0
  0
ENDTAB
  0
TABLE
  2
UCS
  5
7
330
0
100
AcDbSymbolTable
 70
     0
  0
ENDTAB
  0
TABLE
  2
APPID
  5
9
330
0
100
AcDbSymbolTable
 70
     2
  0
APPID
  5
12
330
9
100
AcDbSymbolTableRecord
100
AcDbRegAppTableRecord
  2
ACAD
 70
     0
  0
ENDTAB
  0
TABLE
  2
DIMSTYLE
  5
A
330
0
100
AcDbSymbolTable
 70
     1
  0
DIMSTYLE
105
27
330
A
100
AcDbSymbolTableRecord
100
AcDbDimStyleTableRecord
  2
ISO-25
 70
     0
  3

  4

  5

  6

  7

 40
1.0
 41
2.5
 42
0.625
 43
3.75
 44
1.25
 45
0.0
 46
0.0
 47
0.0
 48
0.0
140
2.5
141
2.5
142
0.0
143
0.03937007874016
144
1.0
145
0.0
146
1.0
147
0.625
 71
     0
 72
     0
 73
     0
 74
     0
 75
     0
 76
     0
 77
     1
 78
     8
170
     0
171
     3
172
     1
173
     0
174
     0
175
     0
176
     0
177
     0
178
     0
270
     2
271
     2
272
     2
273
     2
274
     3
340
11
275
     0
280
     0
281
     0
282
     0
283
     0
284
     8
285
     0
286
     0
287
     3
288
     0
  0
ENDTAB
  0
TABLE
  2
BLOCK_RECORD
  5
1
330
0
100
AcDbSymbolTable
 70
     1
  0
BLOCK_RECORD
  5
1F
330
1
100
AcDbSymbolTableRecord
100
AcDbBlockTableRecord
  2
*MODEL_SPACE
  0
BLOCK_RECORD
  5
1B
330
1
100
AcDbSymbolTableRecord
100
AcDbBlockTableRecord
  2
*PAPER_SPACE
  0
ENDTAB
  0
ENDSEC
  0
SECTION
  2
BLOCKS
  0
BLOCK
  5
20
330
1F
100
AcDbEntity
  8
0
100
AcDbBlockBegin
  2
*MODEL_SPACE
 70
     0
 10
0.0
 20
0.0
 30
0.0
  3
*MODEL_SPACE
  1

  0
ENDBLK
  5
21
330
1F
100
AcDbEntity
  8
0
100
AcDbBlockEnd
  0
BLOCK
  5
1C
330
1B
100
AcDbEntity
 67
     1
  8
0
100
AcDbBlockBegin
  2
*PAPER_SPACE
  1

  0
ENDBLK
  5
1D
330
1B
100
AcDbEntity
 67
     1
  8
0
100
AcDbBlockEnd
  0
ENDSEC
  0
SECTION
  2
ENTITIES
  0
LWPOLYLINE
  5
100
100
AcDbEntity
  8
Layer_1
 62
1
100
AcDbPolyline
 90
4
 70
1
 10
165.418860
 20
112.690550
 30
0.0
 10
165.418860
 20
120.254950
 30
0.0
 10
143.386610
 20
120.254950
 30
0.0
 10
143.386610
 20
112.690550
 30
0.0
  0
LWPOLYLINE
  5
101
100
AcDbEntity
  8
Layer_1
 62
1
100
AcDbPolyline
 90
4
 70
1
 10
221.778200
 20
132.142600
 30
0.0
 10
241.600760
 20
151.965160
 30
0.0
 10
234.794460
 20
158.771460
 30
0.0
 10
214.971900
 20
138.948900
 30
0.0
  0
LWPOLYLINE
  5
102
100
AcDbEntity
  8
Layer_1
 62
1
100
AcDbPolyline
 90
4
 70
1
 10
87.682505
 20
132.378240
 30
0.0
 10
94.488302
 20
139.184540
 30
0.0
 10
74.665719
 20
159.007110
 30
0.0
 10
67.859948
 20
152.200800
 30
0.0
  0
LWPOLYLINE
  5
103
100
AcDbEntity
  8
Layer_1
 62
1
100
AcDbPolyline
 90
4
 70
1
 10
174.919570
 20
133.972460
 30
0.0
 10
174.919570
 20
141.537370
 30
0.0
 10
133.885900
 20
141.537370
 30
0.0
 10
133.885900
 20
133.972460
 30
0.0
  0
LWPOLYLINE
  5
104
100
AcDbEntity
  8
Layer_1
 62
1
100
AcDbPolyline
 90
22
 70
1
 10
188.820510
 20
154.476630
 30
0.0
 10
217.976880
 20
183.632470
 30
0.0
 10
247.132720
 20
212.789867
 30
0.0
 10
247.132720
 20
246.714412
 30
0.0
 10
247.132720
 20
247.806335
 30
0.0
 10
240.039100
 20
247.806335
 30
0.0
 10
240.039100
 20
247.193969
 30
0.0
 10
240.039100
 20
216.790139
 30
0.0
 10
212.417010
 20
189.180460
 30
0.0
 10
184.794400
 20
161.570260
 30
0.0
 10
154.391110
 20
161.570260
 30
0.0
 10
123.987780
 20
161.570260
 30
0.0
 10
96.377586
 20
189.192340
 30
0.0
 10
68.767390
 20
216.814944
 30
0.0
 10
68.767390
 20
247.218257
 30
0.0
 10
68.767390
 20
247.806335
 30
0.0
 10
61.672720
 20
247.806335
 30
0.0
 10
61.672720
 20
246.725780
 30
0.0
 10
61.672720
 20
212.788835
 30
0.0
 10
90.828559
 20
183.632470
 30
0.0
 10
119.984430
 20
154.476630
 30
0.0
 10
154.402460
 20
154.476630
 30
0.0
  0
LWPOLYLINE
  5
105
100
AcDbEntity
  8
Layer_1
 62
1
100
AcDbPolyline
 90
4
 70
1
 10
60.365837
 20
159.223630
 30
0.0
 10
67.172137
 20
166.029410
 30
0.0
 10
47.349581
 20
185.851980
 30
0.0
 10
40.543280
 20
179.045670
 30
0.0
  0
LWPOLYLINE
  5
106
100
AcDbEntity
  8
Layer_1
 62
1
100
AcDbPolyline
 90
4
 70
1
 10
248.623070
 20
159.459270
 30
0.0
 10
268.445630
 20
179.281320
 30
0.0
 10
261.639330
 20
186.087620
 30
0.0
 10
241.817280
 20
166.265060
 30
0.0
  0
LWPOLYLINE
  5
107
100
AcDbEntity
  8
Layer_1
 62
1
100
AcDbPolyline
 90
22
 70
1
 10
167.542220
 20
213.257023
 30
0.0
 10
177.947810
 20
223.625899
 30
0.0
 10
188.352330
 20
233.996325
 30
0.0
 10
188.352330
 20
247.171748
 30
0.0
 10
188.352330
 20
247.806335
 30
0.0
 10
181.258700
 20
247.806335
 30
0.0
 10
181.258700
 20
247.206888
 30
0.0
 10
181.258700
 20
237.202331
 30
0.0
 10
172.832860
 20
228.776489
 30
0.0
 10
164.407010
 20
220.350646
 30
0.0
 10
154.402460
 20
220.350646
 30
0.0
 10
144.398430
 20
220.350646
 30
0.0
 10
135.972590
 20
228.776489
 30
0.0
 10
127.546220
 20
237.202331
 30
0.0
 10
127.546220
 20
247.206888
 30
0.0
 10
127.546220
 20
247.806335
 30
0.0
 10
120.452580
 20
247.806335
 30
0.0
 10
120.452580
 20
247.172781
 30
0.0
 10
120.452580
 20
234.068155
 30
0.0
 10
130.821470
 20
223.662589
 30
0.0
 10
141.190860
 20
213.257023
 30
0.0
 10
154.366820
 20
213.257023
 30
0.0
  0
LWPOLYLINE
  5
108
100
AcDbEntity
  8
Layer_1
 62
1
100
AcDbPolyline
 90
4
 70
1
 10
267.635350
 20
226.689794
 30
0.0
 10
267.635350
 20
247.806335
 30
0.0
 10
260.070950
 20
247.806335
 30
0.0
 10
260.070950
 20
226.689794
 30
0.0
  0
LWPOLYLINE
  5
109
100
AcDbEntity
  8
Layer_1
 62
1
100
AcDbPolyline
 90
4
 70
1
 10
48.734489
 20
226.689794
 30
0.0
 10
48.734489
 20
247.806335
 30
0.0
 10
41.169576
 20
247.806335
 30
0.0
 10
41.169576
 20
226.689794
 30
0.0
  0
LWPOLYLINE
  5
10a
100
AcDbEntity
  8
Layer_1
 62
1
100
AcDbPolyline
 90
4
 70
1
 10
288.917770
 20
236.190506
 30
0.0
 10
288.917770
 20
247.806335
 30
0.0
 10
281.352850
 20
247.806335
 30
0.0
 10
281.352850
 20
236.190506
 30
0.0
  0
SPLINE
  5
10b
100
AcDbEntity
  8
Layer_1
 62
7
100
AcDbSpline
 70
8
 71
3
 72
8
 73
4
 74
0
 40
0
 40
0
 40
0
 40
0
 40
1
 40
1
 40
1
 40
1
 10
154.402460
 20
94.706640
 30
0.0
 10
238.624700
 20
94.706630
 30
0.0
 10
306.902730
 20
162.984130
 30
0.0
 10
306.902720
 20
247.206371
 30
0.0
  0
SPLINE
  5
10c
100
AcDbEntity
  8
Layer_1
 62
7
100
AcDbSpline
 70
8
 71
3
 72
8
 73
4
 74
0
 40
0
 40
0
 40
0
 40
0
 40
1
 40
1
 40
1
 40
1
 10
306.902720
 20
247.206371
 30
0.0
 10
306.902720
 20
247.406665
 30
0.0
 10
306.899720
 20
247.606222
 30
0.0
 10
306.898720
 20
247.806335
 30
0.0
  0
LWPOLYLINE
  5
10d
100
AcDbEntity
  8
Layer_1
 62
1
100
AcDbPolyline
 90
4
 70
1
 10
27.452597
 20
236.190506
 30
0.0
 10
27.452597
 20
247.806335
 30
0.0
 10
19.887683
 20
247.806335
 30
0.0
 10
19.887683
 20
236.190506
 30
0.0
  0
SPLINE
  5
10e
100
AcDbEntity
  8
Layer_1
 62
7
100
AcDbSpline
 70
8
 71
3
 72
8
 73
4
 74
0
 40
0
 40
0
 40
0
 40
0
 40
1
 40
1
 40
1
 40
1
 10
306.699250
 20
247.806335
 30
0.0
 10
306.700040
 20
247.606216
 30
0.0
 10
306.703250
 20
247.406671
 30
0.0
 10
306.703250
 20
247.206371
 30
0.0
  0
SPLINE
  5
10f
100
AcDbEntity
  8
Layer_1
 62
7
100
AcDbSpline
 70
8
 71
3
 72
8
 73
4
 74
0
 40
0
 40
0
 40
0
 40
0
 40
1
 40
1
 40
1
 40
1
 10
306.703250
 20
247.206371
 30
0.0
 10
306.703260
 20
163.092220
 30
0.0
 10
238.516620
 20
94.907660
 30
0.0
 10
154.402470
 20
94.907660
 30
0.0
  0
SPLINE
  5
110
100
AcDbEntity
  8
Layer_1
 62
7
100
AcDbSpline
 70
8
 71
3
 72
8
 73
4
 74
0
 40
0
 40
0
 40
0
 40
0
 40
1
 40
1
 40
1
 40
1
 10
154.402470
 20
94.907660
 30
0.0
 10
70.288330
 20
94.907660
 30
0.0
 10
2.101687
 20
163.092220
 30
0.0
 10
2.101687
 20
247.206371
 30
0.0
  0
SPLINE
  5
111
100
AcDbEntity
  8
Layer_1
 62
7
100
AcDbSpline
 70
8
 71
3
 72
8
 73
4
 74
0
 40
0
 40
0
 40
0
 40
0
 40
1
 40
1
 40
1
 40
1
 10
2.101687
 20
247.206371
 30
0.0
 10
2.101687
 20
247.406671
 30
0.0
 10
2.104597
 20
247.606216
 30
0.0
 10
2.105387
 20
247.806335
 30
0.0
  0
LWPOLYLINE
  5
112
100
AcDbEntity
  8
Layer_1
 62
7
100
AcDbPolyline
 90
2
 70
0
 10
306.898720
 20
247.806335
 30
0.0
 10
306.699250
 20
247.806335
 30
0.0
  0
SPLINE
  5
113
100
AcDbEntity
  8
Layer_1
 62
7
100
AcDbSpline
 70
8
 71
3
 72
8
 73
4
 74
0
 40
0
 40
0
 40
0
 40
0
 40
1
 40
1
 40
1
 40
1
 10
1.906441
 20
247.806335
 30
0.0
 10
1.906441
 20
247.606222
 30
0.0
 10
1.902741
 20
247.406665
 30
0.0
 10
1.902741
 20
247.206371
 30
0.0
  0
SPLINE
  5
114
100
AcDbEntity
  8
Layer_1
 62
7
100
AcDbSpline
 70
8
 71
3
 72
8
 73
4
 74
0
 40
0
 40
0
 40
0
 40
0
 40
1
 40
1
 40
1
 40
1
 10
1.902741
 20
247.206371
 30
0.0
 10
1.902741
 20
162.984130
 30
0.0
 10
70.180242
 20
94.706640
 30
0.0
 10
154.402460
 20
94.706640
 30
0.0
  0
LWPOLYLINE
  5
115
100
AcDbEntity
  8
Layer_1
 62
7
100
AcDbPolyline
 90
2
 70
0
 10
2.105387
 20
247.806335
 30
0.0
 10
1.906441
 20
247.806335
 30
0.0
  0
LWPOLYLINE
  5
116
100
AcDbEntity
  8
Layer_1
 62
7
100
AcDbPolyline
 90
1
 70
1
 10
154.402460
 20
94.706640
 30
0.0
  0
LWPOLYLINE
  5
117
100
AcDbEntity
  8
Layer_1
 62
7
100
AcDbPolyline
 90
4
 70
1
 10
204.880510
 20
187.956760
 30
0.0
 10
204.880510
 20
190.956570
 30
0.0
 10
198.050450
 20
190.956570
 30
0.0
 10
198.050450
 20
187.956760
 30
0.0
  0
LWPOLYLINE
  5
118
100
AcDbEntity
  8
Layer_1
 62
7
100
AcDbPolyline
 90
4
 70
1
 10
189.192600
 20
187.956760
 30
0.0
 10
189.192600
 20
190.956570
 30
0.0
 10
182.362510
 20
190.956570
 30
0.0
 10
182.362510
 20
187.956760
 30
0.0
  0
LWPOLYLINE
  5
119
100
AcDbEntity
  8
Layer_1
 62
7
100
AcDbPolyline
 90
4
 70
1
 10
173.505190
 20
187.956760
 30
0.0
 10
173.505190
 20
190.956570
 30
0.0
 10
166.675100
 20
190.956570
 30
0.0
 10
166.675100
 20
187.956760
 30
0.0
  0
LWPOLYLINE
  5
11a
100
AcDbEntity
  8
Layer_1
 62
7
100
AcDbPolyline
 90
4
 70
1
 10
157.817750
 20
187.956760
 30
0.0
 10
157.817750
 20
190.956570
 30
0.0
 10
150.987690
 20
190.956570
 30
0.0
 10
150.987690
 20
187.956760
 30
0.0
  0
LWPOLYLINE
  5
11b
100
AcDbEntity
  8
Layer_1
 62
7
100
AcDbPolyline
 90
4
 70
1
 10
142.130340
 20
187.956760
 30
0.0
 10
142.130340
 20
190.956570
 30
0.0
 10
135.300280
 20
190.956570
 30
0.0
 10
135.300280
 20
187.956760
 30
0.0
  0
LWPOLYLINE
  5
11c
100
AcDbEntity
  8
Layer_1
 62
7
100
AcDbPolyline
 90
4
 70
1
 10
126.442430
 20
187.956760
 30
0.0
 10
126.442430
 20
190.956570
 30
0.0
 10
119.612340
 20
190.956570
 30
0.0
 10
119.612340
 20
187.956760
 30
0.0
  0
LWPOLYLINE
  5
11d
100
AcDbEntity
  8
Layer_1
 62
7
100
AcDbPolyline
 90
4
 70
1
 10
110.754990
 20
187.956760
 30
0.0
 10
110.754990
 20
190.956570
 30
0.0
 10
103.924930
 20
190.956570
 30
0.0
 10
103.924930
 20
187.956760
 30
0.0
  0
LWPOLYLINE
  5
11e
100
AcDbEntity
  8
Layer_1
 62
7
100
AcDbPolyline
 90
4
 70
1
 10
213.652590
 20
196.729350
 30
0.0
 10
213.652590
 20
203.559422
 30
0.0
 10
210.652770
 20
203.559422
 30
0.0
 10
210.652770
 20
196.729350
 30
0.0
  0
LWPOLYLINE
  5
11f
100
AcDbEntity
  8
Layer_1
 62
7
100
AcDbPolyline
 90
4
 70
1
 10
98.152676
 20
196.729350
 30
0.0
 10
98.152676
 20
203.559422
 30
0.0
 10
95.152327
 20
203.559422
 30
0.0
 10
95.152327
 20
196.729350
 30
0.0
  0
LWPOLYLINE
  5
120
100
AcDbEntity
  8
Layer_1
 62
7
100
AcDbPolyline
 90
4
 70
1
 10
213.652590
 20
212.416765
 30
0.0
 10
213.652590
 20
219.246838
 30
0.0
 10
210.652770
 20
219.246838
 30
0.0
 10
210.652770
 20
212.416765
 30
0.0
  0
LWPOLYLINE
  5
121
100
AcDbEntity
  8
Layer_1
 62
7
100
AcDbPolyline
 90
4
 70
1
 10
98.152676
 20
212.416765
 30
0.0
 10
98.152676
 20
219.246838
 30
0.0
 10
95.152327
 20
219.246838
 30
0.0
 10
95.152327
 20
212.416765
 30
0.0
  0
LWPOLYLINE
  5
122
100
AcDbEntity
  8
Layer_1
 62
7
100
AcDbPolyline
 90
4
 70
1
 10
213.652590
 20
228.104178
 30
0.0
 10
213.652590
 20
234.934252
 30
0.0
 10
210.652770
 20
234.934252
 30
0.0
 10
210.652770
 20
228.104178
 30
0.0
  0
LWPOLYLINE
  5
123
100
AcDbEntity
  8
Layer_1
 62
7
100
AcDbPolyline
 90
4
 70
1
 10
98.152676
 20
228.104178
 30
0.0
 10
98.152676
 20
234.934252
 30
0.0
 10
95.152327
 20
234.934252
 30
0.0
 10
95.152327
 20
228.104178
 30
0.0
  0
LWPOLYLINE
  5
124
100
AcDbEntity
  8
Layer_1
 62
7
100
AcDbPolyline
 90
4
 70
1
 10
213.652590
 20
243.791593
 30
0.0
 10
213.652590
 20
247.806335
 30
0.0
 10
210.652770
 20
247.806335
 30
0.0
 10
210.652770
 20
243.791593
 30
0.0
  0
LWPOLYLINE
  5
125
100
AcDbEntity
  8
Layer_1
 62
7
100
AcDbPolyline
 90
4
 70
1
 10
98.152676
 20
243.791593
 30
0.0
 10
98.152676
 20
247.806335
 30
0.0
 10
95.152327
 20
247.806335
 30
0.0
 10
95.152327
 20
243.791593
 30
0.0
  0
LWPOLYLINE
  5
126
100
AcDbEntity
  8
Layer_1
 62
7
100
AcDbPolyline
 90
2
 70
0
 10
306.899090
 20
247.806335
 30
0.0
 10
1.906441
 20
247.806335
 30
0.0
  0
ENDSEC
  0
SECTION
  2
OBJECTS
  0
DICTIONARY
  5
C
330
0
100
AcDbDictionary
  3
ACAD_GROUP
350
D
  3
ACAD_MLINESTYLE
350
17
  0
DICTIONARY
  5
D
330
C
100
AcDbDictionary
  0
DICTIONARY
  5
1A
330
C
100
AcDbDictionary
  0
DICTIONARY
  5
17
330
C
100
AcDbDictionary
  3
STANDARD
350
18
  0
DICTIONARY
  5
19
330
C
100
AcDbDictionary
  0
ENDSEC
  0
EOF
